<?xml version="1.0" encoding="utf-8"?>
<!-- Generator: Adobe Illustrator 18.1.1, SVG Export Plug-In . SVG Version: 6.00 Build 0)  -->
<svg version="1.1" id="Layer_1" xmlns="http://www.w3.org/2000/svg" xmlns:xlink="http://www.w3.org/1999/xlink" x="0px" y="0px"
	 viewBox="0 0 122.4 122.4" enable-background="new 0 0 122.4 122.4" xml:space="preserve">
<g>
	<circle fill="#4E8ABE" cx="61.2" cy="61.2" r="61.2"/>
	<g id="Icons_5_">
		<g>
			<g>
				<g>
					<path fill="#FFFFFF" d="M81.4,28.5c0.5,1.6,1.1,3.2,1.5,4.9c1.4,6.7,0.5,13.1-2,19.4c-3.2,8.3-8.4,15-16.1,19.6
						c-5.8,3.4-12,4.7-18.7,4.1c-0.8-0.1-1.5-0.2-2.4-0.2c-0.2-1,0.1-2,0.4-2.9c1.1-3.2,3.3-5.6,5.6-7.9c3-2.9,6.4-5.3,9.9-7.5
						c0.2-0.1,0.5-0.3,0.6-0.6c-0.8,0.4-1.6,0.8-2.3,1.2c-4.6,2.5-8.9,5.2-12.6,8.9c-1.6,1.6-3,3.4-3.7,5.6
						c-0.6,1.8-0.4,3.6-0.2,5.4c0.3,3.5,1,6.9,2.6,10c1,2.1,2.3,3.9,4.2,5.6c-1.6,0-3.1,0-4.5,0c-0.2,0-0.5-0.4-0.6-0.6
						c-1.6-2.3-2.5-4.9-3.1-7.6c-1.4-6.6-1.6-13.3,0-19.9c1.9-7.9,6.6-13.6,13.5-17.7c4.3-2.6,9-4.4,13.6-6.3c2.4-1,4.8-2.1,7.1-3.3
						c3.9-2.1,6.8-5,6.9-9.8C81.2,28.5,81.3,28.5,81.4,28.5z"/>
				</g>
			</g>
		</g>
	</g>
</g>
</svg>
