<?xml version="1.0" encoding="utf-8"?>
<!-- Generator: Adobe Illustrator 18.1.1, SVG Export Plug-In . SVG Version: 6.00 Build 0)  -->
<svg version="1.1" id="Layer_1" xmlns="http://www.w3.org/2000/svg" xmlns:xlink="http://www.w3.org/1999/xlink" x="0px" y="0px"
	 viewBox="0 0 122.4 122.4" enable-background="new 0 0 122.4 122.4" xml:space="preserve">
<g>
	<circle fill="#4E8ABE" cx="61.2" cy="61.2" r="61.2"/>
	<g>
		<path fill-rule="evenodd" clip-rule="evenodd" fill="#FFFFFF" d="M62.9,95.2c-2.2-0.8-2.9-2-2.7-4.1c0.1-0.9,0.2-1.7,0.5-2.5
			c0.9-2.4,1.8-4.8,2.7-7.2c0.8-2.2,1.7-4.3,2.6-6.5c-2.3-1.5-4.5-3-6.8-4.5c-0.2,0.3-0.5,0.6-0.7,0.9c-1.4,2-2.8,3.9-4.1,5.9
			c-1.4,2-3.2,2.9-5.7,2.7c-4.3-0.4-8.5-0.6-12.8-0.9c-1.4-0.1-2.8-0.3-4-0.9c-1.3-0.6-2-1.6-2.1-3.1c-0.1-1.5,0.6-2.6,1.9-3.4
			c1-0.6,2.2-0.8,3.4-0.9c3.6-0.3,7.1-0.5,10.7-0.7c0.8,0,1.4-0.3,1.8-1c1.3-2.1,2.8-4,4.2-6.1c0.2-0.3,0.4-0.6,0.4-1
			c0.1-2,1-3.7,2-5.3c2.1-3.2,4.2-6.3,6.3-9.4c0.1-0.2,0.3-0.4,0.5-0.7c-1.1-0.2-2.2-0.5-3.3-0.7c-0.3,0-0.6,0.1-0.9,0.2
			c-3,1.6-6,3.2-9,4.7c-0.8,0.4-1.7,0.6-2.6,0.6c-2.2,0-3.4-2-2.6-4.1c0.5-1.3,1.5-2.3,2.6-3.2c2.8-2.2,5.6-4.4,8.4-6.5
			c1.2-0.9,2.6-1.1,4.1-0.8c3.4,0.8,6.8,1.5,10.1,2.2c0.6,0.1,1.3,0.4,1.8,0.8c1.7,1.1,3.3,2.2,5,3.3c0.8,0.5,1.4,1.2,1.8,2.1
			c1.2,2.7,2.4,5.5,3.6,8.2c0.2,0.6,0.6,0.8,1.2,0.8c2.5,0.2,5,0.4,7.5,0.7c1.5,0.2,2.7,0.7,3.3,2.3c0.6,1.6-0.1,3.2-1.7,3.9
			c-1.5,0.6-3,0.7-4.6,0.8c-2.6,0.1-5.3,0-7.9,0.3c-2.6,0.2-4.2-1.4-5-3.2c-0.5-1.1-0.9-2.2-1.4-3.4c-1.6,2.5-3.1,5-4.7,7.5
			c0.2,0.2,0.4,0.3,0.6,0.4c2.5,1.7,4.9,3.4,7.4,5.1c2.5,1.7,3.2,4.4,1.8,7.1c-2.6,5-5.3,10-7.9,15c-0.5,1-1.3,1.8-2,2.7
			c-0.8,1-1.8,1.5-3.1,1.9C63.4,95.2,63.2,95.2,62.9,95.2z"/>
		<path fill-rule="evenodd" clip-rule="evenodd" fill="#FFFFFF" d="M77.5,27.2c1,0.3,2,0.5,2.8,1c2.6,1.3,4.1,4.3,3.8,7.2
			c-0.3,3-2.4,5.5-5.1,6.4c-4.3,1.3-8.8-1.2-9.6-5.7c-0.8-4.2,2-8.1,6.1-8.8c0.1,0,0.2-0.1,0.3-0.1C76.4,27.2,76.9,27.2,77.5,27.2z"
			/>
	</g>
</g>
</svg>
