<?xml version="1.0" encoding="utf-8"?>
<!-- Generator: Adobe Illustrator 18.1.1, SVG Export Plug-In . SVG Version: 6.00 Build 0)  -->
<svg version="1.1" id="Layer_1" xmlns="http://www.w3.org/2000/svg" xmlns:xlink="http://www.w3.org/1999/xlink" x="0px" y="0px"
	 viewBox="0 0 122.4 122.4" enable-background="new 0 0 122.4 122.4" xml:space="preserve">
<g>
	<circle fill="#4E8ABE" cx="61.2" cy="61.2" r="61.2"/>
	<g>
		<path fill="#FFFFFF" d="M92,50.4c0.1-0.6,0.1-1.2,0-1.7c-0.3-6.3-5.7-11.1-12-10.8c-0.3,0-0.6,0-0.9,0.1
			c-2.6-4.4-9.3-7.3-17.1-6.9c-6.3,0.3-11.7,2.7-14.7,6.1c-1.1-0.3-2.4-0.4-3.6-0.3c-6.8,0.4-12,6.1-11.6,12.9l0,0
			c-0.1,0.2-0.3,0.3-0.4,0.5c-2.6,2.6-3.7,5.7-2.9,9.3c1,4.8,5.4,8.1,10.3,8.4c1.4,0.1,2.8-0.1,4.2-0.2c-0.6,2.9,0.6,4.8,2.1,6
			c0.9,0.7,2,1.4,3.1,1.9c4.4,1.9,6.1,1.8,10.6,0.5c0.5-0.1,0.8-0.1,1.1,0.3c3.7,4.4,7.2,9,9.4,14.4c0.1,0.2,0.3,0.5,0.5,0.5
			c0.2,0,4.1,0,4.3,0c-0.2-0.5-0.5-1-0.7-1.5c-1.2-2.5-3-5.1-4.4-7.7c-0.2-0.4-0.3-0.8-0.4-1.2c-0.2-0.6-0.3-1.3-0.4-1.9
			c-0.1-1-0.2-2.4,0.1-3.8c0.2-1,0.6-1.9,1.2-2.8c0.5-0.8,1.1-1.6,1.8-2.2c0.1-0.1,0.3-0.3,0.4-0.5c0.1-0.1,0.1-0.2,0.2-0.2
			c0.9-1.1,2-1.9,2.8-2.4c0.6-0.4,1.2-0.9,1.7-1.3c1.3-1.2,2.1-2.5,2.3-4.1l0-0.1l-0.1,0c-0.8-0.2-1.6-0.3-2.5-0.3
			c-1,0-1.9,0.2-2.9,0.6c-0.2,0.1-0.5,0.1-0.7,0.2c-0.4,0-0.7-0.2-0.9-0.6c-0.1-0.2-0.1-0.5,0-0.7c0.2-0.4,0.6-0.6,0.9-0.7
			c1.2-0.5,2.3-0.7,3.5-0.8c0.5,0,1,0,1.5,0.1c0.3,0,0.5,0.1,0.8,0.1l0,0c0.1,0,0.3,0,0.4,0l0.2,0l0-0.2c0-0.1,0-0.3,0-0.4
			c0-0.2,0-0.5-0.1-0.7c-0.4-2.2-1.5-4-3.1-5.2c-1.6-1.3-3.6-1.9-5.8-1.9c-1.1,0-2.3-0.2-3.8-0.6c-0.2-0.1-0.4-0.1-0.6-0.1
			c-0.4,0-0.7,0.3-0.9,0.6c-1,1.7-1.5,3.5-1.3,5.4c0.2,1.9,1.1,3.7,2.4,5.2c0.7,0.8,0.3,1.3,0.1,1.5c-0.4,0.4-1,0.4-1.5-0.2
			c-1.5-1.5-2.4-3.3-2.8-5.3c-0.1-0.5-0.3-0.7-0.8-0.7c-1.7-0.2-3.4,0.2-5,1c-0.2,0.1-0.4,0.2-0.7,0.2c-0.4,0-0.7-0.2-0.9-0.5
			c-0.1-0.2-0.3-0.9,0.6-1.4c1.6-0.9,3.3-1.3,5.3-1.3c0.2,0,0.5,0,0.7,0l0,0c0.1,0,0.2,0,0.3,0l0.1,0l0-0.1c0.1-2,0.8-3.8,1.9-5.4
			l0.1-0.1l-3.4-4l-0.1,0.1c-2.5,1.8-5.2,2.4-8.2,1.9l-0.1,0l0,0.1c0,0.1,0,0.1-0.1,0.2c0,0.1-0.1,0.2-0.1,0.3
			c-0.3,2.3-1.5,4.5-3.3,6.2c-1.9,1.7-4.3,2.7-6.8,2.8l-0.2,0c-2.1,0.1-3.9,0.9-5.5,2.4c-0.3,0.3-0.6,0.4-0.9,0.4
			c-0.2,0-0.5,0-0.7-0.3c-0.4-0.5-0.3-1,0.3-1.5c2-1.9,4.3-2.9,7.1-3c0.5,0,1-0.1,1.5-0.2c0.3,0,0.5-0.1,0.8-0.1l0.2,0L44,54.5
			c-1.2-1.5-2.6-2.4-4.4-3c-0.6-0.2-0.9-0.7-0.7-1.2c0.1-0.4,0.4-0.6,0.8-0.7c0.1,0,0.3,0,0.4,0.1c1.1,0.4,2.2,0.9,3.1,1.5
			c0.7,0.4,1.3,1,2,1.6c0.3,0.3,0.6,0.5,0.9,0.8l0.1,0.1l0.1-0.1c2-1.4,3.2-3.4,3.6-6c0.1-0.4-0.1-0.7-0.5-1
			c-1.1-0.6-1.9-1.2-2.6-1.8c-0.2-0.2-0.3-0.4-0.3-0.6c0-0.2,0.1-0.5,0.3-0.7c0.4-0.4,0.8-0.4,1.3-0.1c0.1,0.1,0.2,0.1,0.3,0.2
			l0.1,0.1c1.7,1.4,3.7,2.1,5.9,2c1.6-0.1,3.2-0.6,4.6-1.5c0.6-0.4,1.2-0.9,0.8-2c-0.1-0.1-0.1-0.3-0.1-0.5c0-0.1,0-0.1,0-0.1
			c0-0.8,0.3-1.3,0.9-1.3l0,0c0.6,0,0.9,0.4,1,1.1c0.4,3.6,2.3,6.2,5.6,7.5c0.5,0.2,1,0.3,1.5,0.4c0.2,0,0.5,0.1,0.7,0.1l0.2,0
			l0-0.2c0-0.2,0.1-0.3,0.1-0.5c0-0.3,0.1-0.5,0.1-0.8c0.4-1.9,1.2-3.7,2.5-5.1c0.4-0.5,0.9-0.5,1.4-0.2c0.4,0.3,0.5,0.9,0.1,1.4
			c-0.1,0.1-0.2,0.2-0.3,0.3c-0.1,0.1-0.1,0.2-0.2,0.3c-1,1.3-1.6,2.8-1.7,4.4l0,0.1l0.1,0c0,0,0.1,0,0.1,0l0,0
			c0.1,0,0.2,0.1,0.3,0.1c2.9,0.3,5.2,1.6,7.1,3.9c0.7,0.9,1,1.2,1.5,1.1c0.3,0,0.7-0.2,1.4-0.4l0,0c0.1,0,0.2-0.1,0.3-0.1
			c0.2-0.2,0.4-0.3,0.6-0.5l0.1-0.1c0.7-0.5,1.4-1.1,2.1-1.6c0.5-0.4,1-0.5,1.4-0.2c0.5,0.4,0.5,0.9,0.1,1.4
			c-0.2,0.2-0.3,0.4-0.5,0.6l-0.1,0.1c-1.3,1.3-3,2.2-5,2.7l-0.1,0l0,0.1c0.9,3.3,0.6,6.1-0.8,8.6l-0.1,0.1l0.8,0.4
			c1.8,0.9,3.2,2.2,4.3,3.9c0.3,0.5,0.2,1-0.2,1.3c-0.4,0.3-0.9,0.2-1.3-0.2c-0.1-0.1-0.2-0.2-0.3-0.4l0,0c0,0-0.1-0.1-0.1-0.1
			c-1-1.4-2.3-2.4-3.9-3c-0.3-0.1-0.7,0-0.9,0.1c-0.4,0.3-0.8,0.6-1.1,0.8c-0.4,0.3-0.7,0.6-1.1,0.8c-0.6,0.4-1.1,0.8-1.6,1.2
			c-0.3,0.2-0.5,0.5-0.6,0.7c-0.2,0.3-0.4,0.5-0.7,0.8c-0.2,0.2-0.4,0.5-0.6,0.7c-0.3,0.3-0.5,0.7-0.8,1c-0.4,0.7-0.8,1.3-1,2
			c-0.2,0.6-0.2,1.2-0.2,1.9l0,0.1c0,0.6,0,1.3,0.1,2c0.3,1.3,0.8,2.7,1.4,4.1c1.1,2.4,2.1,4.7,3.3,7.2c0.1,0.3,0.3,0.6,0.4,0.9
			c0.3,0,0.6,0,0.9,0c-1.1-3.7-2.1-7.2-3.1-10.7c0.3,0.1,0.5,0.2,0.8,0.3c3.6,1.2,7,0.9,10.1-1.3c2.5-1.8,3.8-4.2,3-7.4
			c-0.3-1.1-1-2.1-1.5-3.2c0.1-0.1,0.3-0.2,0.5-0.4c1.8-1.3,3.5-2.7,4.8-4.5C94.3,59.8,94.6,54.6,92,50.4z"/>
	</g>
</g>
</svg>
