<?xml version="1.0" encoding="utf-8"?>
<!-- Generator: Adobe Illustrator 18.1.1, SVG Export Plug-In . SVG Version: 6.00 Build 0)  -->
<svg version="1.1" id="Layer_1" xmlns="http://www.w3.org/2000/svg" xmlns:xlink="http://www.w3.org/1999/xlink" x="0px" y="0px"
	 viewBox="0 0 122.4 122.4" enable-background="new 0 0 122.4 122.4" xml:space="preserve">
<g>
	<circle fill="#4E8ABE" cx="61.2" cy="61.2" r="61.2"/>
	<g id="Layer_1_10_">
		<g>
			<g>
				<path fill="#FFFFFF" d="M59.6,72.9V38c-6.7-7.4-17.5-2.5-23.5-6.2l-8.5,33.4C36.3,69.7,49,63.5,59.6,72.9z"/>
			</g>
			<g>
				<path fill="#FFFFFF" d="M84,31.8c-5.8,3.7-16.6-1.4-23.5,6.2v35c10.6-9.7,23.2-3.2,32-7.6L84,31.8z"/>
			</g>
			<g>
				<path fill="#FFFFFF" d="M88.3,38.9h-1.4l9.9,33.4l-30.6,7.6c-1.6-1.6-3.7-2.5-6.2-2.5c-2.5,0-4.6,0.9-6.2,2.5l-30.6-7.6
					l9.9-33.4h-1.4l-10.8,35l33.6,8.3l0,0l0,0l0,0c1.2-1.6,3.2-2.8,5.3-2.8c2.1,0,4.1,1.2,5.3,2.8l0,0l0,0l0,0l33.6-8.3L88.3,38.9z"
					/>
			</g>
		</g>
	</g>
</g>
</svg>
