<?xml version="1.0" encoding="utf-8"?>
<!-- Generator: Adobe Illustrator 18.1.1, SVG Export Plug-In . SVG Version: 6.00 Build 0)  -->
<svg version="1.1" id="Layer_1" xmlns="http://www.w3.org/2000/svg" xmlns:xlink="http://www.w3.org/1999/xlink" x="0px" y="0px"
	 viewBox="0 0 122.4 122.4" enable-background="new 0 0 122.4 122.4" xml:space="preserve">
<g>
	<circle fill="#4E8ABE" cx="61.2" cy="61.2" r="61.2"/>
	<g id="Layer_1_18_">
		<g>
			<g opacity="0.5">
				<g>
					<polygon fill="#FFFFFF" points="70.2,59.5 60.6,59.5 60.6,67.9 70.2,67.9 					"/>
				</g>
			</g>
			<g>
				<g>
					<path fill="#FFFFFF" d="M94,43.6V34h-6.1h-0.2v3c-4.4-4.7-9.1-9.1-13.6-13.6L56.4,42H36.8L20.6,57.2h2.6v19.4h75V57.6l0.7,0.7
						l4.9-4.7C100.5,50.4,97.3,47.1,94,43.6z M49.8,71.9h-4.2V60.7H37v11.4h-0.9V60.7h-3v11.2H27V57.4h22.9L49.8,71.9L49.8,71.9z
						 M95.2,71.9h-7.7v-14H76.7v14H54V55.5l20.1-21.7l21,21.3L95.2,71.9h0.2H95.2z"/>
				</g>
			</g>
		</g>
	</g>
</g>
</svg>
