<?xml version="1.0" encoding="utf-8"?>
<!-- Generator: Adobe Illustrator 18.1.1, SVG Export Plug-In . SVG Version: 6.00 Build 0)  -->
<svg version="1.1" id="Layer_1" xmlns="http://www.w3.org/2000/svg" xmlns:xlink="http://www.w3.org/1999/xlink" x="0px" y="0px"
	 viewBox="0 0 122.4 122.4" enable-background="new 0 0 122.4 122.4" xml:space="preserve">
<g>
	<circle fill="#4E8ABE" cx="61.2" cy="61.2" r="61.2"/>
	<g id="Icons_8_">
		<g id="Layer_1_12_">
			<g>
				<g>
					<path fill="#FFFFFF" d="M90.6,38H77.9l-4.2-7.2c0,0-0.5-0.9-1.9-0.9H55.5c-1.4,0-1.9,0.9-1.9,0.9L49.4,38H36.8
						c-3,0-5.6,2.6-5.6,5.6v36.7c0,3,2.6,5.6,5.6,5.6h53.7c3,0,5.6-2.6,5.6-5.6V43.6C96.2,40.6,93.6,38,90.6,38z M55.8,33.8
						c0,0,0.5-0.9,1.9-0.9h11.9c1.4,0,1.9,0.9,1.9,0.9L74,38H53.4L55.8,33.8z M78.4,66.5h-9.8v9.8H59v-9.8h-9.8v-9.6H59v-9.8h9.6
						v9.8h9.8V66.5z"/>
				</g>
			</g>
		</g>
	</g>
</g>
</svg>
