<?xml version="1.0" encoding="utf-8"?>
<!-- Generator: Adobe Illustrator 18.1.1, SVG Export Plug-In . SVG Version: 6.00 Build 0)  -->
<svg version="1.1" id="Layer_1" xmlns="http://www.w3.org/2000/svg" xmlns:xlink="http://www.w3.org/1999/xlink" x="0px" y="0px"
	 viewBox="0 0 122.4 122.4" enable-background="new 0 0 122.4 122.4" xml:space="preserve">
<g>
	<circle fill="#4E8ABE" cx="61.2" cy="61.2" r="61.2"/>
	<g id="Layer_1_11_">
		<g>
			<path fill="#FFFFFF" d="M100.4,46.7c0-0.3-0.5-0.3-0.8-0.3c0,0,0-0.5-0.3-0.5c0-0.3-0.5-0.3-0.5-0.5c-0.3-0.3-0.3-0.8-0.3-1.4
				c-0.3-0.3-0.3-0.8-0.5-1.1c-0.5-0.3-0.5,0.5-1.1,0.5c-0.3,0-0.3-0.5-0.5-0.5l-0.3,0.3c-0.5,0.8-0.3,2.4-0.8,3.5
				c0,0.3-0.3,0.8-0.3,1.1c-0.3,0.5-0.8,0.5-1.4,0.8c-0.5,0-0.8,0.3-1.4,0.3c-0.8,0.3-1.9,0.3-2.4,0.8c0,0.3-0.3,0.3-0.3,0.5
				c-0.3,0.5-0.5,0.8-1.1,1.4c0,0.3,0.3,0.3,0.3,0.5c0.3,0.8-0.8,1.4-1.6,1.4c-0.3,0-0.5-0.3-0.8,0c-0.3,0-1.1,0.5-1.1,0.8
				c0,0.3,0.5,0.3,0.5,0.5c0,0.3-0.3,0.5-0.5,0.5c-0.3,0.3-0.3,0.3-0.5,0.5c-0.3,0.3-0.3,0.5-0.5,0.5c-0.3,0.3-0.5,0.3-0.5,0.5
				c-0.3,0.3-0.3,0.5-0.5,0.5c-0.3,0.3-0.5,0.3-0.8,0.5c-0.8,0.5-2.4,0.5-2.7,0c-0.3-0.5,0.3-1.4,0.5-1.6c0,0,0.3,0,0.5,0
				c0.3-0.5,0-1.1,0-1.6c0-0.3-0.3-1.1-0.8-1.4c-0.3,0-0.3,0-0.5,0.3c-0.3,0.3-0.5,1.1-0.8,0.8c-0.3,0,0-0.8,0-1.1
				c0.3-0.3,0.5-0.5,0.5-0.8c0.3-0.5-0.3-0.8-0.3-1.1c0-0.3,0-0.5,0-0.8c0-0.3-0.3-0.5-0.3-0.8c0-0.3,0-0.5-0.3-0.5c0,0-0.3,0-0.5,0
				c-0.3,0-0.3-0.5-0.5-0.5c-0.3,0-0.5,0.3-0.8,0.3c-0.3,0-0.5-0.3-0.5-0.5c-0.3,0-0.5,0-0.8-0.3c-0.3-0.3-0.5-0.5-0.8-0.8
				c-0.3-0.3-0.5-0.8-0.8-0.8c-0.3,0-0.5,0-0.5,0.3c-0.3,0-0.5,0-0.8,0.3c0,0.3,0,0.5,0,0.8l0,0c-1.1-0.3-1.9-0.3-2.4-0.8
				c-0.3-0.3-0.5-0.5-0.8-0.8c-0.3-0.3,0-0.8-0.3-1.4c-0.3-0.3-0.3-0.3-0.8-0.3c-0.3,0-0.8-0.5-1.1-0.5c-0.3,0-0.5,0-0.5,0
				c-0.3,0-0.5-0.5-0.8-0.5c-0.3,0-0.8,0-1.1,0c-0.3,0-0.3-0.3-0.5-0.3c-0.5-0.3-1.4,0-2.2,0c-2.2,0-4.6,0-6.8,0c-1.4,0-2.4,0-3.8,0
				c-4.6,0.3-9.5-0.5-14.1-1.1c-2.2-0.3-4.6-0.5-6.8-0.8l-1.4-0.3c0,0,0,0,0-0.3c-0.8-0.3-1.4-0.3-2.2-0.5l0,0
				c0.3,0.5,0,1.1-0.5,1.1c-0.3,0-0.3-0.3-0.5-0.3c0.3,1.4,0,2.4,0,3.5c-0.3,1.1-0.3,1.9-0.5,2.7c0,0,0,0.3-0.3,0.3V48l-0.3,0.3
				c-0.3,0.5-0.3,0.8-0.5,1.4c-0.3,0.5-0.8,1.1-0.8,1.6c0,0.3-0.3,0.5,0,1.1c0.3,0.8,0.3,1.4,0,2.2c0,0.3-0.3,0.8-0.3,0.8
				c-0.3,0.5-0.8,0.8-0.8,1.1c0,1.4-0.3,2.7,0.3,3.8c0,0.3,0.3,0.5,0.5,0.8c0.3,0.5,0.3,1.4,0.5,2.2c0,0.5,0,0.8,0.3,1.1
				c0,0.3,0.3,0.8,0.3,1.1c0.3,1.1,0.8,1.9,1.4,2.7c0.5,1.1,1.9,1.9,2.7,2.7c0.5,0.5,0.8,0.8,1.1,1.6c0.3,0.5,0.5,1.4,1.4,1.4l0,0
				c0.3,0,0.5,0,0.8,0c0.3,0,0.3,0,0.5,0h0.3c0,0,0.3,0,0.3,0.3c0,0,0.3,0.3,0.5,0.3l0,0c1.1,0.8,2.4,1.6,3.5,2.2
				c1.1,0.5,2.2,1.4,3.3,1.6c0.5,0.3,1.4,0.3,1.9,0.3s1.1-0.5,1.6-0.8c0.5-0.3,1.4,0,1.9,0c0.3,0,0.5,0,0.8,0
				c0.5,0.3,1.1,0.8,1.4,1.4c0.5,0.5,1.1,1.1,1.4,1.6c0.3,0.5,0.3,1.6,0.8,1.9c0.3,0.3,0.8,0.5,1.4,0.8c0,0,0.3,0.3,0.5,0.3
				c0.3,0,0.5-0.3,0.8-0.5c0.3-0.3,0.3-0.8,0.5-0.8c0.3,0,0.8,0,1.1,0c0.3,0,0.8,0,1.1,0.3c0.5,0.3,0.8,0.8,1.1,1.4
				c0.3,0.8,0.3,1.1,0.8,1.6c0.3,0.3,0.3,0.5,0.5,0.5c0.3,0.3,0.5,0.5,0.5,0.5c0,0.3,0,0.8,0,1.1c0,0.3,0.3,0.8,0.5,1.1
				c0.5,0.5,1.4,0.8,2.2,1.1c0.3,0,0.8,0.3,1.1,0.3c0-0.5-0.3-1.1-0.3-1.6c0-0.3,0-0.3-0.3-0.5c0-0.3,0.3-0.8,0.3-1.1
				c0-0.3,0.3-0.5,0.3-0.8c0.3-0.5,0.5-1.1,1.1-1.4c0.5-0.3,1.4-0.5,2.2-0.8c0.3-0.3,0.5-0.5,0.8-0.8c0.3-0.3,0.5-0.5,0.8-0.5
				c0.5-0.3,1.4-0.3,2.4-0.5c0.8,0,1.9,0,2.4,0.5c0.3,0.3,0.3,0.5,0.3,0.5c0.5,0.3,1.4,0,1.9-0.3c0.3,0,0.5-0.3,0.5-0.3
				c0.3-0.3,0.3-0.5,0.3-0.5c0-0.3-0.3-0.3-0.3-0.5c0,0,0-0.3,0.3-0.3c0,0,0-0.3,0.3-0.3c0.3-0.3,0.8-0.3,1.1-0.3
				c1.1-0.3,1.9-0.3,3-0.3c0.5,0,1.1,0,1.6,0c0.5,0.3,0.5,0.8,1.1,0.8c0.5,0.3,0.8,0,1.1-0.3c0.3-0.3,0.3-0.5,0.5-0.5
				c0.3-0.3,0.8,0,1.1,0c0.3,0.3,0.5,0.5,1.1,1.1c0.3,0.3,0.8,0.5,0.8,1.1c0.3,0.5-0.3,1.1,0,1.6c0,0.5,0.3,0.5,0.5,1.1
				c0.3,0.3,0.3,0.3,0.3,0.5c0.3,0,0.3,0.3,0.5,0.3c0.3,0.3,0.3,1.1,0.8,1.4h0.5c0.5,0.3,0.5,1.1,1.1,1.4c0.5,0.3,0.8,0,1.1-0.3
				c0-0.3,0-0.5,0-1.1c0-0.8,0-1.4,0-1.9c0-0.3-0.3-0.5-0.3-0.8c-0.3-0.8-0.8-1.4-1.1-1.9c0-0.3-0.3-0.5-0.3-0.5
				c0-0.3,0-0.3-0.3-0.5c-0.3-0.5-0.5-0.8-0.8-1.4c-0.3-0.5-0.5-1.1-0.8-1.9c-0.3-0.8,0-1.6,0.3-2.4c0.5-1.9,2.2-3.5,3.5-4.9
				c0.5-0.5,0.8-1.4,1.6-1.6c0.3,0,0.3-0.3,0.5-0.3c0.3,0,0.3,0,0.5-0.3c0.3-0.3,0.3-0.5,0.3-0.8c0-0.3,0.3-0.5,0.3-0.8
				c0-0.3,0-0.5,0-0.8c-0.3-0.8-0.8-1.1-0.8-2.2c0-0.3,0.3-0.8,0.3-1.1c0-0.3,0.3-0.8,0-1.4l0,0c0-0.3-0.3-0.8-0.3-1.4l0.3-0.3
				l0.3-0.3c0.3-0.5,0.8-1.6,0.5-2.4c0-0.3-0.3-0.3-0.3-0.5c0-0.3,0-0.3,0-0.3c0-0.3,0-0.3,0.3-0.3c0.5-0.5,1.1-0.8,1.6-0.8
				c0.3,0,0.5,0,0.5-0.3c0.3-0.3,0.5-0.5,0.5-0.8c0.3-0.3,0.5-0.3,0.5-0.5c0.3-0.5-0.5-0.8-0.5-1.1c0-0.3-0.3-0.5-0.3-0.8
				c0-0.3,0.3-0.5,0.3-0.8c0-0.3,0.3-0.5,0.3-0.8c0.3-0.5,0.5-0.8,1.1-1.1c0.3-0.3,0.5-0.5,1.1-1.1c0.3-0.3,0.8-0.5,1.1-0.8
				C100.1,47.5,100.7,47.2,100.4,46.7z"/>
		</g>
	</g>
</g>
</svg>
