<?xml version="1.0" encoding="utf-8"?>
<!-- Generator: Adobe Illustrator 18.1.1, SVG Export Plug-In . SVG Version: 6.00 Build 0)  -->
<svg version="1.1" id="Layer_1" xmlns="http://www.w3.org/2000/svg" xmlns:xlink="http://www.w3.org/1999/xlink" x="0px" y="0px"
	 viewBox="0 0 122.4 122.4" enable-background="new 0 0 122.4 122.4" xml:space="preserve">
<g>
	<circle fill="#4E8ABE" cx="61.2" cy="61.2" r="61.2"/>
	<g>
		<polygon fill="#FFFFFF" points="26.6,65.5 26.6,95.2 27.2,95.2 27.2,65.9 		"/>
		<polygon fill="#FFFFFF" points="31.1,68 30.5,67.7 30.5,95.2 31.1,95.2 		"/>
		<polygon fill="#FFFFFF" points="28.1,66.4 27.6,66.1 27.6,95.2 28.1,95.2 		"/>
		<polygon fill="#FFFFFF" points="30.1,67.5 29.5,67.2 29.5,95.2 30.1,95.2 		"/>
		<polygon fill="#FFFFFF" points="29.1,66.9 28.5,66.6 28.5,95.2 29.1,95.2 		"/>
		<rect x="26.4" y="63.9" fill="#FFFFFF" width="5.6" height="1.1"/>
		<path fill="#FFFFFF" d="M60.9,57.1L60.9,57.1h-0.1c-10.4,0-19.5,10.6-20.9,21c5.8-2.8,13.3-4.4,21.5-4.4c7.7,0,14.7,1.5,20.4,4
			C80.2,67.3,71.1,57.1,60.9,57.1z"/>
		<path fill="#FFFFFF" d="M61.2,37.2L29.5,54.3v5.2c1.4,0.2,2.5,1.3,2.5,2.8h-5.5c0-1.5,1.2-2.7,2.6-2.8v-4.9l-9.4,5.1v2.1l6.5,3.6
			v29.9h0.4V65.5l0.6,0.3v29.3h0.4V66.1l0.6,0.3v28.8h0.4V66.6l0.6,0.3v28.2h0.4v-28l0.6,0.3v27.7h0.4V67.7l0.6,0.3v27.1h0.4V68.2
			l8.2,4.6c2.2-10.1,11.1-19.7,21.1-19.7h0h0.1c10.1,0,19.2,9.9,21.2,20.1l20.5-11.5v-2.1L61.2,37.2z M32,64.9h-5.6v-1.1H32V64.9z"
			/>
	</g>
</g>
</svg>
