<?xml version="1.0" encoding="utf-8"?>
<!-- Generator: Adobe Illustrator 18.1.1, SVG Export Plug-In . SVG Version: 6.00 Build 0)  -->
<svg version="1.1" id="Layer_1" xmlns="http://www.w3.org/2000/svg" xmlns:xlink="http://www.w3.org/1999/xlink" x="0px" y="0px"
	 viewBox="0 0 122.4 122.4" enable-background="new 0 0 122.4 122.4" xml:space="preserve">
<g>
	<circle fill="#4E8ABE" cx="61.2" cy="61.2" r="61.2"/>
	<g id="Icons_7_">
		<g id="Layer_4_2_">
			<g>
				<g>
					<g>
						<path fill="#FFFFFF" d="M82.9,34.6c0-0.7-0.2-0.9-0.9-1.2c-6.1-1.6-12.2-3.5-18.5-5.1c-2.6-0.7-4.9-1.4-7.7-2.1
							c0,23.4,0,46.7,0,70.1c0.2,0,0.5,0,0.7-0.2c8.4-2.3,16.8-4.7,25.2-7.2c0.7-0.2,0.9-0.5,0.7-1.2C82.9,70.1,82.9,52.3,82.9,34.6
							z M66.8,63.3c-0.7,1.2-1.6,1.4-2.8,1.2c-1.2,0-1.9-0.7-2.1-1.6c-0.2-0.7-0.5-1.2-1.4-1.2c0-0.7,0-1.4,0-2.1c0.2,0,0.7,0,0.9,0
							c0.2-0.5,0.5-0.9,0.7-1.4c0.7-1.6,4-1.6,4.7,0C67.7,59.8,67.7,61.4,66.8,63.3z"/>
					</g>
				</g>
				<g>
					<g>
						<path fill="#FFFFFF" d="M53.7,35.7c0-1.6,0-3.3,0-5.1c-3.3,0-6.3,0-9.6,0c0,0.5,0,0.7,0,0.9v58.7c0,0.2,0,0.5,0,0.9
							c3.3,0,6.3,0,9.6,0c0-1.6,0-3.5,0-5.1c-1.4,0-2.8,0-4.4,0c0-8.9,0-45.3,0-50.2C50.9,35.7,52.3,35.7,53.7,35.7z"/>
					</g>
				</g>
			</g>
		</g>
	</g>
</g>
</svg>
