<?xml version="1.0" encoding="utf-8"?>
<!-- Generator: Adobe Illustrator 18.1.1, SVG Export Plug-In . SVG Version: 6.00 Build 0)  -->
<svg version="1.1" id="Layer_1" xmlns="http://www.w3.org/2000/svg" xmlns:xlink="http://www.w3.org/1999/xlink" x="0px" y="0px"
	 viewBox="0 0 122.4 122.4" enable-background="new 0 0 122.4 122.4" xml:space="preserve">
<g>
	<circle fill="#4E8ABE" cx="61.2" cy="61.2" r="61.2"/>
	<g id="Icons_6_">
		<g>
			<g>
				<g>
					<path fill="#FFFFFF" d="M52.4,60c-5.1-5.9-10.2-11.7-15.3-17.6c2.9-2.5,5.8-5.1,8.8-7.6c4.8,5.5,9.6,11,14.4,16.5
						c0.3-0.3,0.5-0.5,0.7-0.8c4.4-4.9,8.8-9.7,13.3-14.6c1.2-1.3,2.2-1.3,3.5-0.1c2.3,2.1,4.5,4.1,6.8,6.2c1.2,1.1,1.2,2.2,0.1,3.4
						c-5,5.4-9.9,10.9-14.8,16.3c-0.1,0.1-0.1,0.2-0.3,0.3c5.2,6,10.4,12,15.6,18c-2.9,2.5-5.8,5.1-8.8,7.6
						c-4.9-5.7-9.8-11.3-14.8-17c-2.2,2.4-4.3,4.7-6.5,7.1c-1.8,1.9-3.5,3.9-5.3,5.8c-0.2,0.2-0.4,0.3-0.6,0.4
						c-4.1,1.2-8.1,2.3-12.2,3.5c0,0-0.1,0-0.3,0c0.1-0.8,0.3-1.6,0.4-2.4c0.5-3,1-6.1,1.5-9.1c0.2-1,0.6-1.8,1.3-2.6
						C44.2,68.9,48.3,64.5,52.4,60z M42.1,74.5c2.4,2.2,4.7,4.3,7.1,6.5c7.8-8.6,15.6-17.1,23.4-25.7c-2.4-2.2-4.7-4.3-7.1-6.5
						C57.7,57.4,49.9,65.9,42.1,74.5z M70.8,77.8c0.6-0.5,1.2-1,1.8-1.5c0.2,0.2,0.4,0.4,0.5,0.6c-0.6,0.5-1.1,1-1.7,1.5
						c0.2,0.2,0.3,0.4,0.5,0.6c0.4-0.3,0.7-0.5,1-0.8c0.2,0.2,0.3,0.4,0.5,0.6c-0.3,0.3-0.6,0.6-0.9,0.9c0.2,0.2,0.3,0.4,0.5,0.6
						c0.4-0.3,0.7-0.5,1-0.8c0.2,0.2,0.3,0.4,0.5,0.6c-0.3,0.3-0.6,0.6-1,0.9c0.2,0.2,0.4,0.4,0.5,0.5c0.4-0.3,0.7-0.6,1-0.9
						c0.2,0.2,0.4,0.4,0.5,0.6c-0.4,0.3-0.6,0.6-1,0.9c0.2,0.2,0.3,0.4,0.5,0.6c0.4-0.3,0.7-0.5,1-0.9c0.2,0.2,0.3,0.4,0.5,0.6
						c-0.4,0.3-0.6,0.6-1,0.9c0.2,0.2,0.3,0.4,0.5,0.6c0.4-0.3,0.7-0.6,1-0.9c0.2,0.2,0.4,0.5,0.6,0.7c1.5-1.3,3-2.6,4.5-3.9
						C77.4,74.4,72.7,69,68,63.6c-1.6,1.8-3.2,3.5-4.7,5.2c-0.1,0.1,0,0.3,0,0.5c0,0,0.1,0,0.1,0c0.3-0.3,0.6-0.5,0.9-0.8
						c0.2,0.2,0.3,0.4,0.5,0.6c-0.3,0.3-0.6,0.6-0.9,0.9c0.2,0.2,0.3,0.4,0.5,0.6c0.9-0.8,1.9-1.6,2.8-2.4c0.2,0.2,0.3,0.4,0.5,0.6
						c-0.9,0.8-1.8,1.6-2.7,2.4c0.2,0.2,0.4,0.4,0.5,0.6c0.4-0.3,0.7-0.5,1-0.8c0.2,0.2,0.3,0.4,0.5,0.6c-0.3,0.3-0.6,0.6-0.9,0.9
						c0.2,0.2,0.3,0.4,0.5,0.6c0.3-0.3,0.6-0.5,1-0.8c0.2,0.2,0.3,0.4,0.5,0.6c-0.3,0.3-0.6,0.6-0.9,0.9c0.2,0.2,0.4,0.4,0.5,0.5
						c0.3-0.3,0.6-0.5,1-0.8c0.2,0.2,0.4,0.4,0.5,0.6c-0.3,0.3-0.6,0.6-1,0.9c0.2,0.2,0.3,0.4,0.5,0.6c0.3-0.3,0.6-0.5,1-0.8
						c0.2,0.2,0.3,0.4,0.5,0.6c-0.3,0.3-0.6,0.6-0.9,0.9c0.2,0.2,0.3,0.4,0.5,0.6c0.3-0.3,0.6-0.5,1-0.8c0.2,0.2,0.4,0.4,0.5,0.6
						c-0.3,0.3-0.6,0.6-1,0.9C70.5,77.4,70.6,77.6,70.8,77.8z M53.5,57.8c0.2,0.2,0.3,0.3,0.4,0.5c1.6-1.8,3.3-3.6,4.9-5.4
						c-4.4-5.1-8.8-10.1-13.1-15.1c-1.7,1.5-3.3,2.9-4.9,4.3c0,0,0,0,0.1,0.1c0.1-0.1,0.3-0.2,0.5-0.4c0.2,0.2,0.3,0.4,0.5,0.6
						c-0.3,0.3-0.6,0.6-1,0.9c0.2,0.2,0.3,0.4,0.5,0.6c0.4-0.3,0.7-0.6,1-0.9c0.2,0.2,0.3,0.4,0.5,0.6c-0.4,0.3-0.6,0.6-1,0.9
						c0.2,0.2,0.3,0.4,0.5,0.6c0.4-0.3,0.7-0.6,1-0.9c0.2,0.2,0.3,0.4,0.5,0.6c-0.3,0.3-0.6,0.6-1,0.9c0.2,0.2,0.4,0.4,0.5,0.5
						c0.4-0.3,0.6-0.6,1-0.9c0.2,0.2,0.4,0.4,0.5,0.6c-0.4,0.3-0.7,0.6-1,0.9c0.2,0.2,0.3,0.4,0.5,0.6c0.4-0.3,0.6-0.5,1-0.8
						c0.2,0.2,0.3,0.4,0.5,0.6c-0.3,0.3-0.6,0.6-1,0.9c0.2,0.2,0.3,0.4,0.5,0.6c0.6-0.5,1.2-1,1.8-1.5c0.2,0.2,0.4,0.4,0.5,0.6
						c-0.6,0.5-1.1,1-1.7,1.5c0.2,0.2,0.3,0.4,0.5,0.6c0.4-0.3,0.6-0.5,1-0.8c0.2,0.2,0.4,0.4,0.5,0.6c-0.3,0.3-0.6,0.6-0.9,0.9
						c0.2,0.2,0.3,0.4,0.5,0.6c0.4-0.3,0.7-0.5,1-0.8c0.2,0.2,0.3,0.4,0.5,0.6c-0.3,0.3-0.6,0.6-0.9,0.9c0.2,0.2,0.3,0.4,0.5,0.5
						c0.4-0.3,0.6-0.5,1-0.8c0.2,0.2,0.3,0.4,0.5,0.6c-0.3,0.3-0.6,0.6-0.9,0.9c0.2,0.2,0.3,0.4,0.5,0.6c0.3-0.3,0.6-0.5,1-0.8
						c0.2,0.2,0.3,0.4,0.5,0.6c-0.3,0.3-0.6,0.6-0.9,0.9c0.2,0.2,0.3,0.4,0.5,0.6c0.3-0.3,0.6-0.5,1-0.8c0.2,0.2,0.3,0.4,0.5,0.6
						c-0.3,0.3-0.6,0.6-0.9,0.9c0.2,0.2,0.4,0.4,0.5,0.6c0.9-0.8,1.8-1.6,2.8-2.4c0.2,0.2,0.3,0.4,0.5,0.6c-0.9,0.8-1.8,1.6-2.7,2.3
						c0.2,0.2,0.3,0.4,0.4,0.6c0.4-0.3,0.7-0.6,1-0.8c0.2,0.2,0.4,0.4,0.5,0.6C54.1,57.3,53.8,57.5,53.5,57.8z M81,46
						c0.7-0.8,1.4-1.5,2.1-2.3c-2.4-2.2-4.7-4.3-7.1-6.5c-0.7,0.8-1.4,1.6-2.1,2.3C76.3,41.7,78.6,43.9,81,46z M47.3,82.3
						c-2.1-1.9-4.2-3.8-6.3-5.8c-0.2,1.3-0.4,2.4-0.6,3.5c-0.4,1.9-0.4,1.9,1.1,3.2c0.5,0.5,0.9,0.5,1.5,0.3
						C44.3,83.1,45.8,82.7,47.3,82.3z M77.2,50.2c-2.4-2.2-4.7-4.3-7.1-6.4c-0.3,0.3-0.5,0.6-0.8,0.9c2.4,2.2,4.7,4.3,7.1,6.4
						C76.7,50.8,76.9,50.5,77.2,50.2z M74.9,52.7c-2.4-2.2-4.7-4.3-7.1-6.4c-0.3,0.3-0.5,0.6-0.8,0.9c2.4,2.2,4.7,4.3,7.1,6.4
						C74.4,53.3,74.6,53,74.9,52.7z M78.7,48.6c0.3-0.3,0.5-0.5,0.8-0.8c-2.4-2.2-4.7-4.3-7.1-6.4c-0.3,0.3-0.5,0.5-0.8,0.8
						C74,44.3,76.3,46.4,78.7,48.6z"/>
				</g>
			</g>
		</g>
	</g>
</g>
</svg>
