<?xml version="1.0" encoding="utf-8"?>
<!-- Generator: Adobe Illustrator 18.1.1, SVG Export Plug-In . SVG Version: 6.00 Build 0)  -->
<svg version="1.1" id="Layer_1" xmlns="http://www.w3.org/2000/svg" xmlns:xlink="http://www.w3.org/1999/xlink" x="0px" y="0px"
	 viewBox="0 0 145.2 196" enable-background="new 0 0 145.2 196" xml:space="preserve">
<g>
	<g>
		<path fill="#FFCE06" d="M80.2,65.7l-3.8,2.5c30,2.2,53.8,27.3,53.8,57.8c0,13.1-4.4,25.2-11.7,34.9l0.4,6.4l4-0.3
			c9.1-11.2,14.5-25.5,14.5-41.1c0-34.4-26.6-62.6-60.4-65L80.2,65.7z"/>
		<path fill="#FFCE06" d="M115.4,171.2L115,165c-10.6,11.6-25.9,19-42.9,19c-15.6,0-29.8-6.2-40.2-16.3l-5.7-1.3l-1.1,4.8
			c11.9,12.3,28.5,20,47,20c18.6,0,35.4-7.8,47.3-20.3L115.4,171.2z"/>
		<path fill="#FFCE06" d="M23.4,162.1l4.1,0.9c-8.3-10-13.4-22.9-13.4-37c0-31.3,24.9-56.8,55.8-57.9l5.1-3.4l-2.6-3.9
			c-0.1,0-0.2,0-0.3,0C36.2,60.8,6.9,90,6.9,126c0,15.9,5.7,30.5,15.2,41.9L23.4,162.1z"/>
	</g>
	<defs>
		<filter id="Adobe_OpacityMaskFilter" filterUnits="userSpaceOnUse" x="5.3" y="59.1" width="133.7" height="133.7">
			<feColorMatrix  type="matrix" values="1 0 0 0 0  0 1 0 0 0  0 0 1 0 0  0 0 0 1 0"/>
		</filter>
	</defs>
	<mask maskUnits="userSpaceOnUse" x="5.3" y="59.1" width="133.7" height="133.7" id="SVGID_1_">
		<g filter="url(#Adobe_OpacityMaskFilter)">
			<polygon fill="#FFFFFF" points="148.2,203.7 -8.4,203.7 -8.4,40.6 22.6,40.2 49,82.8 66.8,73.8 64.2,57.9 38.6,40.6 148.2,40.6 
							"/>
		</g>
	</mask>
	<g mask="url(#SVGID_1_)">
		<g>
			<path fill="#00549E" d="M72.2,192.9c-36.9,0-66.9-30-66.9-66.9s30-66.9,66.9-66.9S139,89.1,139,126S109.1,192.9,72.2,192.9z
				 M72.2,59.6C35.6,59.6,5.8,89.4,5.8,126s29.8,66.4,66.4,66.4s66.4-29.8,66.4-66.4S108.8,59.6,72.2,59.6z"/>
		</g>
		<g>
			<path fill="#00549E" d="M72.2,182.2C41.2,182.2,16,157,16,126s25.2-56.2,56.2-56.2S128.3,95,128.3,126S103.2,182.2,72.2,182.2z
				 M72.2,70.3c-30.7,0-55.6,25-55.6,55.6s25,55.6,55.6,55.6s55.6-25,55.6-55.6S102.9,70.3,72.2,70.3z"/>
		</g>
	</g>
	<path fill="#00549E" d="M118.3,131.6c-2.6,20.2-18.4,37.1-39.6,40.1c-2.2,0.3-4.4,0.5-6.7,0.5c-11.1,0-21.9-4-30.3-11.3
		c-6.6-5.7-11.4-13.1-14-21.3l-8.9,2.8c7.3,23.2,28.9,39.1,53.2,39.1c2.6,0,5.3-0.2,8-0.6c25.4-3.6,44.4-23.9,47.5-48.2L118.3,131.6
		z"/>
	<path fill="#008752" d="M109.1,130.4c-0.8,6.3-3.2,12.3-7.1,17.6c-6,8-14.7,13.1-24.5,14.5c-1.8,0.3-3.6,0.4-5.3,0.4
		c-15.4,0-28.9-9.6-34.5-23.4l-8.7,3.5c7,17.5,24.1,29.3,43.2,29.3c2.2,0,4.4-0.2,6.7-0.5c21.2-3,37-19.9,39.6-40.2L109.1,130.4z"/>
	<path fill="#F78E1E" d="M99.9,129.2c-0.6,4.7-2.4,9.3-5.4,13.2c-4.5,6-11,9.8-18.4,10.9c-1.3,0.2-2.7,0.3-4,0.3
		c-10.6,0-20.1-6.1-24.8-15.2l-8.3,4.3c6.3,12.3,19,20.3,33.2,20.3c1.8,0,3.5-0.1,5.3-0.4c17-2.4,29.6-15.9,31.7-32.1L99.9,129.2z"
		/>
	<g>
		<path fill="#FFFFFF" d="M26.5,142l1,2.5l-0.7,0.3l-0.3-0.9l-4.5,1.7l-0.3-0.8l4.5-1.7l-0.3-0.9L26.5,142z"/>
		<path fill="#FFFFFF" d="M27.6,144.9l0.4,0.8l-5.1,2.3l-0.4-0.8L27.6,144.9z"/>
		<path fill="#FFFFFF" d="M26.5,148l0.5,1.1l-0.7,0.4l-0.5-1.1l-1.5,0.7l0.7,1.4l-0.7,0.4l-1.1-2.2l5-2.5l1.1,2.2l-0.7,0.4l-0.7-1.4
			L26.5,148z"/>
		<path fill="#FFFFFF" d="M25.5,153.1c0.1-0.1,0.2-0.2,0.6-0.4l0.8-0.4c0.5-0.3,0.5-0.5,0.3-0.9l-0.2-0.3l-2,1.1l-0.4-0.8l4.9-2.8
			l0.7,1.2c0.5,0.8,0.3,1.3-0.5,1.8l-0.4,0.2c-0.5,0.3-0.9,0.3-1.3,0.1c0.1,0.5-0.2,0.8-0.7,1.1l-0.7,0.4c-0.2,0.1-0.4,0.2-0.5,0.4
			L25.5,153.1z M29.2,149.9l-1.5,0.9l0.2,0.3c0.2,0.3,0.4,0.4,0.8,0.2l0.5-0.3c0.3-0.2,0.4-0.4,0.3-0.7L29.2,149.9z"/>
		<path fill="#FFFFFF" d="M31.4,153.2c0.4,0.6,0.7,0.5,1.1,0.4l0.3,0.5l-4.6,3.2l-0.5-0.7l3.5-2.4l-0.4-0.6L31.4,153.2z"/>
		<path fill="#FFFFFF" d="M30.2,158.4l-0.7,0.5l-0.5-0.7l0.7-0.5L30.2,158.4z M32.6,156.6l-0.7,0.5l-0.5-0.7l0.7-0.5L32.6,156.6z"/>
		<path fill="#FFFFFF" d="M35.9,157.8c0.6,0.6,0.5,1.3-0.2,1.9l-0.1,0.1l-0.5-0.6l0.2-0.2c0.3-0.3,0.3-0.5,0.1-0.7
			c-0.2-0.2-0.4-0.2-0.7,0c-0.9,0.8,0.1,2.2-1.1,3.3c-0.7,0.6-1.3,0.6-1.9-0.1c-0.6-0.6-0.5-1.3,0.2-1.9l0.3-0.2l0.6,0.6l-0.3,0.3
			c-0.3,0.3-0.3,0.5-0.1,0.7c0.2,0.2,0.4,0.2,0.7,0c0.9-0.8-0.1-2.2,1.1-3.3C34.6,157.1,35.3,157.1,35.9,157.8z"/>
		<path fill="#FFFFFF" d="M36.2,163.3l-0.5,0.5c-0.6,0.6-1.3,0.7-1.9,0.1c-0.6-0.6-0.6-1.3,0.1-1.9l2.1-2.1c0.6-0.6,1.3-0.7,1.9-0.1
			c0.6,0.6,0.6,1.3-0.1,1.9l-0.4,0.4l-0.6-0.6l0.4-0.4c0.3-0.3,0.3-0.5,0.1-0.7c-0.2-0.2-0.4-0.2-0.7,0.1l-2.1,2.1
			c-0.3,0.3-0.3,0.5-0.1,0.7c0.2,0.2,0.4,0.2,0.7-0.1l0.6-0.6L36.2,163.3z"/>
		<path fill="#FFFFFF" d="M36,165.9l-0.7-0.6l3.7-4.2l0.7,0.6l-1.6,1.8l0.8,0.7l1.6-1.8l0.7,0.6l-3.7,4.2l-0.7-0.6l1.6-1.8l-0.8-0.7
			L36,165.9z"/>
		<path fill="#FFFFFF" d="M40.6,164.3c0.5-0.7,1.2-0.8,1.9-0.3c0.7,0.5,0.7,1.2,0.2,1.9l-1.8,2.3c-0.5,0.7-1.2,0.8-1.9,0.3
			c-0.7-0.5-0.7-1.2-0.2-1.9L40.6,164.3z M39.5,167.2c-0.2,0.3-0.2,0.5,0,0.7c0.2,0.2,0.5,0.2,0.7-0.2l1.8-2.4
			c0.2-0.3,0.2-0.5,0-0.7c-0.2-0.2-0.5-0.2-0.7,0.2L39.5,167.2z"/>
		<path fill="#FFFFFF" d="M43.1,166.2c0.5-0.7,1.2-0.9,1.9-0.4s0.8,1.2,0.3,1.9l-1.6,2.4c-0.5,0.7-1.2,0.9-1.9,0.4
			c-0.7-0.5-0.8-1.2-0.3-1.9L43.1,166.2z M42.2,169.1c-0.2,0.3-0.2,0.6,0.1,0.7c0.2,0.2,0.5,0.1,0.7-0.2l1.7-2.5
			c0.2-0.3,0.2-0.6-0.1-0.7c-0.2-0.2-0.5-0.1-0.7,0.2L42.2,169.1z"/>
		<path fill="#FFFFFF" d="M46.5,166.8l0.8,0.4l-2.4,4.1l1.2,0.7l-0.4,0.7l-2-1.2L46.5,166.8z"/>
		<path fill="#FFFFFF" d="M47.3,170.1l1.4,0.8l-0.4,0.7l-1.4-0.8L47.3,170.1z"/>
		<path fill="#FFFFFF" d="M50.9,172.1l-1.5,2.6l-1.1-0.5l1.8-5.4l0.8,0.4l-1.4,4.2l2.2-3.8l0.8,0.4l-1.5,4.2l2.3-3.9l0.7,0.3
			l-2.9,4.8L50,175L50.9,172.1z"/>
		<path fill="#FFFFFF" d="M54.2,170.7l0.8,0.3l-2,5.2l-0.8-0.3L54.2,170.7z"/>
		<path fill="#FFFFFF" d="M55.6,171.2l1.3,0.4c0.8,0.3,1.1,0.9,0.8,1.7l-0.9,2.7c-0.3,0.9-0.8,1.2-1.7,0.9l-1.3-0.4L55.6,171.2z
			 M56.1,172.3l-1.3,3.8l0.5,0.2c0.3,0.1,0.5,0,0.6-0.4l0.9-2.8c0.1-0.4,0-0.6-0.3-0.7L56.1,172.3z"/>
		<path fill="#FFFFFF" d="M58.8,174.7l1.2,0.3l-0.2,0.8l-1.2-0.3l-0.4,1.6l1.5,0.4l-0.2,0.8l-2.3-0.6l1.5-5.4l2.3,0.6l-0.2,0.8
			l-1.5-0.4L58.8,174.7z"/>
		<path fill="#FFFFFF" d="M63.6,173.3c0.8,0.2,1.2,0.7,1,1.6l0,0.2l-0.8-0.1l0-0.2c0.1-0.4-0.1-0.6-0.3-0.6c-0.3,0-0.5,0.1-0.5,0.5
			c-0.2,1.1,1.5,1.7,1.2,3.2c-0.2,0.9-0.7,1.3-1.5,1.2c-0.8-0.2-1.2-0.7-1-1.6l0.1-0.3l0.8,0.1l-0.1,0.4c-0.1,0.4,0.1,0.6,0.4,0.6
			c0.3,0,0.5-0.1,0.5-0.5c0.2-1.1-1.5-1.6-1.2-3.2C62.2,173.6,62.8,173.2,63.6,173.3z"/>
		<path fill="#FFFFFF" d="M65.9,176.1l1.2,0.1L67,177l-1.2-0.1l-0.2,1.6l1.5,0.2l-0.1,0.8l-2.4-0.3l0.7-5.6l2.4,0.3l-0.1,0.8
			l-1.5-0.2L65.9,176.1z"/>
		<path fill="#FFFFFF" d="M69.6,179.7c0-0.1-0.1-0.2,0-0.7l0.1-0.9c0-0.5-0.1-0.7-0.5-0.7l-0.3,0l-0.1,2.3l-0.9,0l0.3-5.6l1.3,0.1
			c0.9,0.1,1.3,0.5,1.2,1.4l0,0.4c0,0.6-0.2,0.9-0.6,1.1c0.4,0.2,0.5,0.6,0.5,1.2l0,0.9c0,0.3,0,0.5,0.1,0.7L69.6,179.7z
			 M68.9,174.8l-0.1,1.7l0.3,0c0.3,0,0.5-0.1,0.6-0.6l0-0.6c0-0.4-0.1-0.6-0.4-0.6L68.9,174.8z"/>
		<path fill="#FFFFFF" d="M72.5,178.7l0.6-4.6l0.8,0l-0.8,5.6l-1.3,0l-0.9-5.6l0.9,0L72.5,178.7z"/>
		<path fill="#FFFFFF" d="M74.2,174.1l0.9,0l0.3,5.6l-0.9,0L74.2,174.1z"/>
		<path fill="#FFFFFF" d="M78.6,177.3l0.1,0.7c0.1,0.9-0.3,1.4-1.2,1.5c-0.9,0.1-1.4-0.4-1.4-1.3l-0.3-2.9c-0.1-0.9,0.3-1.4,1.2-1.5
			s1.4,0.4,1.4,1.3l0.1,0.5l-0.8,0.1l-0.1-0.6c0-0.4-0.2-0.5-0.5-0.5c-0.3,0-0.4,0.2-0.4,0.6l0.3,3c0,0.4,0.2,0.5,0.5,0.5
			c0.3,0,0.4-0.2,0.4-0.6l-0.1-0.8L78.6,177.3z"/>
		<path fill="#FFFFFF" d="M79.8,175.9l1.2-0.2l0.1,0.8l-1.2,0.2l0.3,1.6l1.5-0.2l0.1,0.8l-2.4,0.4l-0.9-5.5l2.4-0.4l0.1,0.8
			l-1.5,0.2L79.8,175.9z"/>
		<path fill="#FFFFFF" d="M82.6,172.9c0.8-0.2,1.4,0.2,1.6,1.1l0,0.2l-0.8,0.2l0-0.2c-0.1-0.4-0.3-0.5-0.5-0.4
			c-0.3,0.1-0.4,0.2-0.3,0.6c0.2,1.1,2,1,2.3,2.5c0.2,0.9-0.1,1.5-1,1.7c-0.8,0.2-1.4-0.2-1.6-1.1l-0.1-0.3l0.8-0.2l0.1,0.4
			c0.1,0.4,0.3,0.5,0.6,0.4c0.3-0.1,0.4-0.2,0.3-0.6c-0.2-1.1-2-1-2.3-2.5C81.4,173.7,81.7,173.1,82.6,172.9z"/>
	</g>
	<g>
		<path fill="#FFFFFF" d="M36.7,142l1.2,2.4l-0.7,0.4l-0.4-0.8l-4.3,2.2l-0.4-0.8l4.3-2.2l-0.4-0.8L36.7,142z"/>
		<path fill="#FFFFFF" d="M38.1,144.7l0.4,0.8l-4.9,2.8l-0.4-0.8L38.1,144.7z"/>
		<path fill="#FFFFFF" d="M37.3,148l0.7,1l-0.7,0.4l-0.7-1l-1.4,0.9l0.8,1.3l-0.7,0.4l-1.3-2l4.7-3l1.3,2l-0.7,0.4l-0.8-1.3
			L37.3,148z"/>
		<path fill="#FFFFFF" d="M36.9,153.1c0.1-0.1,0.1-0.2,0.5-0.5l0.7-0.5c0.4-0.3,0.5-0.6,0.2-0.9l-0.2-0.2l-1.8,1.4l-0.5-0.7l4.5-3.4
			l0.8,1.1c0.6,0.7,0.5,1.3-0.2,1.8l-0.4,0.3c-0.5,0.3-0.9,0.4-1.3,0.2c0.1,0.5-0.1,0.8-0.6,1.2l-0.7,0.5c-0.2,0.2-0.4,0.3-0.5,0.5
			L36.9,153.1z M40.2,149.5l-1.4,1l0.2,0.3c0.2,0.3,0.4,0.3,0.8,0.1l0.4-0.3c0.3-0.2,0.4-0.5,0.2-0.7L40.2,149.5z"/>
		<path fill="#FFFFFF" d="M43.3,153c-0.2-0.2-0.4-0.2-0.7,0l-0.4,0.4l-0.6-0.6l0.4-0.4c0.7-0.6,1.3-0.6,1.9,0
			c0.6,0.6,0.5,1.3-0.1,1.9c-1.3,1.2-3,0.4-3.6,1c0,0-0.1,0.1-0.1,0.1l1.1,1.2l-0.6,0.6l-1.7-1.8l0.5-0.5c1.2-1.1,2.6-0.1,3.8-1.2
			C43.5,153.5,43.4,153.2,43.3,153z"/>
		<path fill="#FFFFFF" d="M42.4,157.8l-0.6,0.6l-0.6-0.6l0.6-0.6L42.4,157.8z M44.5,155.6l-0.6,0.6l-0.6-0.6l0.6-0.6L44.5,155.6z"/>
		<path fill="#FFFFFF" d="M46.8,158.5l1,0.8l-1.1,1.4c-0.5,0.7-1.2,0.8-1.9,0.3c-0.7-0.5-0.7-1.2-0.2-1.9l1.8-2.3
			c0.5-0.7,1.2-0.8,1.9-0.3c0.7,0.5,0.7,1.2,0.2,1.9l-0.3,0.4l-0.7-0.5l0.4-0.5c0.2-0.3,0.2-0.5,0-0.7c-0.2-0.2-0.5-0.2-0.7,0.2
			l-1.9,2.4c-0.2,0.3-0.2,0.5,0,0.7c0.2,0.2,0.4,0.2,0.7-0.2l0.6-0.8l-0.3-0.2L46.8,158.5z"/>
		<path fill="#FFFFFF" d="M48.4,163.5c0-0.1,0.1-0.2,0.3-0.6l0.5-0.7c0.3-0.4,0.2-0.7-0.1-0.9l-0.3-0.2l-1.2,1.9l-0.7-0.5l3-4.7
			l1.1,0.7c0.8,0.5,0.9,1.1,0.4,1.8l-0.2,0.4c-0.3,0.5-0.7,0.7-1.1,0.6c0.3,0.4,0.2,0.8-0.2,1.3l-0.5,0.7c-0.1,0.2-0.2,0.4-0.3,0.6
			L48.4,163.5z M50.2,158.9l-0.9,1.4l0.3,0.2c0.3,0.2,0.5,0.2,0.8-0.2l0.3-0.5c0.2-0.3,0.2-0.6-0.1-0.7L50.2,158.9z"/>
		<path fill="#FFFFFF" d="M52.1,160.8c0.4-0.8,1.1-1,1.8-0.6c0.8,0.4,0.9,1.1,0.5,1.9l-1.4,2.6c-0.4,0.8-1.1,1-1.8,0.6
			c-0.8-0.4-0.9-1.1-0.5-1.9L52.1,160.8z M51.5,163.8c-0.2,0.4-0.1,0.6,0.1,0.7s0.5,0.1,0.7-0.3l1.4-2.7c0.2-0.4,0.1-0.6-0.1-0.7
			c-0.2-0.1-0.5-0.1-0.7,0.3L51.5,163.8z"/>
		<path fill="#FFFFFF" d="M56.6,161.5l-1.7,4c-0.2,0.4,0,0.6,0.2,0.7c0.3,0.1,0.5,0,0.6-0.3l1.7-4l0.8,0.3l-1.7,3.9
			c-0.3,0.8-1,1.1-1.8,0.8c-0.8-0.3-1-1-0.7-1.8l1.7-3.9L56.6,161.5z"/>
		<path fill="#FFFFFF" d="M61,164.6l-0.2,0.7c-0.3,0.9-0.8,1.2-1.7,0.9l-0.4-0.1l-0.7,2l-0.8-0.3l1.7-5.3l1.2,0.4
			C61.1,163.1,61.3,163.7,61,164.6z M59.6,163.5l-0.6,1.8l0.4,0.1c0.3,0.1,0.5,0,0.6-0.4l0.3-0.8c0.1-0.4,0-0.5-0.2-0.6L59.6,163.5z
			"/>
		<path fill="#FFFFFF" d="M61.5,165.8l1.6,0.4l-0.2,0.8l-1.6-0.4L61.5,165.8z"/>
		<path fill="#FFFFFF" d="M64,163.9l2.7,0.5l-0.1,0.8l-0.9-0.2l-0.8,4.7l-0.9-0.2l0.8-4.7l-0.9-0.2L64,163.9z"/>
		<path fill="#FFFFFF" d="M69.3,170.3l-0.9-0.1l-0.1-1l-1.1-0.1l-0.2,1l-0.8-0.1l1.4-5.5l1.3,0.1L69.3,170.3z M67.5,168.3l0.8,0.1
			l-0.1-2.9L67.5,168.3z"/>
		<path fill="#FFFFFF" d="M72.3,170.4c0-0.1-0.1-0.2-0.1-0.7l0-0.9c0-0.5-0.2-0.7-0.6-0.7l-0.3,0l0,2.3l-0.9,0l0-5.6l1.3,0
			c0.9,0,1.3,0.4,1.3,1.3l0,0.4c0,0.6-0.2,1-0.6,1.1c0.4,0.2,0.6,0.6,0.6,1.2l0,0.9c0,0.3,0,0.5,0.1,0.7L72.3,170.4z M71.4,165.5
			l0,1.7l0.3,0c0.3,0,0.5-0.1,0.5-0.6l0-0.6c0-0.4-0.1-0.6-0.4-0.6L71.4,165.5z"/>
		<path fill="#FFFFFF" d="M75.5,167.1l1.2-0.1l0.1,1.8c0.1,0.9-0.3,1.4-1.2,1.5s-1.3-0.4-1.4-1.3l-0.2-2.9c-0.1-0.9,0.3-1.4,1.2-1.5
			s1.3,0.4,1.4,1.3l0,0.5l-0.8,0.1l0-0.6c0-0.4-0.2-0.5-0.5-0.5c-0.3,0-0.4,0.2-0.4,0.6l0.2,3c0,0.4,0.2,0.5,0.5,0.5
			c0.3,0,0.4-0.2,0.4-0.6l-0.1-1l-0.4,0L75.5,167.1z"/>
		<path fill="#FFFFFF" d="M78.5,166.6l1.2-0.2l0.1,0.8l-1.2,0.2l0.3,1.6l1.5-0.2l0.1,0.8l-2.4,0.4l-0.9-5.5l2.4-0.4l0.1,0.8
			l-1.5,0.2L78.5,166.6z"/>
		<path fill="#FFFFFF" d="M80.2,163.9l2.6-0.6l0.2,0.8l-0.9,0.2l1.1,4.7l-0.9,0.2l-1.1-4.7l-0.9,0.2L80.2,163.9z"/>
		<path fill="#FFFFFF" d="M85,165.1l1.1-0.4l0.3,0.8l-1.1,0.4l0.5,1.6l1.4-0.5l0.3,0.8l-2.3,0.8l-1.8-5.3l2.3-0.8l0.3,0.8l-1.4,0.5
			L85,165.1z"/>
		<path fill="#FFFFFF" d="M86.5,162.1l1.3-0.6c0.8-0.3,1.4-0.1,1.8,0.8l1.1,2.6c0.4,0.8,0.2,1.4-0.7,1.8l-1.3,0.6L86.5,162.1z
			 M87.6,162.5l1.6,3.7l0.5-0.2c0.3-0.1,0.4-0.3,0.2-0.7l-1.2-2.7c-0.2-0.4-0.4-0.4-0.6-0.3L87.6,162.5z"/>
		<path fill="#FFFFFF" d="M94,159.8l0.4,0.6c0.5,0.8,0.3,1.4-0.4,1.9l-0.4,0.2l1.1,1.8l-0.8,0.4l-2.8-4.8l1.1-0.7
			C92.9,158.8,93.5,159,94,159.8z M92.2,160.2l1,1.6l0.4-0.2c0.2-0.1,0.3-0.3,0.1-0.7l-0.4-0.7c-0.2-0.3-0.4-0.4-0.6-0.2L92.2,160.2
			z"/>
		<path fill="#FFFFFF" d="M98.6,161.7c-0.1-0.1-0.2-0.1-0.5-0.5l-0.5-0.7c-0.3-0.4-0.6-0.5-0.9-0.2l-0.2,0.2l1.3,1.9l-0.7,0.5
			l-3.2-4.6l1.1-0.8c0.7-0.5,1.3-0.4,1.8,0.3l0.3,0.4c0.3,0.5,0.4,0.9,0.2,1.3c0.5-0.1,0.8,0.2,1.2,0.6l0.5,0.7
			c0.2,0.2,0.3,0.4,0.5,0.5L98.6,161.7z M95,158.4l1,1.4l0.3-0.2c0.3-0.2,0.3-0.4,0.1-0.8l-0.3-0.4c-0.2-0.3-0.4-0.4-0.7-0.2
			L95,158.4z"/>
		<path fill="#FFFFFF" d="M97.4,157.3c-0.6-0.7-0.6-1.4,0.1-1.9c0.7-0.6,1.3-0.5,1.9,0.2l1.9,2.2c0.6,0.7,0.6,1.4-0.1,1.9
			c-0.7,0.6-1.3,0.5-1.9-0.2L97.4,157.3z M100,158.9c0.3,0.3,0.5,0.3,0.7,0.1c0.2-0.2,0.2-0.4,0-0.7l-2-2.3
			c-0.3-0.3-0.5-0.3-0.7-0.1s-0.2,0.4,0,0.7L100,158.9z"/>
		<path fill="#FFFFFF" d="M101.9,154.7l0.9-0.9l1.3,1.2c0.6,0.6,0.7,1.3,0.1,1.9c-0.6,0.6-1.3,0.6-1.9,0l-2.1-2
			c-0.6-0.6-0.7-1.3-0.1-1.9c0.6-0.6,1.3-0.6,1.9,0l0.4,0.4l-0.6,0.6l-0.4-0.4c-0.3-0.3-0.5-0.3-0.7-0.1c-0.2,0.2-0.2,0.4,0.1,0.7
			l2.2,2.1c0.3,0.3,0.5,0.3,0.7,0.1c0.2-0.2,0.2-0.4-0.1-0.7l-0.7-0.7l-0.3,0.3L101.9,154.7z"/>
		<path fill="#FFFFFF" d="M107,153.7c-0.1-0.1-0.2-0.1-0.6-0.4l-0.7-0.6c-0.4-0.3-0.7-0.3-0.9,0l-0.2,0.2l1.8,1.4l-0.6,0.7l-4.3-3.6
			l0.8-1c0.6-0.7,1.2-0.7,1.8-0.2l0.3,0.3c0.4,0.4,0.6,0.7,0.5,1.2c0.4-0.2,0.8-0.1,1.3,0.3l0.7,0.5c0.2,0.2,0.4,0.3,0.6,0.4
			L107,153.7z M102.7,151.3l1.3,1.1l0.2-0.3c0.2-0.3,0.2-0.5-0.1-0.8l-0.4-0.4c-0.3-0.3-0.5-0.3-0.7,0L102.7,151.3z"/>
		<path fill="#FFFFFF" d="M109.9,149.7l-0.5,0.7l-0.9-0.4l-0.6,0.9l0.8,0.7l-0.5,0.7l-4.1-3.9l0.7-1.1L109.9,149.7z M107.3,150.3
			l0.5-0.7l-2.6-1.2L107.3,150.3z"/>
		<path fill="#FFFFFF" d="M110,146.2l-3.2-2.4l0.6-1.1l4.9,2.7l-0.4,0.7l-3.5-1.9l3.2,2.5l-0.4,0.7l-3.8-1.3l3.5,1.9l-0.4,0.7
			l-4.9-2.7l0.6-1.1L110,146.2z"/>
		<path fill="#FFFFFF" d="M108.1,140.9c0.3-0.8,1-1,1.8-0.6l0.2,0.1l-0.3,0.8l-0.2-0.1c-0.4-0.2-0.6-0.1-0.7,0.2
			c-0.1,0.3,0,0.5,0.3,0.6c1.1,0.5,1.9-1,3.4-0.4c0.8,0.3,1.1,1,0.8,1.8c-0.3,0.8-1,1-1.8,0.7l-0.3-0.1l0.3-0.8l0.4,0.2
			c0.4,0.2,0.6,0,0.7-0.2c0.1-0.3,0-0.5-0.3-0.6c-1.1-0.5-1.9,1-3.4,0.4C108.1,142.3,107.8,141.7,108.1,140.9z"/>
	</g>
	<g>
		<path fill="#FFFFFF" d="M46.5,141.2l1.5,2.3l-0.7,0.4l-0.5-0.8l-4,2.7l-0.5-0.7l4-2.7l-0.5-0.8L46.5,141.2z"/>
		<path fill="#FFFFFF" d="M48.1,143.7l0.5,0.7l-4.4,3.4l-0.5-0.7L48.1,143.7z"/>
		<path fill="#FFFFFF" d="M47.8,147l0.8,0.9l-0.6,0.5l-0.8-0.9l-1.2,1.1l1,1.1l-0.6,0.5l-1.6-1.8l4.2-3.7l1.6,1.8l-0.6,0.5l-1-1.1
			L47.8,147z"/>
		<path fill="#FFFFFF" d="M48.4,152.2c0.1-0.1,0.1-0.2,0.4-0.6l0.6-0.6c0.4-0.4,0.4-0.6,0.1-0.9l-0.2-0.2l-1.5,1.7l-0.6-0.6l3.8-4.1
			l1,0.9c0.7,0.6,0.7,1.2,0.1,1.8l-0.3,0.3c-0.4,0.4-0.8,0.6-1.2,0.4c0.2,0.4,0,0.8-0.4,1.3l-0.6,0.6c-0.2,0.2-0.3,0.4-0.4,0.6
			L48.4,152.2z M50.9,148l-1.2,1.3l0.3,0.2c0.2,0.2,0.5,0.3,0.8-0.1l0.4-0.4c0.3-0.3,0.3-0.5,0.1-0.7L50.9,148z"/>
		<path fill="#FFFFFF" d="M54.6,151.7c0.3-0.4,0.2-0.6,0-0.8c-0.2-0.2-0.5-0.1-0.7,0.2l-0.2,0.3l-0.7-0.5l0.2-0.2
			c0.5-0.7,1.2-0.9,1.9-0.4c0.7,0.5,0.8,1.2,0.3,1.9l-0.1,0.1c-0.3,0.5-0.7,0.7-1.2,0.6c0.3,0.4,0.2,0.9-0.2,1.3l-0.3,0.4
			c-0.5,0.7-1.2,0.9-1.9,0.4c-0.7-0.5-0.8-1.2-0.3-1.9l0.3-0.4l0.7,0.5l-0.3,0.4c-0.2,0.3-0.2,0.6,0.1,0.7c0.2,0.2,0.5,0.1,0.7-0.3
			l0.2-0.4c0.3-0.4,0.3-0.7-0.1-0.9l-0.2-0.2l0.5-0.7l0.3,0.2c0.3,0.2,0.5,0.2,0.8-0.2L54.6,151.7z"/>
		<path fill="#FFFFFF" d="M54.8,155.8l-0.4,0.7l-0.7-0.4l0.4-0.7L54.8,155.8z M56.3,153.1l-0.4,0.7l-0.7-0.4l0.4-0.7L56.3,153.1z"/>
		<path fill="#FFFFFF" d="M58.7,152.5l0.8,0.4l-2.4,5l-0.8-0.4L58.7,152.5z"/>
		<path fill="#FFFFFF" d="M60.1,154.8l-1.5,3.8l-0.7-0.3l2-5.2l1,0.4l-0.4,3.4l1.2-3.1l0.7,0.3l-2,5.2l-0.8-0.3L60.1,154.8z"/>
		<path fill="#FFFFFF" d="M62.9,154.2l1.3,0.4c0.8,0.2,1.1,0.8,0.9,1.7l-0.7,2.7c-0.2,0.9-0.8,1.2-1.6,1l-1.3-0.4L62.9,154.2z
			 M63.6,155.2l-1.1,3.9l0.5,0.1c0.3,0.1,0.5,0,0.6-0.4l0.8-2.8c0.1-0.4,0-0.6-0.3-0.6L63.6,155.2z"/>
		<path fill="#FFFFFF" d="M66,155l0.9,0.2l-1.1,5.5l-0.9-0.2L66,155z"/>
		<path fill="#FFFFFF" d="M68.1,160l1.2-4.5l0.8,0.1l-1.5,5.5l-1.3-0.2l-0.2-5.7l0.9,0.1L68.1,160z"/>
		<path fill="#FFFFFF" d="M70.3,155.6l0.9,0l-0.2,5.6l-0.9,0L70.3,155.6z"/>
		<path fill="#FFFFFF" d="M71.7,155.7l1.4,0c0.9,0,1.3,0.4,1.4,1.3l0.1,2.8c0,0.9-0.4,1.4-1.3,1.4l-1.4,0L71.7,155.7z M72.6,156.4
			l0.1,4l0.5,0c0.3,0,0.4-0.2,0.4-0.6l-0.1-2.9c0-0.4-0.2-0.5-0.5-0.5L72.6,156.4z"/>
		<path fill="#FFFFFF" d="M75.6,155.5l0.6,4.3c0.1,0.4,0.2,0.5,0.5,0.5c0.3,0,0.4-0.2,0.4-0.6l-0.6-4.3l0.8-0.1l0.6,4.2
			c0.1,0.9-0.3,1.5-1.1,1.6c-0.9,0.1-1.4-0.3-1.5-1.2l-0.6-4.2L75.6,155.5z"/>
		<path fill="#FFFFFF" d="M81.8,159.9l-0.9,0.2l-0.4-1l-1.1,0.2l0.1,1l-0.8,0.2l-0.4-5.7l1.3-0.3L81.8,159.9z M79.4,158.7l0.8-0.2
			l-1.1-2.7L79.4,158.7z"/>
		<path fill="#FFFFFF" d="M80.7,154.4l0.8-0.3l1.5,4.6l1.4-0.5l0.3,0.8l-2.2,0.7L80.7,154.4z"/>
		<path fill="#FFFFFF" d="M83.1,153.6l0.8-0.3l2.1,5.2l-0.8,0.3L83.1,153.6z"/>
		<path fill="#FFFFFF" d="M86.6,152l0.3,0.7l0.3,4.3l1.5-0.7l0.4,0.7l-2.3,1.1l-0.3-0.7l-0.3-4.3l-1.4,0.7l-0.4-0.7L86.6,152z"/>
		<path fill="#FFFFFF" d="M88.9,153.3l1-0.6l0.4,0.7l-1,0.6l0.9,1.4l1.3-0.8l0.4,0.7l-2,1.3l-2.9-4.8l2-1.3l0.4,0.7l-1.3,0.8
			L88.9,153.3z"/>
		<path fill="#FFFFFF" d="M89.2,150.3l1.1-0.8c0.7-0.5,1.3-0.4,1.9,0.3l1.7,2.3c0.5,0.7,0.5,1.4-0.2,1.9l-1.1,0.8L89.2,150.3z
			 M90.4,150.4l2.4,3.2l0.4-0.3c0.2-0.2,0.3-0.4,0-0.7l-1.8-2.3c-0.2-0.3-0.5-0.3-0.7-0.2L90.4,150.4z"/>
		<path fill="#FFFFFF" d="M93.3,146.8c0.6-0.6,1.3-0.6,1.9,0.1l0.1,0.1l-0.6,0.6l-0.2-0.2c-0.3-0.3-0.5-0.3-0.7-0.1
			s-0.2,0.4,0.1,0.7c0.8,0.8,2.2-0.3,3.3,0.9c0.6,0.6,0.7,1.3,0.1,1.9c-0.6,0.6-1.3,0.6-1.9-0.1l-0.2-0.2l0.6-0.6l0.3,0.3
			c0.3,0.3,0.5,0.3,0.7,0.1c0.2-0.2,0.2-0.4-0.1-0.7c-0.8-0.8-2.2,0.3-3.3-0.9C92.7,148.1,92.7,147.4,93.3,146.8z"/>
		<path fill="#FFFFFF" d="M95,145l3.3,2.7c0.3,0.3,0.5,0.2,0.7,0c0.2-0.2,0.2-0.4-0.1-0.7l-3.3-2.7l0.5-0.6l3.3,2.7
			c0.7,0.6,0.8,1.2,0.3,1.9c-0.5,0.7-1.2,0.7-1.9,0.1l-3.3-2.7L95,145z"/>
		<path fill="#FFFFFF" d="M98.9,142l0.6,0.4c0.7,0.5,0.9,1.1,0.4,1.9l-0.2,0.3l1.7,1.2l-0.5,0.7l-4.6-3.1l0.7-1.1
			C97.5,141.6,98.2,141.5,98.9,142z M97.5,143.1l1.6,1.1l0.2-0.3c0.2-0.2,0.1-0.4-0.2-0.7l-0.7-0.5c-0.3-0.2-0.5-0.2-0.7,0.1
			L97.5,143.1z"/>
		<path fill="#FFFFFF" d="M100.4,139.3l0.6,0.3c0.8,0.4,1,1,0.6,1.8l-0.2,0.4l1.8,1l-0.4,0.8l-4.9-2.7l0.6-1.1
			C99,139.1,99.6,138.9,100.4,139.3z M99,140.6l1.7,0.9l0.2-0.4c0.1-0.2,0.1-0.4-0.3-0.6l-0.7-0.4c-0.4-0.2-0.5-0.1-0.7,0.1
			L99,140.6z"/>
		<path fill="#FFFFFF" d="M100.5,139.1c-0.8-0.3-1.1-1-0.8-1.8c0.3-0.8,1-1,1.8-0.7l2.7,1.1c0.8,0.3,1.1,1,0.8,1.8
			c-0.3,0.8-1,1-1.8,0.7L100.5,139.1z M103.5,139.4c0.4,0.2,0.6,0.1,0.7-0.2c0.1-0.3,0-0.5-0.3-0.6l-2.8-1.2
			c-0.4-0.2-0.6-0.1-0.7,0.2c-0.1,0.3,0,0.5,0.3,0.6L103.5,139.4z"/>
		<path fill="#FFFFFF" d="M106.3,135.6c-0.2,0-0.2,0-0.7-0.1l-0.8-0.3c-0.5-0.2-0.7,0-0.9,0.3l-0.1,0.3l2.2,0.7l-0.3,0.8l-5.4-1.6
			l0.4-1.3c0.3-0.9,0.8-1.1,1.6-0.9l0.4,0.1c0.5,0.2,0.9,0.5,0.9,0.9c0.3-0.4,0.8-0.4,1.3-0.2l0.8,0.3c0.3,0.1,0.5,0.1,0.7,0.1
			L106.3,135.6z M101.4,135.1l1.6,0.5l0.1-0.3c0.1-0.3,0-0.5-0.4-0.7l-0.5-0.2c-0.4-0.1-0.6,0-0.7,0.3L101.4,135.1z"/>
		<path fill="#FFFFFF" d="M101.2,133.1l0.5-2.7l0.8,0.2l-0.2,0.9l4.7,1l-0.2,0.9l-4.7-1l-0.2,0.9L101.2,133.1z"/>
	</g>
	<g>
		<g>
			<circle fill="#FFFFFF" cx="133.6" cy="132.9" r="8.6"/>
		</g>
		<g id="Layer_1_9_">
			<g>
				<g>
					<path fill="#BDC8D7" d="M133.6,124.4c1.2,0,2.3,0.2,3.3,0.7c1,0.4,1.9,1,2.7,1.8c0.8,0.8,1.4,1.7,1.8,2.7
						c0.4,1,0.7,2.2,0.7,3.3s-0.2,2.3-0.7,3.3c-0.4,1-1,1.9-1.8,2.7c-0.8,0.8-1.7,1.4-2.7,1.8c-1,0.4-2.2,0.7-3.3,0.7
						s-2.3-0.2-3.3-0.7c-1-0.4-1.9-1-2.7-1.8c-0.8-0.8-1.4-1.7-1.8-2.7c-0.4-1-0.7-2.2-0.7-3.3s0.2-2.3,0.7-3.3c0.4-1,1-1.9,1.8-2.7
						c0.8-0.8,1.7-1.4,2.7-1.8C131.3,124.6,132.5,124.4,133.6,124.4 M133.6,123.6c-5.1,0-9.3,4.1-9.3,9.3c0,5.1,4.1,9.3,9.3,9.3
						s9.3-4.1,9.3-9.3C142.9,127.8,138.7,123.6,133.6,123.6L133.6,123.6z"/>
				</g>
			</g>
		</g>
		<g>
			<path fill="#00549E" d="M134.3,130.8c0-0.7-0.2-0.9-0.6-0.9s-0.6,0.2-0.6,0.8v0.5h-1.2v-0.4c0-1.2,0.6-2,1.8-2
				c1.2,0,1.8,0.7,1.8,2v0.2c0,0.8-0.3,1.4-0.9,1.6c0.6,0.3,0.9,0.8,0.9,1.6v0.6c0,1.2-0.6,2-1.8,2c-1.2,0-1.8-0.7-1.8-2v-0.6h1.2
				v0.7c0,0.6,0.2,0.8,0.6,0.8s0.6-0.2,0.6-0.9v-0.6c0-0.7-0.2-1-0.8-1H133V132h0.5c0.5,0,0.7-0.2,0.7-0.8V130.8z"/>
		</g>
	</g>
	<g>
		<g>
			<circle fill="#FFFFFF" cx="127.4" cy="98.3" r="8.6"/>
		</g>
		<g>
			<g id="Layer_1_6_">
				<g>
					<g>
						<path fill="#BDC8D7" d="M127.4,89.8c1.2,0,2.3,0.2,3.3,0.7c1,0.4,1.9,1,2.7,1.8c0.8,0.8,1.4,1.7,1.8,2.7
							c0.4,1,0.7,2.2,0.7,3.3c0,1.2-0.2,2.3-0.7,3.3c-0.4,1-1,1.9-1.8,2.7c-0.8,0.8-1.7,1.4-2.7,1.8c-1,0.4-2.2,0.7-3.3,0.7
							c-1.2,0-2.3-0.2-3.3-0.7c-1-0.4-1.9-1-2.7-1.8c-0.8-0.8-1.4-1.7-1.8-2.7c-0.4-1-0.7-2.2-0.7-3.3c0-1.2,0.2-2.3,0.7-3.3
							c0.4-1,1-1.9,1.8-2.7c0.8-0.8,1.7-1.4,2.7-1.8C125.1,90,126.2,89.8,127.4,89.8 M127.4,89c-5.1,0-9.3,4.1-9.3,9.3
							c0,5.1,4.1,9.3,9.3,9.3s9.3-4.1,9.3-9.3C136.6,93.2,132.5,89,127.4,89L127.4,89z"/>
					</g>
				</g>
			</g>
		</g>
		<g>
			<path fill="#00549E" d="M127.4,95.2c-0.4,0-0.6,0.2-0.6,0.8v0.8h-1.2v-0.8c0-1.2,0.6-2,1.8-2c1.2,0,1.8,0.7,1.8,2
				c0,2.4-2.4,3.4-2.4,4.6c0,0.1,0,0.1,0,0.2h2.3v1.1h-3.5v-1c0-2.3,2.4-2.7,2.4-4.9C128.1,95.4,127.8,95.2,127.4,95.2z"/>
		</g>
	</g>
	<g>
		<g>
			<circle fill="#FFFFFF" cx="99.6" cy="70.7" r="8.6"/>
		</g>
		<g id="Layer_1_5_">
			<g>
				<g>
					<path fill="#BDC8D7" d="M99.6,62.2c1.2,0,2.3,0.2,3.3,0.7c1,0.4,1.9,1,2.7,1.8c0.8,0.8,1.4,1.7,1.8,2.7c0.4,1,0.7,2.2,0.7,3.3
						c0,1.2-0.2,2.3-0.7,3.3c-0.4,1-1,1.9-1.8,2.7c-0.8,0.8-1.7,1.4-2.7,1.8c-1,0.4-2.2,0.7-3.3,0.7c-1.2,0-2.3-0.2-3.3-0.7
						c-1-0.4-1.9-1-2.7-1.8c-0.8-0.8-1.4-1.7-1.8-2.7c-0.4-1-0.7-2.2-0.7-3.3c0-1.2,0.2-2.3,0.7-3.3c0.4-1,1-1.9,1.8-2.7
						c0.8-0.8,1.7-1.4,2.7-1.8C97.4,62.4,98.5,62.2,99.6,62.2 M99.6,61.5c-5.1,0-9.3,4.1-9.3,9.3s4.1,9.3,9.3,9.3
						c5.1,0,9.3-4.1,9.3-9.3S104.8,61.5,99.6,61.5L99.6,61.5z"/>
				</g>
			</g>
		</g>
		<g>
			<path fill="#00549E" d="M98.1,66.9c0.9,0,1.2-0.5,1.3-1h0.8v7.8H99v-5.9h-0.9V66.9z"/>
		</g>
	</g>
	<g>
		<g>
			<circle fill="#FFFFFF" cx="11.5" cy="132.9" r="8.6"/>
		</g>
		<g id="Layer_1_3_">
			<g>
				<g>
					<path fill="#BDC8D7" d="M11.5,124.4c1.2,0,2.3,0.2,3.3,0.7c1,0.4,1.9,1,2.7,1.8c0.8,0.8,1.4,1.7,1.8,2.7c0.4,1,0.7,2.2,0.7,3.3
						c0,1.2-0.2,2.3-0.7,3.3c-0.4,1-1,1.9-1.8,2.7c-0.8,0.8-1.7,1.4-2.7,1.8c-1,0.4-2.2,0.7-3.3,0.7s-2.3-0.2-3.3-0.7
						c-1-0.4-1.9-1-2.7-1.8c-0.8-0.8-1.4-1.7-1.8-2.7c-0.4-1-0.7-2.2-0.7-3.3c0-1.2,0.2-2.3,0.7-3.3c0.4-1,1-1.9,1.8-2.7
						c0.8-0.8,1.7-1.4,2.7-1.8C9.3,124.6,10.4,124.4,11.5,124.4 M11.5,123.6c-5.1,0-9.3,4.1-9.3,9.3c0,5.1,4.1,9.3,9.3,9.3
						s9.3-4.1,9.3-9.3C20.8,127.8,16.7,123.6,11.5,123.6L11.5,123.6z"/>
				</g>
			</g>
		</g>
		<g>
			<path fill="#00549E" d="M8.8,133.8l2.2-5.3h1.3v5.3H13v1.1h-0.6v1.4h-1.2v-1.4H8.8V133.8z M11.2,133.8v-2.9l-1.2,2.9H11.2z"/>
		</g>
	</g>
	<g>
		<g>
			<circle fill="#FFFFFF" cx="17" cy="98.3" r="8.6"/>
		</g>
		<g id="Layer_1_1_">
			<g>
				<g>
					<path fill="#BDC8D7" d="M17,89.8c1.2,0,2.3,0.2,3.3,0.7c1,0.4,1.9,1,2.7,1.8c0.8,0.8,1.4,1.7,1.8,2.7c0.4,1,0.7,2.2,0.7,3.3
						c0,1.2-0.2,2.3-0.7,3.3c-0.4,1-1,1.9-1.8,2.7c-0.8,0.8-1.7,1.4-2.7,1.8c-1,0.4-2.2,0.7-3.3,0.7s-2.3-0.2-3.3-0.7
						c-1-0.4-1.9-1-2.7-1.8c-0.8-0.8-1.4-1.7-1.8-2.7c-0.4-1-0.7-2.2-0.7-3.3c0-1.2,0.2-2.3,0.7-3.3c0.4-1,1-1.9,1.8-2.7
						c0.8-0.8,1.7-1.4,2.7-1.8C14.8,90,15.9,89.8,17,89.8 M17,89c-5.1,0-9.3,4.1-9.3,9.3c0,5.1,4.1,9.3,9.3,9.3s9.3-4.1,9.3-9.3
						C26.3,93.2,22.1,89,17,89L17,89z"/>
				</g>
			</g>
		</g>
		<g>
			<path fill="#00549E" d="M16,99.2v0.7c0,0.6,0.2,0.8,0.6,0.8c0.4,0,0.6-0.2,0.6-0.8v-1.7c0-0.6-0.2-0.8-0.6-0.8
				c-0.4,0-0.6,0.2-0.6,0.8v0.2h-1.2l0.2-4.5h3.2v1.1h-2.1l-0.1,1.9c0.2-0.4,0.6-0.6,1.1-0.6c0.9,0,1.4,0.6,1.4,1.8v1.7
				c0,1.2-0.6,2-1.8,2c-1.2,0-1.8-0.7-1.8-2v-0.6H16z"/>
		</g>
	</g>
	<g>
		<path fill="#00549E" d="M62,71c-12.1,0-22.9-8.7-25.1-21L28.6,5.2l0.5-0.1L37.4,50c2.4,13.6,15.5,22.6,29,20.2l0.1,0.5
			C65,70.9,63.5,71,62,71z"/>
	</g>
	<g>
		<path fill="#00549E" d="M62.3,60.3c-6.1,0-11.5-4.4-12.6-10.5L41.1,3.2l0.5-0.1l8.6,46.5c0.6,3.2,2.4,6,5.1,7.9
			c2.7,1.9,6,2.6,9.2,2l0.1,0.5C63.8,60.2,63,60.3,62.3,60.3z"/>
	</g>
	<g>
		<rect x="45" y="76.9" fill="#00549E" width="0.5" height="13"/>
	</g>
	<g>
		
			<rect x="25.9" y="66.8" transform="matrix(0.9921 0.1254 -0.1254 0.9921 8.6725 -3.5798)" fill="#00549E" width="13.8" height="0.5"/>
	</g>
	<g>
		<circle fill="#F78E1E" cx="37.4" cy="14.3" r="1.9"/>
	</g>
	<g>
		<circle fill="#F78E1E" cx="39.6" cy="27.5" r="1.9"/>
	</g>
	<g>
		<circle fill="#F78E1E" cx="41.9" cy="40.6" r="1.9"/>
	</g>
</g>
</svg>
