<?xml version="1.0" encoding="utf-8"?>
<!-- Generator: Adobe Illustrator 18.1.1, SVG Export Plug-In . SVG Version: 6.00 Build 0)  -->
<svg version="1.1" id="Layer_1" xmlns="http://www.w3.org/2000/svg" xmlns:xlink="http://www.w3.org/1999/xlink" x="0px" y="0px"
	 viewBox="0 0 383.2 457.2" enable-background="new 0 0 383.2 457.2" xml:space="preserve">
<g>
	<g>
		<path fill="#F78E1E" d="M313.2,361.1l-11.9-7.4c-16.1,25.9-44.8,43.2-77.5,43.2c-11.7,0-22.9-2.2-33.2-6.3l-5.1,13.1
			c11.9,4.7,24.8,7.2,38.4,7.2C261.5,410.8,294.6,390.9,313.2,361.1z"/>
	</g>
	<g>
		<path fill="#FFFFFF" d="M192.9,395l3.1,1l-0.3,0.9l-1-0.3l-1.8,5.4l-1-0.3l1.8-5.4l-1-0.3L192.9,395z"/>
		<path fill="#FFFFFF" d="M196.8,396.3l1,0.3l-1.8,6.4l-1-0.3L196.8,396.3z"/>
		<path fill="#FFFFFF" d="M199.2,399.8l1.4,0.4l-0.2,0.9l-1.4-0.4l-0.5,1.9l1.7,0.4L200,404l-2.8-0.7l1.6-6.4l2.8,0.7l-0.2,0.9
			l-1.7-0.4L199.2,399.8z"/>
		<path fill="#FFFFFF" d="M203.4,404.7c0-0.2,0-0.3,0.1-0.8l0.2-1c0.1-0.6,0-0.9-0.5-1l-0.4-0.1l-0.6,2.6l-1-0.2l1.4-6.5l1.5,0.3
			c1.1,0.2,1.4,0.8,1.2,1.8l-0.1,0.5c-0.1,0.7-0.4,1.1-0.9,1.2c0.5,0.3,0.5,0.8,0.4,1.5l-0.2,1c-0.1,0.3-0.1,0.5-0.1,0.8
			L203.4,404.7z M203.5,398.9l-0.4,2l0.4,0.1c0.4,0.1,0.6,0,0.8-0.6l0.1-0.6c0.1-0.5,0-0.7-0.4-0.8L203.5,398.9z"/>
		<path fill="#FFFFFF" d="M210.3,400.9c0.1-0.6-0.1-0.8-0.4-0.8c-0.3,0-0.6,0.1-0.6,0.6l-0.1,0.4l-1-0.1l0.1-0.4
			c0.2-1.1,0.8-1.6,1.8-1.4c1,0.1,1.5,0.8,1.3,1.9l0,0.2c-0.1,0.7-0.4,1.1-0.9,1.2c0.5,0.3,0.6,0.8,0.5,1.5l-0.1,0.5
			c-0.2,1.1-0.8,1.6-1.8,1.4c-1-0.1-1.5-0.8-1.3-1.9l0.1-0.5l1,0.1l-0.1,0.6c-0.1,0.5,0.1,0.7,0.4,0.7c0.3,0,0.6-0.1,0.6-0.7
			l0.1-0.5c0.1-0.6-0.1-0.9-0.6-0.9l-0.3-0.1l0.1-0.9l0.4,0.1c0.4,0.1,0.6-0.1,0.7-0.6L210.3,400.9z"/>
		<path fill="#FFFFFF" d="M213.1,405.2l-0.1,1l-1-0.1l0.1-1L213.1,405.2z M213.5,401.6l-0.1,1l-1-0.1l0.1-1L213.5,401.6z"/>
		<path fill="#FFFFFF" d="M216.8,399.9l1,0.1l-0.4,6.6l-1-0.1L216.8,399.9z"/>
		<path fill="#FFFFFF" d="M219.8,401.9l-0.2,4.8l-0.9,0l0.2-6.6l1.3,0l0.9,4l0.1-4l0.9,0l-0.2,6.6l-1.1,0L219.8,401.9z"/>
		<path fill="#FFFFFF" d="M223.4,400.2l1.6,0c1,0,1.6,0.6,1.6,1.6l0,3.4c0,1.1-0.5,1.6-1.5,1.7l-1.6,0L223.4,400.2z M224.4,401.1
			l0.1,4.7l0.6,0c0.3,0,0.5-0.2,0.5-0.7l0-3.4c0-0.5-0.2-0.6-0.5-0.6L224.4,401.1z"/>
		<path fill="#FFFFFF" d="M227.6,400.1l1,0l0.3,6.6l-1,0L227.6,400.1z"/>
		<path fill="#FFFFFF" d="M231.8,405.2l0.4-5.5l1-0.1l-0.5,6.7l-1.5,0.1l-1.5-6.5l1-0.1L231.8,405.2z"/>
		<path fill="#FFFFFF" d="M234,399.6l1-0.1l0.7,6.6l-1,0.1L234,399.6z"/>
		<path fill="#FFFFFF" d="M236.2,399.3l1.6-0.2c1-0.2,1.6,0.3,1.8,1.4l0.5,3.3c0.2,1-0.3,1.7-1.3,1.8l-1.6,0.2L236.2,399.3z
			 M237.4,400.1l0.7,4.7l0.6-0.1c0.3,0,0.5-0.2,0.4-0.7l-0.5-3.4c-0.1-0.5-0.3-0.6-0.6-0.6L237.4,400.1z"/>
		<path fill="#FFFFFF" d="M241.4,398.5l1,5c0.1,0.5,0.3,0.6,0.7,0.5c0.3-0.1,0.5-0.3,0.4-0.7l-1-5l1-0.2l1,5c0.2,1-0.2,1.7-1.2,1.9
			c-1,0.2-1.6-0.3-1.8-1.3l-1-5L241.4,398.5z"/>
		<path fill="#FFFFFF" d="M249.3,403.6l-1,0.2l-0.5-1.1l-1.2,0.3l0.1,1.2l-0.9,0.2l-0.5-6.7l1.5-0.4L249.3,403.6z M246.5,402.1
			l1-0.2l-1.3-3.1L246.5,402.1z"/>
		<path fill="#FFFFFF" d="M248.5,396.9l1-0.3l1.5,5.5l1.6-0.5l0.3,0.9l-2.7,0.7L248.5,396.9z"/>
		<path fill="#FFFFFF" d="M252,395.9l1-0.3l2,6.3l-1,0.3L252,395.9z"/>
		<path fill="#FFFFFF" d="M256.8,394.2l0.3,0.9l-0.3,5.1l1.9-0.7l0.3,0.9l-2.9,1l-0.3-0.9l0.3-5.1l-1.8,0.6l-0.3-0.9L256.8,394.2z"
			/>
		<path fill="#FFFFFF" d="M259.8,396.1l1.3-0.5l0.4,0.9l-1.3,0.5l0.7,1.8l1.7-0.7l0.4,0.9l-2.6,1.1l-2.5-6.2l2.6-1.1l0.4,0.9
			l-1.7,0.7L259.8,396.1z"/>
		<path fill="#FFFFFF" d="M261.3,392.4l1.5-0.7c1-0.4,1.7-0.1,2.1,0.9l1.4,3.1c0.4,1,0.2,1.7-0.7,2.1l-1.5,0.7L261.3,392.4z
			 M262.7,392.9l1.9,4.3l0.5-0.2c0.3-0.1,0.4-0.4,0.2-0.8L264,393c-0.2-0.4-0.4-0.5-0.8-0.4L262.7,392.9z"/>
		<path fill="#FFFFFF" d="M268.1,389.1c0.9-0.5,1.6-0.2,2.1,0.8l0.1,0.2l-0.9,0.5l-0.1-0.2c-0.2-0.4-0.5-0.5-0.8-0.3
			c-0.3,0.2-0.4,0.4-0.2,0.8c0.6,1.2,2.6,0.5,3.4,2.2c0.5,0.9,0.3,1.7-0.6,2.2c-0.9,0.5-1.7,0.2-2.2-0.7l-0.2-0.4l0.9-0.5l0.2,0.4
			c0.2,0.4,0.5,0.5,0.8,0.3c0.3-0.2,0.4-0.4,0.2-0.8c-0.6-1.2-2.6-0.5-3.4-2.2C267,390.4,267.2,389.6,268.1,389.1z"/>
		<path fill="#FFFFFF" d="M271.2,387.5l2.6,4.4c0.2,0.4,0.5,0.5,0.8,0.3c0.3-0.2,0.4-0.4,0.1-0.8l-2.6-4.4l0.9-0.5l2.5,4.4
			c0.5,0.9,0.4,1.7-0.5,2.2c-0.9,0.5-1.6,0.3-2.2-0.7l-2.5-4.4L271.2,387.5z"/>
		<path fill="#FFFFFF" d="M277.4,385.6l0.5,0.7c0.6,0.9,0.5,1.7-0.4,2.2l-0.4,0.3l1.3,2.1l-0.9,0.6l-3.6-5.6l1.3-0.8
			C276.1,384.5,276.8,384.7,277.4,385.6z M275.3,386.1l1.2,1.9l0.4-0.3c0.3-0.2,0.3-0.4,0.1-0.8l-0.5-0.8c-0.3-0.4-0.5-0.4-0.8-0.3
			L275.3,386.1z"/>
		<path fill="#FFFFFF" d="M280.7,383.3l0.5,0.7c0.6,0.9,0.5,1.6-0.3,2.2l-0.4,0.3l1.4,2l-0.9,0.6l-3.8-5.4l1.3-0.9
			C279.4,382.2,280.1,382.4,280.7,383.3z M278.7,383.9l1.3,1.8l0.4-0.3c0.3-0.2,0.3-0.4,0.1-0.8l-0.6-0.8c-0.3-0.4-0.5-0.4-0.8-0.2
			L278.7,383.9z"/>
		<path fill="#FFFFFF" d="M281.4,382.7c-0.6-0.8-0.6-1.7,0.2-2.3c0.8-0.6,1.6-0.5,2.3,0.4l2.1,2.7c0.6,0.8,0.6,1.7-0.2,2.3
			c-0.8,0.6-1.6,0.5-2.3-0.4L281.4,382.7z M284.4,384.8c0.3,0.4,0.6,0.4,0.8,0.2c0.3-0.2,0.3-0.5,0-0.8l-2.2-2.8
			c-0.3-0.4-0.6-0.4-0.8-0.2c-0.3,0.2-0.3,0.5,0,0.8L284.4,384.8z"/>
		<path fill="#FFFFFF" d="M289.7,382.5c-0.2-0.1-0.2-0.1-0.6-0.6l-0.7-0.8c-0.4-0.5-0.7-0.5-1.1-0.2l-0.3,0.2l1.7,2.1l-0.8,0.7
			l-4.3-5.1l1.2-1c0.8-0.7,1.5-0.6,2.2,0.2l0.3,0.4c0.4,0.5,0.6,1,0.3,1.5c0.5-0.2,1,0.1,1.4,0.6l0.7,0.8c0.2,0.2,0.4,0.4,0.6,0.5
			L289.7,382.5z M285.2,378.9l1.3,1.6l0.3-0.3c0.3-0.2,0.4-0.5,0-0.9l-0.4-0.5c-0.3-0.4-0.6-0.4-0.8-0.2L285.2,378.9z"/>
		<path fill="#FFFFFF" d="M286.7,376.3l2.4-2.2l0.6,0.7l-0.8,0.7l3.8,4.2l-0.8,0.7l-3.8-4.2l-0.8,0.7L286.7,376.3z"/>
	</g>
	<g>
		<path fill="#008752" d="M324.4,368.1l-11.9-7.4c-18.5,29.6-51.3,49.4-88.8,49.4c-22.4,0-43.1-7.1-60.1-19.1l-8.1,11.5
			c19.3,13.6,42.8,21.6,68.2,21.6C266.2,424.1,303.5,401.7,324.4,368.1z"/>
	</g>
	<g>
		<path fill="#FFFFFF" d="M164.1,395.5l2.7,1.7l-0.5,0.8l-0.9-0.6l-3,4.8l-0.9-0.6l3-4.8l-0.9-0.6L164.1,395.5z"/>
		<path fill="#FFFFFF" d="M167.6,397.7l0.9,0.5l-3.4,5.7l-0.9-0.5L167.6,397.7z"/>
		<path fill="#FFFFFF" d="M169.1,401.8l1.3,0.7l-0.5,0.8l-1.3-0.7l-0.9,1.7l1.6,0.9l-0.5,0.8l-2.5-1.4l3.2-5.8l2.5,1.4l-0.5,0.8
			l-1.6-0.9L169.1,401.8z"/>
		<path fill="#FFFFFF" d="M171.9,407.6c0-0.2,0-0.3,0.3-0.8l0.5-0.9c0.3-0.6,0.2-0.8-0.2-1.1l-0.3-0.2l-1.2,2.4l-0.9-0.5l3-5.9
			l1.4,0.7c1,0.5,1.2,1.1,0.7,2.1l-0.2,0.5c-0.3,0.6-0.7,0.9-1.2,0.9c0.4,0.4,0.3,1,0,1.6l-0.5,0.9c-0.1,0.3-0.2,0.5-0.3,0.8
			L171.9,407.6z M173.4,402l-0.9,1.8l0.4,0.2c0.3,0.2,0.6,0.1,0.9-0.3l0.3-0.6c0.2-0.4,0.2-0.7-0.2-0.8L173.4,402z"/>
		<path fill="#FFFFFF" d="M179.4,404.8c-0.3-0.1-0.6-0.1-0.8,0.4l-0.3,0.7l-0.9-0.4l0.3-0.6c0.4-1,1.2-1.3,2.1-0.9
			c0.9,0.4,1.2,1.2,0.8,2.2c-0.8,1.9-3.1,1.8-3.5,2.8c0,0,0,0.1,0,0.1l1.8,0.8l-0.4,0.9l-2.8-1.2l0.3-0.7c0.8-1.8,2.8-1.3,3.6-3
			C179.9,405.1,179.7,404.9,179.4,404.8z"/>
		<path fill="#FFFFFF" d="M181,410.6l-0.4,0.9l-0.9-0.4l0.4-0.9L181,410.6z M182.4,407.3l-0.4,0.9l-0.9-0.4l0.4-0.9L182.4,407.3z"/>
		<path fill="#FFFFFF" d="M186.5,409.8l1.4,0.5l-0.7,2c-0.4,1-1.1,1.4-2,1.1c-1-0.3-1.3-1.1-0.9-2.1l1.1-3.3c0.4-1,1.1-1.4,2-1.1
			c1,0.3,1.3,1.1,0.9,2.1l-0.2,0.6l-0.9-0.3l0.2-0.7c0.2-0.4,0-0.7-0.3-0.8c-0.3-0.1-0.6,0-0.7,0.4l-1.2,3.4c-0.2,0.4,0,0.7,0.3,0.8
			c0.3,0.1,0.6,0,0.7-0.4l0.4-1.2l-0.4-0.2L186.5,409.8z"/>
		<path fill="#FFFFFF" d="M190,414.8c0-0.2,0-0.3,0.1-0.8l0.3-1c0.2-0.6,0-0.9-0.4-1l-0.3-0.1l-0.8,2.6l-1-0.3l2-6.3l1.5,0.5
			c1,0.3,1.3,0.9,1,1.9l-0.2,0.5c-0.2,0.7-0.5,1-1,1.1c0.4,0.4,0.4,0.9,0.2,1.6l-0.3,1c-0.1,0.3-0.2,0.5-0.1,0.8L190,414.8z
			 M190.6,409L190,411l0.4,0.1c0.4,0.1,0.6,0,0.8-0.5l0.2-0.6c0.1-0.5,0-0.7-0.3-0.8L190.6,409z"/>
		<path fill="#FFFFFF" d="M193.4,410.6c0.3-1,1-1.5,2-1.2s1.4,1,1.1,2l-0.9,3.3c-0.3,1-1,1.5-2,1.2s-1.4-1-1.1-2L193.4,410.6z
			 M193.5,414.2c-0.1,0.5,0,0.7,0.4,0.8c0.3,0.1,0.6,0,0.7-0.5l0.9-3.5c0.1-0.5,0-0.7-0.4-0.8s-0.6,0-0.7,0.5L193.5,414.2z"/>
		<path fill="#FFFFFF" d="M198.9,410.3l-1.1,5c-0.1,0.5,0.1,0.7,0.4,0.7c0.3,0.1,0.6,0,0.7-0.5l1.1-5l1,0.2l-1.1,4.9
			c-0.2,1-0.9,1.5-1.9,1.3c-1-0.2-1.4-0.9-1.1-2l1.1-4.9L198.9,410.3z"/>
		<path fill="#FFFFFF" d="M204.7,413.1l-0.2,0.8c-0.2,1-0.8,1.5-1.8,1.3l-0.5-0.1l-0.5,2.4l-1-0.2l1.2-6.5l1.5,0.3
			C204.5,411.4,204.9,412.1,204.7,413.1z M202.8,412.1l-0.4,2.2l0.5,0.1c0.3,0.1,0.5-0.1,0.6-0.5l0.2-1c0.1-0.5-0.1-0.6-0.4-0.7
			L202.8,412.1z"/>
		<path fill="#FFFFFF" d="M205.4,414.5l1.9,0.3l-0.1,0.9l-1.9-0.3L205.4,414.5z"/>
		<path fill="#FFFFFF" d="M208.3,412l3.2,0.4l-0.1,0.9l-1.1-0.1l-0.7,5.6l-1-0.1l0.7-5.6l-1.1-0.1L208.3,412z"/>
		<path fill="#FFFFFF" d="M214.7,419.4l-1-0.1l-0.1-1.2l-1.3-0.1l-0.3,1.2l-1-0.1l1.7-6.5l1.5,0.1L214.7,419.4z M212.5,417.1l1,0.1
			l-0.2-3.4L212.5,417.1z"/>
		<path fill="#FFFFFF" d="M218,419.6c0-0.2-0.1-0.3-0.1-0.8l0.1-1c0-0.6-0.2-0.9-0.6-0.9l-0.4,0l-0.1,2.7l-1-0.1l0.3-6.6l1.6,0.1
			c1.1,0.1,1.5,0.6,1.5,1.6l0,0.5c0,0.7-0.3,1.1-0.8,1.3c0.5,0.2,0.7,0.8,0.6,1.4l-0.1,1c0,0.3,0,0.6,0.1,0.8L218,419.6z
			 M217.2,413.9l-0.1,2l0.4,0c0.4,0,0.6-0.1,0.7-0.7l0-0.7c0-0.5-0.1-0.7-0.5-0.7L217.2,413.9z"/>
		<path fill="#FFFFFF" d="M221.9,416l1.5,0l0,2.1c0,1.1-0.6,1.7-1.6,1.6s-1.5-0.6-1.5-1.7l0-3.4c0-1.1,0.6-1.7,1.6-1.6
			s1.5,0.6,1.5,1.7l0,0.6l-1,0l0-0.7c0-0.5-0.2-0.7-0.5-0.7c-0.3,0-0.5,0.2-0.5,0.6l-0.1,3.6c0,0.5,0.2,0.6,0.5,0.7
			c0.3,0,0.5-0.2,0.5-0.6l0-1.2l-0.5,0L221.9,416z"/>
		<path fill="#FFFFFF" d="M225.5,415.9l1.4,0l0,0.9l-1.4,0l0,1.9l1.8,0l0,0.9l-2.8,0.1l-0.1-6.6l2.8-0.1l0,0.9l-1.8,0L225.5,415.9z"
			/>
		<path fill="#FFFFFF" d="M228,413l3.2-0.2l0.1,0.9l-1.1,0.1l0.3,5.7l-1,0.1l-0.3-5.7L228,414L228,413z"/>
		<path fill="#FFFFFF" d="M233.3,415.4l1.4-0.1l0.1,0.9l-1.4,0.1l0.2,1.9l1.8-0.2l0.1,0.9l-2.8,0.3l-0.6-6.6l2.8-0.3l0.1,0.9
			l-1.8,0.2L233.3,415.4z"/>
		<path fill="#FFFFFF" d="M235.9,412.4l1.6-0.2c1-0.1,1.6,0.4,1.7,1.4l0.4,3.3c0.1,1.1-0.3,1.7-1.3,1.8l-1.6,0.2L235.9,412.4z
			 M237,413.2l0.6,4.7l0.6-0.1c0.3,0,0.5-0.2,0.4-0.7l-0.4-3.4c-0.1-0.5-0.3-0.6-0.6-0.6L237,413.2z"/>
		<path fill="#FFFFFF" d="M245.3,412.6l0.2,0.8c0.2,1-0.2,1.7-1.2,1.9l-0.5,0.1l0.5,2.5l-1,0.2l-1.2-6.5l1.5-0.3
			C244.5,411.1,245.1,411.5,245.3,412.6z M243.2,412.3l0.4,2.2l0.5-0.1c0.3-0.1,0.5-0.2,0.4-0.7l-0.2-1c-0.1-0.5-0.3-0.6-0.6-0.5
			L243.2,412.3z"/>
		<path fill="#FFFFFF" d="M249.5,416.8c-0.1-0.2-0.2-0.2-0.3-0.8l-0.2-1c-0.1-0.6-0.4-0.8-0.9-0.7l-0.4,0.1l0.6,2.6l-1,0.2l-1.5-6.5
			l1.5-0.3c1.1-0.2,1.6,0.2,1.8,1.2l0.1,0.5c0.2,0.7,0,1.1-0.4,1.5c0.6,0.1,0.8,0.6,1,1.2l0.2,1c0.1,0.3,0.1,0.5,0.3,0.8
			L249.5,416.8z M247.1,411.5l0.4,2l0.4-0.1c0.4-0.1,0.6-0.3,0.5-0.8l-0.1-0.6c-0.1-0.5-0.3-0.6-0.7-0.5L247.1,411.5z"/>
		<path fill="#FFFFFF" d="M250.3,411.4c-0.3-1,0.1-1.8,1.1-2c1-0.3,1.7,0.2,2,1.2l0.9,3.3c0.3,1-0.1,1.8-1.1,2c-1,0.3-1.7-0.2-2-1.2
			L250.3,411.4z M252.2,414.5c0.1,0.5,0.4,0.6,0.7,0.5c0.3-0.1,0.5-0.3,0.4-0.8l-0.9-3.5c-0.1-0.5-0.4-0.6-0.7-0.5
			c-0.3,0.1-0.5,0.3-0.4,0.8L252.2,414.5z"/>
		<path fill="#FFFFFF" d="M256.4,411.1l1.4-0.4l0.6,2c0.3,1,0,1.8-1,2.1c-1,0.3-1.7-0.1-2-1.1l-1-3.3c-0.3-1,0-1.8,1-2.1
			c1-0.3,1.7,0.1,2,1.1l0.2,0.6l-0.9,0.3l-0.2-0.7c-0.1-0.5-0.4-0.6-0.7-0.5c-0.3,0.1-0.5,0.3-0.3,0.8l1,3.4
			c0.1,0.5,0.4,0.6,0.7,0.5c0.3-0.1,0.5-0.3,0.3-0.8l-0.4-1.2l-0.5,0.1L256.4,411.1z"/>
		<path fill="#FFFFFF" d="M262.1,413.1c-0.1-0.1-0.2-0.2-0.4-0.7l-0.3-1c-0.2-0.6-0.5-0.7-0.9-0.6l-0.3,0.1l0.9,2.5l-1,0.3l-2.2-6.3
			l1.5-0.5c1-0.4,1.6,0,2,0.9l0.2,0.5c0.2,0.6,0.2,1.1-0.2,1.5c0.6,0,0.9,0.5,1.1,1.1l0.3,1c0.1,0.3,0.2,0.5,0.4,0.7L262.1,413.1z
			 M259.2,408.1l0.7,1.9l0.4-0.1c0.4-0.1,0.5-0.4,0.4-0.9l-0.2-0.6c-0.2-0.4-0.4-0.6-0.7-0.5L259.2,408.1z"/>
		<path fill="#FFFFFF" d="M267.4,411.1l-1,0.4l-0.6-1.1l-1.2,0.5l0.3,1.2l-0.9,0.3l-1.4-6.6l1.4-0.6L267.4,411.1z M264.4,410
			l0.9-0.4l-1.7-2.9L264.4,410z"/>
		<path fill="#FFFFFF" d="M269.7,408l-1.3-4.6l1.3-0.6l2.7,6.1l-0.9,0.4l-1.9-4.3l1.3,4.6L270,410l-2.6-4l1.9,4.3l-0.8,0.4l-2.7-6.1
			l1.3-0.6L269.7,408z"/>
		<path fill="#FFFFFF" d="M272,401.6c0.9-0.5,1.6-0.1,2.1,0.8l0.1,0.2l-0.9,0.4l-0.1-0.2c-0.2-0.4-0.5-0.5-0.8-0.4
			c-0.3,0.1-0.4,0.4-0.2,0.8c0.6,1.2,2.5,0.5,3.4,2.2c0.5,1,0.3,1.7-0.6,2.2c-0.9,0.5-1.7,0.1-2.1-0.8l-0.2-0.4l0.9-0.4l0.2,0.4
			c0.2,0.4,0.5,0.5,0.8,0.3c0.3-0.1,0.4-0.4,0.2-0.8c-0.6-1.2-2.5-0.5-3.4-2.2C270.9,402.8,271.1,402.1,272,401.6z"/>
	</g>
	<g>
		<path fill="#00549E" d="M223.7,436.9c47.1,0,88.4-24.8,111.5-62.1l-11.9-7.4c-4.7,7.6-10.3,14.6-16.8,21.1
			c-22.1,22.1-51.6,34.3-82.9,34.3c-31.3,0-60.8-12.2-82.9-34.3c-1.1-1.1-2.2-2.3-3.3-3.4l-10.3,9.5
			C151.2,420.6,185.6,436.9,223.7,436.9z"/>
	</g>
	<g>
		<path fill="#FFCE06" d="M164.3,181.5l-0.2,5.8c18.2-9.2,38.6-14.3,59.8-14.3h0c14.9,0,29.7,2.5,43.9,7.5c4.5,1.6,8.8,3.4,13,5.3
			l5.1-2.8l0.1-5.8c-4.8-2.3-9.8-4.4-15-6.2c-15.6-5.5-31.5-8.1-47.2-8.1c-22.6,0-44.7,5.4-64.5,15.4L164.3,181.5z"/>
		<path fill="#FFCE06" d="M290,179.3l-0.1,6.2l-4.7,2.6c25.4,13.1,45.8,34,58.4,60.2c15.4,31.9,17.4,68,5.7,101.4
			c-11.4,32.5-34.6,58.4-63.8,73.7l-0.2,5.9l4.8,3c31-16.2,56.2-43.7,68.7-79.4C382.4,285.2,351.9,211.5,290,179.3z"/>
		<path fill="#FFCE06" d="M154.6,424.5l4.8-2.6c-23.9-13.2-43.1-33.4-55.1-58.5c-15.4-31.9-17.4-68-5.7-101.4
			c11.1-31.6,33.4-57.1,61.5-72.5l0.2-5.8l-4.9-3.1c-29.9,16.3-54.1,43.4-66.2,78.1c-23.3,66.6,5.7,138.9,65.4,172L154.6,424.5z"/>
		<path fill="#FFCE06" d="M281.2,431.5l0.2-6.1c-17.6,8.5-37.1,13.1-57.5,13.1c-14.9,0-29.7-2.5-43.9-7.5c-5.7-2-11.2-4.3-16.4-7
			l-5,2.8l-0.1,5.8c5.8,3,11.9,5.6,18.3,7.9c15.6,5.5,31.5,8.1,47.2,8.1c21.7,0,42.8-5,61.9-14.2L281.2,431.5z"/>
	</g>
	<g>
		<g>
			<path fill="#00549E" d="M224.2,450.8c-11.1,0-22.2-1.3-33.2-3.8c-34.9-8.1-65.4-28.6-85.8-57.7c-39.6-56.3-34-133.1,13.1-183
				L97.1,207l0-1l23.7-0.7l-0.9,0.9C72.3,255.7,66.5,332.5,106,388.8c20.3,28.9,50.6,49.2,85.2,57.3c34.4,8,70.2,3.2,101-13.3
				c5.1-2.7,10-5.8,14.8-9.2c2.6-1.8,5.1-3.7,7.5-5.7c28.2-22.8,46.7-55.2,51.9-91.2c5.3-36.2-3.3-72.7-24.1-102.8
				C299,161.3,214.1,143.2,149,182.8c-4.3,2.6-10,1.4-12.9-2.8L16.7,7l0.8-0.6L137,179.5c2.6,3.7,7.6,4.8,11.5,2.5
				c65.5-39.9,151-21.7,194.7,41.4c21,30.3,29.6,67.1,24.2,103.5c-5.3,36.3-23.9,68.9-52.3,91.8c-2.4,2-5,3.9-7.6,5.7
				c-4.8,3.4-9.8,6.5-14.9,9.2C271.6,445,248,450.8,224.2,450.8z"/>
		</g>
		<g>
			<path fill="#00549E" d="M224.2,437.4c-9.3,0-18.6-1-27.9-3c-31.7-6.8-59.7-24.8-78.6-50.8c-18.5-25.4-27.4-56.6-25-87.8
				c2.4-30.8,15.6-59.8,37.1-81.8l0.8-0.8l1.7,25.3l-1,0.1l-1.5-23.1c-20.9,21.7-33.6,50.2-36,80.4c-2.4,31,6.4,62,24.8,87.2
				c18.8,25.8,46.5,43.7,78,50.4c31.3,6.7,63.8,1.8,91.4-13.7c2.8-1.5,5.5-3.2,8.1-5c1-0.6,1.9-1.3,2.9-2
				c28.8-20.2,47.8-50.4,53.7-85.1c5.9-34.7-2.2-69.5-22.8-98c-19.5-27-48.3-45.4-81.3-51.8c-33-6.3-66.6,0-94.7,17.9l-0.9,0.6
				c-8.6,5.6-19.8,3.4-25.6-5L5.7,15.3l0.8-0.6l121.6,176.2c5.5,7.9,16.1,10,24.2,4.7l0.9-0.6c28.3-18.1,62.2-24.5,95.4-18.1
				c33.3,6.4,62.4,24.9,82,52.2c20.7,28.8,28.9,63.9,23,98.8c-5.9,34.9-25.1,65.4-54.1,85.7c-1,0.7-1.9,1.3-2.9,2
				c-2.7,1.8-5.4,3.5-8.2,5C268.7,431.6,246.6,437.4,224.2,437.4z"/>
		</g>
	</g>
	<g>
		<path fill="#FFFFFF" d="M137.3,390.6l2.3,2.3l-0.7,0.7l-0.8-0.8l-4,4.1l-0.8-0.7l4-4.1l-0.8-0.8L137.3,390.6z"/>
		<path fill="#FFFFFF" d="M140.2,393.5l0.8,0.7l-4.6,4.9l-0.8-0.7L140.2,393.5z"/>
		<path fill="#FFFFFF" d="M140.8,397.8l1.1,1l-0.6,0.7l-1.1-1l-1.3,1.5l1.4,1.2l-0.6,0.7l-2.2-1.9l4.5-5l2.2,1.9l-0.6,0.7l-1.4-1.2
			L140.8,397.8z"/>
		<path fill="#FFFFFF" d="M142.2,404.2c0.1-0.2,0.1-0.3,0.5-0.7l0.7-0.8c0.4-0.5,0.4-0.8,0-1.1l-0.3-0.2l-1.8,2.1l-0.8-0.7l4.3-5.2
			l1.2,1c0.8,0.7,0.9,1.4,0.2,2.2l-0.3,0.4c-0.4,0.5-0.9,0.7-1.4,0.6c0.3,0.5,0.1,1-0.4,1.6l-0.7,0.8c-0.2,0.3-0.4,0.4-0.4,0.7
			L142.2,404.2z M145,399l-1.3,1.6l0.3,0.3c0.3,0.3,0.6,0.3,0.9-0.1l0.4-0.5c0.3-0.4,0.3-0.6,0-0.9L145,399z"/>
		<path fill="#FFFFFF" d="M149.7,402.6c0.7,0.5,1,0.3,1.4,0l0.6,0.4l-4,5.4l-0.8-0.6l3.1-4.1l-0.7-0.5L149.7,402.6z"/>
		<path fill="#FFFFFF" d="M150.6,409.3l-0.6,0.8l-0.8-0.6l0.6-0.8L150.6,409.3z M152.7,406.3l-0.6,0.8l-0.8-0.6l0.6-0.8L152.7,406.3
			z"/>
		<path fill="#FFFFFF" d="M157.7,407.1c0.9,0.6,1,1.4,0.4,2.3l-0.1,0.2l-0.8-0.5l0.2-0.2c0.3-0.4,0.2-0.7-0.1-0.8s-0.5-0.1-0.8,0.3
			c-0.8,1.2,0.8,2.5-0.2,4.1c-0.6,0.9-1.4,1.1-2.2,0.6s-1-1.4-0.4-2.3l0.2-0.3l0.8,0.5l-0.3,0.4c-0.3,0.4-0.2,0.7,0.1,0.8
			c0.3,0.2,0.6,0.2,0.8-0.2c0.8-1.2-0.8-2.5,0.2-4.1C156.1,406.7,156.8,406.5,157.7,407.1z"/>
		<path fill="#FFFFFF" d="M160.3,413.7l-0.5,0.8c-0.6,0.9-1.3,1.2-2.2,0.6c-0.9-0.5-1-1.3-0.5-2.3l1.8-3c0.6-0.9,1.3-1.2,2.2-0.6
			c0.9,0.5,1,1.3,0.5,2.3l-0.3,0.6l-0.9-0.5l0.4-0.6c0.2-0.4,0.2-0.7-0.1-0.8s-0.6-0.1-0.8,0.3l-1.9,3.1c-0.2,0.4-0.2,0.7,0.1,0.8
			c0.3,0.2,0.6,0.1,0.8-0.3l0.5-0.8L160.3,413.7z"/>
		<path fill="#FFFFFF" d="M161,417l-0.9-0.5l3.3-5.9l0.9,0.5l-1.4,2.5l1,0.6l1.4-2.5l0.9,0.5l-3.3,5.9l-0.9-0.5l1.4-2.5l-1.1-0.6
			L161,417z"/>
		<path fill="#FFFFFF" d="M166.5,414.2c0.5-1,1.3-1.2,2.2-0.8c0.9,0.5,1.2,1.3,0.7,2.2l-1.6,3.1c-0.5,1-1.3,1.2-2.2,0.8
			c-0.9-0.5-1.2-1.3-0.7-2.2L166.5,414.2z M165.8,417.9c-0.2,0.4-0.1,0.7,0.2,0.8c0.3,0.2,0.6,0.1,0.8-0.3l1.7-3.2
			c0.2-0.4,0.1-0.7-0.2-0.8c-0.3-0.2-0.6-0.1-0.8,0.3L165.8,417.9z"/>
		<path fill="#FFFFFF" d="M170.3,416.1c0.5-1,1.2-1.3,2.2-0.9c0.9,0.4,1.2,1.2,0.7,2.2l-1.5,3.2c-0.5,1-1.2,1.3-2.2,0.9
			c-0.9-0.4-1.2-1.2-0.7-2.2L170.3,416.1z M169.7,419.8c-0.2,0.4-0.1,0.7,0.2,0.8c0.3,0.1,0.6,0.1,0.8-0.4l1.5-3.3
			c0.2-0.4,0.1-0.7-0.2-0.8c-0.3-0.1-0.6-0.1-0.8,0.4L169.7,419.8z"/>
		<path fill="#FFFFFF" d="M174.9,416.5l1,0.4l-2.3,5.3l1.6,0.7l-0.4,0.9l-2.6-1.1L174.9,416.5z"/>
		<path fill="#FFFFFF" d="M176.8,420.4l1.8,0.7l-0.4,0.9l-1.8-0.7L176.8,420.4z"/>
		<path fill="#FFFFFF" d="M181.8,422.6l-1.6,3.2l-1.4-0.5l1.6-6.6l1,0.3l-1.3,5.2l2.3-4.8l1,0.3l-1.3,5.2l2.3-4.8l0.9,0.3l-3,6.1
			l-1.3-0.5L181.8,422.6z"/>
		<path fill="#FFFFFF" d="M186.2,420.8l1,0.3l-2.1,6.4l-1-0.3L186.2,420.8z"/>
		<path fill="#FFFFFF" d="M188.3,421.4l1.6,0.5c1,0.3,1.4,1,1.1,2l-0.9,3.3c-0.3,1-1,1.5-2,1.2l-1.6-0.5L188.3,421.4z M189,422.7
			l-1.3,4.6l0.6,0.2c0.3,0.1,0.6,0,0.7-0.5l1-3.4c0.1-0.5,0-0.7-0.3-0.8L189,422.7z"/>
		<path fill="#FFFFFF" d="M192.8,425.6l1.4,0.4l-0.2,0.9l-1.4-0.4l-0.5,1.9l1.8,0.4l-0.2,0.9l-2.8-0.7l1.7-6.5l2.8,0.7l-0.2,0.9
			l-1.8-0.5L192.8,425.6z"/>
		<path fill="#FFFFFF" d="M199.6,424.2c1,0.2,1.4,0.9,1.2,2l0,0.2l-1-0.2l0.1-0.3c0.1-0.5-0.1-0.7-0.4-0.8c-0.3-0.1-0.6,0.1-0.6,0.5
			c-0.3,1.4,1.7,2,1.3,3.9c-0.2,1.1-0.9,1.6-1.9,1.3c-1-0.2-1.4-0.9-1.2-2l0.1-0.4l1,0.2l-0.1,0.5c-0.1,0.5,0.1,0.7,0.4,0.8
			c0.3,0.1,0.6-0.1,0.7-0.5c0.3-1.4-1.7-2-1.3-3.9C197.9,424.5,198.6,424,199.6,424.2z"/>
		<path fill="#FFFFFF" d="M202.7,427.8l1.4,0.2l-0.2,0.9l-1.4-0.2l-0.3,1.9l1.8,0.3l-0.2,0.9l-2.8-0.5l1.1-6.6l2.8,0.5l-0.2,0.9
			l-1.8-0.3L202.7,427.8z"/>
		<path fill="#FFFFFF" d="M207.3,432.4c0-0.2-0.1-0.3,0-0.8l0.1-1c0.1-0.6-0.1-0.9-0.6-0.9l-0.4,0l-0.4,2.7l-1-0.1l0.9-6.7l1.6,0.2
			c1.1,0.1,1.5,0.7,1.3,1.7l-0.1,0.5c-0.1,0.7-0.4,1.1-0.9,1.3c0.5,0.3,0.6,0.8,0.5,1.5l-0.1,1c0,0.3-0.1,0.6,0,0.8L207.3,432.4z
			 M206.9,426.5l-0.3,2l0.4,0.1c0.4,0.1,0.7-0.1,0.7-0.6l0.1-0.7c0.1-0.5-0.1-0.7-0.4-0.8L206.9,426.5z"/>
		<path fill="#FFFFFF" d="M211.2,431.6l1.3-5.4l1,0.1l-1.7,6.6l-1.6-0.2l-0.4-6.8l1.1,0.1L211.2,431.6z"/>
		<path fill="#FFFFFF" d="M214.5,426.4l1.1,0.1l-0.5,6.7l-1.1-0.1L214.5,426.4z"/>
		<path fill="#FFFFFF" d="M219.5,430.9l0,0.9c-0.1,1.1-0.6,1.7-1.7,1.6c-1-0.1-1.5-0.7-1.5-1.8l0.2-3.5c0.1-1.1,0.6-1.7,1.7-1.6
			c1,0.1,1.5,0.7,1.5,1.8l0,0.7l-1-0.1l0-0.7c0-0.5-0.2-0.7-0.5-0.7c-0.3,0-0.6,0.2-0.6,0.6l-0.2,3.6c0,0.5,0.2,0.7,0.5,0.7
			c0.3,0,0.6-0.1,0.6-0.6l0-1L219.5,430.9z"/>
		<path fill="#FFFFFF" d="M221.8,429.5l1.5,0l0,1l-1.5,0l0,2l1.8,0l0,1l-2.9,0l0.1-6.7l2.9,0l0,1l-1.8,0L221.8,429.5z"/>
		<path fill="#FFFFFF" d="M226.2,426.6c1,0,1.6,0.6,1.6,1.7l0,0.2l-1,0l0-0.3c0-0.5-0.2-0.7-0.5-0.7c-0.3,0-0.5,0.2-0.5,0.7
			c0,1.4,2.1,1.6,2.1,3.5c0,1.1-0.5,1.7-1.5,1.7c-1,0-1.6-0.6-1.6-1.7l0-0.4l1,0l0,0.5c0,0.5,0.2,0.6,0.6,0.6c0.3,0,0.5-0.2,0.5-0.7
			c0-1.4-2.1-1.6-2.1-3.5C224.6,427.3,225.1,426.7,226.2,426.6z"/>
	</g>
</g>
<g>
	<g>
		<circle fill="#FFFFFF" cx="341.3" cy="378.3" r="17.6"/>
	</g>
	<g id="Layer_1_25_">
		<g>
			<g>
				<path fill="#BDC8D7" d="M341.3,360.9c2.4,0,4.6,0.5,6.8,1.4c2.1,0.9,3.9,2.1,5.5,3.7c1.6,1.6,2.9,3.5,3.7,5.5
					c0.9,2.1,1.4,4.4,1.4,6.8s-0.5,4.6-1.4,6.8c-0.9,2.1-2.1,3.9-3.7,5.5s-3.5,2.9-5.5,3.7c-2.1,0.9-4.4,1.4-6.8,1.4
					c-2.4,0-4.6-0.5-6.8-1.4c-2.1-0.9-3.9-2.1-5.5-3.7s-2.9-3.5-3.7-5.5c-0.9-2.1-1.4-4.4-1.4-6.8s0.5-4.6,1.4-6.8
					c0.9-2.1,2.1-3.9,3.7-5.5s3.5-2.9,5.5-3.7C336.7,361.4,338.9,360.9,341.3,360.9 M341.3,359.4c-10.5,0-19,8.5-19,19s8.5,19,19,19
					c10.5,0,19-8.5,19-19S351.8,359.4,341.3,359.4L341.3,359.4z"/>
			</g>
		</g>
	</g>
	<g>
		<path fill="#00549E" d="M342.6,374c0-1.4-0.5-1.8-1.3-1.8s-1.3,0.4-1.3,1.6v1h-2.4v-0.9c0-2.5,1.3-4,3.7-4c2.5,0,3.7,1.5,3.7,4
			v0.4c0,1.7-0.5,2.8-1.8,3.3c1.3,0.5,1.8,1.7,1.8,3.3v1.2c0,2.5-1.3,4-3.7,4c-2.5,0-3.7-1.5-3.7-4v-1.3h2.4v1.5
			c0,1.1,0.5,1.6,1.3,1.6s1.3-0.4,1.3-1.8v-1.2c0-1.5-0.5-2-1.6-2h-0.8v-2.3h1c0.9,0,1.5-0.4,1.5-1.7V374z"/>
	</g>
</g>
<g>
	<g>
		<circle fill="#FFFFFF" cx="358.6" cy="291" r="17.6"/>
	</g>
	<g>
		<g id="Layer_1_22_">
			<g>
				<g>
					<path fill="#BDC8D7" d="M358.6,273.6c2.4,0,4.6,0.5,6.8,1.4c2.1,0.9,3.9,2.1,5.5,3.7s2.9,3.5,3.7,5.5c0.9,2.1,1.4,4.4,1.4,6.8
						c0,2.4-0.5,4.6-1.4,6.8c-0.9,2.1-2.1,3.9-3.7,5.5s-3.5,2.9-5.5,3.7c-2.1,0.9-4.4,1.4-6.8,1.4s-4.6-0.5-6.8-1.4
						c-2.1-0.9-3.9-2.1-5.5-3.7s-2.9-3.5-3.7-5.5c-0.9-2.1-1.4-4.4-1.4-6.8c0-2.4,0.5-4.6,1.4-6.8c0.9-2.1,2.1-3.9,3.7-5.5
						s3.5-2.9,5.5-3.7C354,274,356.2,273.6,358.6,273.6 M358.6,272c-10.5,0-19,8.5-19,19s8.5,19,19,19s19-8.5,19-19
						S369.1,272,358.6,272L358.6,272z"/>
				</g>
			</g>
		</g>
	</g>
	<g>
		<path fill="#00549E" d="M358.7,284.7c-0.8,0-1.3,0.4-1.3,1.6v1.7H355v-1.5c0-2.5,1.3-4,3.7-4c2.5,0,3.7,1.5,3.7,4c0,5-5,6.9-5,9.5
			c0,0.1,0,0.2,0,0.3h4.7v2.3H355v-2c0-4.7,5-5.5,5-10C360,285.1,359.5,284.7,358.7,284.7z"/>
	</g>
</g>
<g>
	<g>
		<circle fill="#FFFFFF" cx="321.5" cy="206.7" r="17.6"/>
	</g>
	<g id="Layer_1_21_">
		<g>
			<g>
				<path fill="#BDC8D7" d="M321.5,189.3c2.4,0,4.6,0.5,6.8,1.4c2.1,0.9,3.9,2.1,5.5,3.7s2.9,3.5,3.7,5.5c0.9,2.1,1.4,4.4,1.4,6.8
					c0,2.4-0.5,4.6-1.4,6.8c-0.9,2.1-2.1,3.9-3.7,5.5s-3.5,2.9-5.5,3.7c-2.1,0.9-4.4,1.4-6.8,1.4c-2.4,0-4.6-0.5-6.8-1.4
					c-2.1-0.9-3.9-2.1-5.5-3.7c-1.6-1.6-2.9-3.5-3.7-5.5c-0.9-2.1-1.4-4.4-1.4-6.8c0-2.4,0.5-4.6,1.4-6.8c0.9-2.1,2.1-3.9,3.7-5.5
					c1.6-1.6,3.5-2.9,5.5-3.7C316.9,189.7,319.2,189.3,321.5,189.3 M321.5,187.8c-10.5,0-19,8.5-19,19s8.5,19,19,19
					c10.5,0,19-8.5,19-19S332,187.8,321.5,187.8L321.5,187.8z"/>
			</g>
		</g>
	</g>
	<g>
		<path fill="#00549E" d="M318.3,199.9c1.9,0,2.4-0.9,2.8-2h1.7v15.9h-2.5v-12.1h-1.9V199.9z"/>
	</g>
</g>
<g>
	<g>
		<circle fill="#FFFFFF" cx="103.5" cy="378.3" r="17.6"/>
	</g>
	<g id="Layer_1_20_">
		<g>
			<g>
				<path fill="#BDC8D7" d="M103.5,360.9c2.4,0,4.6,0.5,6.8,1.4c2.1,0.9,3.9,2.1,5.5,3.7s2.9,3.5,3.7,5.5c0.9,2.1,1.4,4.4,1.4,6.8
					s-0.5,4.6-1.4,6.8c-0.9,2.1-2.1,3.9-3.7,5.5s-3.5,2.9-5.5,3.7c-2.1,0.9-4.4,1.4-6.8,1.4s-4.6-0.5-6.8-1.4
					c-2.1-0.9-3.9-2.1-5.5-3.7c-1.6-1.6-2.9-3.5-3.7-5.5c-0.9-2.1-1.4-4.4-1.4-6.8s0.5-4.6,1.4-6.8c0.9-2.1,2.1-3.9,3.7-5.5
					c1.6-1.6,3.5-2.9,5.5-3.7C98.9,361.4,101.1,360.9,103.5,360.9 M103.5,359.4c-10.5,0-19,8.5-19,19s8.5,19,19,19s19-8.5,19-19
					S114,359.4,103.5,359.4L103.5,359.4z"/>
			</g>
		</g>
	</g>
	<g>
		<path fill="#00549E" d="M98.9,380.2l4.5-10.8h2.7v10.8h1.2v2.3h-1.2v2.9h-2.5v-2.9h-4.8V380.2z M103.7,380.2v-6l-2.5,6H103.7z"/>
	</g>
</g>
<g>
	<g>
		<circle fill="#FFFFFF" cx="85.8" cy="293" r="17.6"/>
	</g>
	<g id="Layer_1_19_">
		<g>
			<g>
				<path fill="#BDC8D7" d="M85.8,275.6c2.4,0,4.6,0.5,6.8,1.4c2.1,0.9,3.9,2.1,5.5,3.7s2.9,3.5,3.7,5.5c0.9,2.1,1.4,4.4,1.4,6.8
					s-0.5,4.6-1.4,6.8c-0.9,2.1-2.1,3.9-3.7,5.5s-3.5,2.9-5.5,3.7c-2.1,0.9-4.4,1.4-6.8,1.4s-4.6-0.5-6.8-1.4
					c-2.1-0.9-3.9-2.1-5.5-3.7c-1.6-1.6-2.9-3.5-3.7-5.5c-0.9-2.1-1.4-4.4-1.4-6.8s0.5-4.6,1.4-6.8c0.9-2.1,2.1-3.9,3.7-5.5
					c1.6-1.6,3.5-2.9,5.5-3.7C81.2,276.1,83.5,275.6,85.8,275.6 M85.8,274.1c-10.5,0-19,8.5-19,19s8.5,19,19,19s19-8.5,19-19
					S96.3,274.1,85.8,274.1L85.8,274.1z"/>
			</g>
		</g>
	</g>
	<g>
		<path fill="#00549E" d="M83.8,295v1.5c0,1.1,0.5,1.5,1.3,1.5s1.3-0.4,1.3-1.5V293c0-1.1-0.5-1.6-1.3-1.6s-1.3,0.4-1.3,1.6v0.5
			h-2.4l0.5-9.2h6.6v2.3h-4.3l-0.2,3.8c0.5-0.8,1.2-1.2,2.2-1.2c1.8,0,2.8,1.3,2.8,3.6v3.5c0,2.5-1.3,4-3.7,4s-3.7-1.5-3.7-4V295
			H83.8z"/>
	</g>
</g>
<g>
	<circle fill="#F78E1E" cx="23.2" cy="26.4" r="2.7"/>
</g>
<g>
	<circle fill="#F78E1E" cx="58.3" cy="78.2" r="2.7"/>
</g>
<g>
	<circle fill="#F78E1E" cx="92.4" cy="126.9" r="2.7"/>
</g>
</svg>
