<?xml version="1.0" encoding="utf-8"?>
<!-- Generator: Adobe Illustrator 18.1.1, SVG Export Plug-In . SVG Version: 6.00 Build 0)  -->
<svg version="1.1" id="Layer_1" xmlns="http://www.w3.org/2000/svg" xmlns:xlink="http://www.w3.org/1999/xlink" x="0px" y="0px"
	 viewBox="0 0 292.9 94.8" enable-background="new 0 0 292.9 94.8" xml:space="preserve">
<g>
	<path fill="#00549E" d="M112.3,40.8c-0.9-4.1-4.3-6.5-8.2-6.5c-7.1,0-10.1,6-10.1,11.8s3,11.8,10.1,11.8c5,0,8.1-3.8,8.6-8.6h2.6
		c-0.7,6.6-4.9,10.8-11.2,10.8c-8.5,0-12.7-6.7-12.7-14s4.2-14,12.7-14c5.1,0,10.1,3,10.8,8.7H112.3z"/>
	<path fill="#00549E" d="M135.1,49.8c0,5.6-3.2,10.3-9.2,10.3c-6,0-9.2-4.7-9.2-10.3s3.2-10.3,9.2-10.3
		C131.9,39.5,135.1,44.2,135.1,49.8 M119.1,49.8c0,4.1,2.3,8.3,6.8,8.3c4.6,0,6.8-4.1,6.8-8.3s-2.3-8.3-6.8-8.3
		C121.4,41.5,119.1,45.7,119.1,49.8"/>
	<path fill="#00549E" d="M137.7,40.1h2.2v3.3h0.1c1.2-2.3,3.3-3.8,6.4-3.8c2.6,0,4.9,1.2,5.6,3.8c1.2-2.6,3.6-3.8,6.2-3.8
		c4.3,0,6.4,2.2,6.4,6.8v13.2h-2.4V46.5c0-3.2-1.2-4.9-4.6-4.9c-4.1,0-5.3,3.4-5.3,7v11H150V46.3c0-2.6-1.1-4.8-4.1-4.8
		c-4.1,0-5.8,3.1-5.8,7.2v10.8h-2.4V40.1z"/>
	<path fill="#00549E" d="M168.2,40.1h2.2v3.3h0.1c1.2-2.3,3.3-3.8,6.4-3.8c2.6,0,4.9,1.2,5.6,3.8c1.2-2.6,3.6-3.8,6.2-3.8
		c4.3,0,6.4,2.2,6.4,6.8v13.2h-2.4V46.5c0-3.2-1.2-4.9-4.6-4.9c-4.1,0-5.3,3.4-5.3,7v11h-2.4V46.3c0-2.6-1.1-4.8-4.1-4.8
		c-4.1,0-5.8,3.1-5.8,7.2v10.8h-2.4V40.1z"/>
	<path fill="#00549E" d="M214.4,59.5h-2.2V56h-0.1c-1.2,2.6-3.8,4.1-6.7,4.1c-4.9,0-6.8-2.9-6.8-7.4V40.1h2.4v12.7
		c0.1,3.5,1.4,5.3,5.2,5.3c4.1,0,5.8-3.8,5.8-7.8V40.1h2.4V59.5z"/>
	<path fill="#00549E" d="M217.9,40.1h2.4v3.4h0.1c0.9-2.3,3.5-3.9,6.2-3.9c5.5,0,7.1,2.9,7.1,7.5v12.5h-2.4V47.4
		c0-3.4-1.1-5.9-4.9-5.9c-3.8,0-6,2.9-6.1,6.7v11.3h-2.4V40.1z"/>
	<path fill="#00549E" d="M237.3,32.6h2.4v3.8h-2.4V32.6z M237.3,40.1h2.4v19.4h-2.4V40.1z"/>
	<path fill="#00549E" d="M247.1,40.1h4v2h-4v13.1c0,1.5,0.2,2.4,1.9,2.6c0.7,0,1.4,0,2-0.1v2c-0.7,0-1.4,0.1-2.1,0.1
		c-3.2,0-4.3-1.1-4.2-4.4V42.1h-3.4v-2h3.4v-5.8h2.4V40.1z"/>
	<path fill="#00549E" d="M253.6,32.6h2.4v3.8h-2.4V32.6z M253.6,40.1h2.4v19.4h-2.4V40.1z"/>
	<path fill="#00549E" d="M261,50.5c0,3.5,1.8,7.6,6.4,7.6c3.5,0,5.3-2,6.1-5h2.4c-1,4.4-3.6,7-8.5,7c-6.2,0-8.8-4.7-8.8-10.3
		c0-5.1,2.6-10.3,8.8-10.3c6.3,0,8.7,5.5,8.6,10.9H261z M273.5,48.5c-0.1-3.6-2.3-6.9-6.2-6.9c-3.9,0-6,3.4-6.4,6.9H273.5z"/>
	<path fill="#00549E" d="M289.8,45.8c-0.1-2.9-2.4-4.3-5.1-4.3c-2.1,0-4.6,0.8-4.6,3.4c0,2.1,2.4,2.9,4,3.3l3.2,0.7
		c2.7,0.4,5.5,2,5.5,5.4c0,4.2-4.2,5.8-7.8,5.8c-4.5,0-7.6-2.1-8-6.9h2.4c0.2,3.2,2.6,4.9,5.7,4.9c2.2,0,5.3-1,5.3-3.7
		c0-2.3-2.1-3-4.3-3.5l-3.1-0.7c-3.1-0.8-5.4-1.9-5.4-5.2c0-4,3.9-5.5,7.3-5.5c3.9,0,7,2,7.1,6.3H289.8z"/>
	<rect x="92.8" y="67.3" fill="#00549E" width="2.6" height="26.9"/>
	<path fill="#00549E" d="M100.5,74.7h2.4v3.4h0.1c0.9-2.3,3.5-3.9,6.2-3.9c5.5,0,7.1,2.9,7.1,7.5v12.5h-2.4V82.1
		c0-3.4-1.1-5.9-4.9-5.9c-3.8,0-6,2.9-6.1,6.7v11.3h-2.4V74.7z"/>
	<path fill="#00549E" d="M127.6,85.3c-0.1,5.5,3.9,7.2,8.8,7.2c2.8,0,7.1-1.5,7.1-5.5c0-3.1-3-4.3-5.5-4.9l-6-1.5
		c-3.2-0.8-6.1-2.3-6.1-6.5c0-2.6,1.7-7.6,9.3-7.6c5.3,0,10,2.9,9.9,8.4h-2.6c-0.1-4.1-3.5-6.2-7.3-6.2c-3.5,0-6.7,1.4-6.7,5.3
		c0,2.5,1.9,3.6,4.1,4.1l6.6,1.6c3.8,1,7,2.7,7,7.1c0,1.8-0.8,7.7-10.3,7.7c-6.4,0-11-2.9-10.7-9.4H127.6z"/>
	<path fill="#00549E" d="M162.5,80.9c-0.6-2.9-2.4-4.7-5.5-4.7c-4.6,0-6.8,4.1-6.8,8.3c0,4.1,2.3,8.3,6.8,8.3c2.9,0,5.3-2.3,5.7-5.5
		h2.4c-0.6,4.7-3.7,7.5-8,7.5c-6,0-9.2-4.7-9.2-10.3c0-5.6,3.2-10.3,9.2-10.3c4.1,0,7.3,2.2,7.9,6.7H162.5z"/>
	<path fill="#00549E" d="M167.3,67.3h2.4v10.8h0.1c0.9-2.3,3.5-3.9,6.2-3.9c5.5,0,7.1,2.9,7.1,7.5v12.5h-2.4V82.1
		c0-3.4-1.1-5.9-4.9-5.9c-3.8,0-6,2.9-6.1,6.7v11.3h-2.4V67.3z"/>
	<path fill="#00549E" d="M204.1,84.5c0,5.6-3.2,10.3-9.2,10.3c-6,0-9.2-4.7-9.2-10.3s3.2-10.3,9.2-10.3
		C200.8,74.2,204.1,78.9,204.1,84.5 M188.1,84.5c0,4.1,2.3,8.3,6.8,8.3c4.6,0,6.8-4.1,6.8-8.3s-2.3-8.3-6.8-8.3
		C190.3,76.2,188.1,80.3,188.1,84.5"/>
	<path fill="#00549E" d="M224.1,84.5c0,5.6-3.2,10.3-9.2,10.3s-9.2-4.7-9.2-10.3s3.2-10.3,9.2-10.3S224.1,78.9,224.1,84.5
		 M208.1,84.5c0,4.1,2.3,8.3,6.8,8.3c4.6,0,6.8-4.1,6.8-8.3s-2.3-8.3-6.8-8.3C210.4,76.2,208.1,80.3,208.1,84.5"/>
	<rect x="226.8" y="67.3" fill="#00549E" width="2.4" height="26.9"/>
	<path fill="#00549E" d="M244.4,80.4c-0.1-2.9-2.4-4.3-5.1-4.3c-2.1,0-4.6,0.8-4.6,3.4c0,2.1,2.4,2.9,4,3.3l3.2,0.7
		c2.7,0.4,5.5,2,5.5,5.4c0,4.2-4.2,5.8-7.8,5.8c-4.5,0-7.6-2.1-8-6.9h2.4c0.2,3.2,2.6,4.9,5.7,4.9c2.2,0,5.3-1,5.3-3.7
		c0-2.3-2.1-3-4.3-3.5l-3.1-0.7c-3.1-0.8-5.4-1.9-5.4-5.2c0-4,3.9-5.5,7.3-5.5c3.9,0,7,2,7.1,6.3H244.4z"/>
	<path fill="#FFFFFF" d="M26.7,35.9c2.2,3.9,4.8,8.4,6.7,10.7c5,6.2,10.7,8.7,19.7,5s13.9-5.6,13.9-5.6l5.1,4.1
		c0,0-23.2,8.6-25,16.9c-1.1,5.9,3.1,10.9,5.5,16.5c2.3,5.6,4.2,10.7,4.2,10.7l-9.7,0c0,0-1.6-6-4.7-10.2c-3.4-4.7-6.2-7.3-15.4-5.1
		c-8.1,2-15.8,4.7-15.8,4.7l0-9c0,0,7.4-1.4,13.1-6c5.7-4.6,7.2-11.5,4-18.1C26.3,46.9,21.8,40,21.8,40L26.7,35.9z"/>
	<path fill="#00549E" d="M41.9,11.7c-0.7,0.7-1.4,1-1.4,0.2V2c0-0.8,0.6-1.9,1.4-2c5.1-0.7,7.7,9.2,12.9,6.9c0.7-0.3,0.7,0.2,0,1.1
		C49.7,14.6,47.1,6.7,41.9,11.7"/>
	<path fill="#00549E" d="M52.6,33.6v-6.3H58c0.4,0,0.5-0.2,0.2-0.4L41.5,13.1c-0.3-0.2-0.8-0.2-1.1,0L23.8,26.9
		c-0.3,0.2-0.2,0.4,0.2,0.4h5.4v6.3l-2.7,2.3c2.2,3.9,4.9,8.4,6.7,10.7c5,6.2,10.7,8.7,19.7,5c8.9-3.7,13.9-5.7,13.9-5.7L52.6,33.6z
		"/>
	<path fill="#E31837" d="M81.6,58.1l-9.6-8c0,0-23.2,8.6-25,16.9c-1.1,5.9,3.1,10.9,5.5,16.5c2.3,5.6,4.2,10.7,4.2,10.7l12.9,0
		c0.8,0,1.5-0.7,1.5-1.5V59.2h10.1C82.1,59.2,82.3,58.7,81.6,58.1"/>
	<path fill="#F78E1E" d="M26.7,78.9c-8.1,2-15.8,4.7-15.8,4.7l0,9.1c0,0.8,0.7,1.5,1.5,1.5l34.4,0c0,0-1.6-6-4.7-10.2
		C38.7,79.3,36,76.7,26.7,78.9"/>
	<path fill="#008752" d="M28.1,50.4C26.3,46.9,21.8,40,21.8,40L0.4,58.1c-0.7,0.6-0.5,1.1,0.4,1.1H11v15.4c0,0,7.4-1.4,13.1-6
		S31.3,57,28.1,50.4"/>
	<path fill="#FFFFFF" d="M48.5,41.3c0.8,3.7-1,7.2-4.2,7.9c-3.1,0.7-6.4-1.7-7.2-5.4c-0.8-3.7,1-7.2,4.2-7.9
		C44.5,35.3,47.7,37.7,48.5,41.3"/>
</g>
</svg>
