<?xml version="1.0" encoding="utf-8"?>
<!-- Generator: Adobe Illustrator 18.1.1, SVG Export Plug-In . SVG Version: 6.00 Build 0)  -->
<svg version="1.1" id="Layer_1" xmlns="http://www.w3.org/2000/svg" xmlns:xlink="http://www.w3.org/1999/xlink" x="0px" y="0px"
	 viewBox="0 0 122 88.5" enable-background="new 0 0 122 88.5" xml:space="preserve">
<g opacity="0.2">
	<g>
		<path fill-rule="evenodd" clip-rule="evenodd" fill="#008752" d="M68.2,3.6c1,0.3,2,0.6,2.9,0.8c0.4,0.1,0.8,0.2,1.1,0.4
			C72.1,5,71.4,5,71.1,5.1c-0.8,0.1-1.7,0.4-2.5,0.6c0,0.7,0.6,1.3,0.8,1.8c0.1,0.4-0.1,0.6-0.1,0.9c0,0.3,0.1,0.6,0,1
			c0.3,0,0.3,0.4,0.2,0.9c-0.1,0.4-0.2,1-0.4,1.3c-0.1,0.1-0.3,0.2-0.3,0.3c-0.1,0.2,0,0.3,0,0.5c0,0.2-0.2,0.4-0.2,0.6
			c0,0.2,0,0.5,0,0.7c0,0.7-0.1,0.9,0,1.5l0.1,0.3c0.1,0.2,0.3,0.2,0.4,0.3c0.1,0.1,0.2,0.2,0.3,0.3c0.4,0.3,1.6,0.6,2.2,0.7
			c0.4,0,0.5-0.2,0.9-0.1c0.4,0.1,0.7,0.3,1,0.5c0.6,0.3,1.1,0.4,1.6,0.8c0.4,0.3,0.5,1,0.8,1.5c0.3,0.8,0.6,1.6,0.9,2.5
			c0.5,1.5,1,2.9,1.5,4.4c0.3,0.8,0.6,1.5,0.8,2.3c0,0.2,0.2,0.3,0.2,0.5c0.2,1-2.3,3.4-2.9,4c-0.2,0.2-0.7,0.5-0.7,0.9
			c-0.1,0.4,0.1,1,0.1,1.3c0.1,1.2,0.2,2.3,0.3,3.6c0,0.4,0.2,0.8,0.2,1.2c-0.1,0.8-0.7,1.3-0.7,1.9c0,0.7,0.3,1.6,0.2,2.4
			c-0.1,0.8-0.1,1.5-0.2,2.3c-0.1,0.4-0.1,1-0.1,1.5c0,0.5,0.1,0.9,0.2,1.4c0.1,1,0,1.9-0.1,2.8c0,0.2-0.1,0.5-0.1,0.8
			c0.1,1,0.5,1.9,0.7,2.9c0.1,0.3,0.2,2.1,0.3,2.1c0,0,0,0.1,0,0.1c-0.1,0.2-0.1,0.3-0.1,0.6c0,0.4,0.2,0.8,0.3,1.2
			c0.1,0.5,0,1.2-0.1,1.6c0,0.1-0.2,0.3-0.2,0.4c0,0.2,0.1,0.4,0.1,0.5c0,0.4,0.1,0.8,0,1.2c0,0.2-0.1,0.5,0,0.7
			c0,0.1,0.2,0.2,0.2,0.3c0.2,0.3,0.3,0.5,0.5,0.8c0.2,0.3,0.5,0.5,0.6,0.9c0.3,0.8,0.5,2,0.7,2.9c0,0.2,0,0.5,0.1,0.8
			c0,0,0.1,0.1,0.2,0.2c0.1,0.1,0.1,0.3,0.2,0.4c0.3,0.3,0.7,0.6,1.1,0.8c0.2,0.2,1.6,1.2,1.3,1.5c-0.3,0.4-1.7,0.5-2.4,0.5
			c-0.8-0.1-1.7-0.3-2.1-0.8c-0.2-0.3-0.3-0.7-0.6-0.9c-0.3-0.1-0.7,0-1,0c-0.3,0-1.3-0.4-1.4-0.5c-0.1-0.2,0-0.4-0.1-0.7
			c0-0.1-0.1-0.1-0.1-0.2c-0.1-0.2,0-0.4-0.1-0.6c-0.1-0.3-0.2-0.6-0.3-0.9c-0.1-0.2,0-0.4-0.1-0.6c-0.2-0.8-0.8-1.6-1.1-2.4
			c-0.6-1.5-1.2-3-1.7-4.7c-0.1-0.5-0.2-0.9-0.3-1.3c-0.1-0.5-0.3-0.9-0.4-1.4c0-0.2-0.1-1.2-0.2-1.3c-0.3-0.1-2.6,0.4-2.8,0.5
			c-0.1,0-0.1,1.4-0.1,1.7c0,0.1,0,0.2,0,0.4c-0.1,0-0.2,0-0.2,0.1c-0.1,0.6,0,1.1-0.2,1.5c0,0.1-0.1,0.2-0.2,0.3
			c-0.1,0.4,0.2,0.8,0.4,1.1c0.1,0.3,0.4,0.6,0.5,0.9c0.3,0.7,0.7,2.1,0.7,3c0.1,1.3-0.4,1.7-0.8,2.5c-0.1,0.1-0.2,0.2-0.2,0.3
			c-0.1,0.3,0,0.7,0,1c-0.1,0.3-0.5,0.3-0.5,0.6c-0.1,0.4,0,0.8,0,1.1c-0.1,0.5-0.9,0.8-1.5,0.9c-0.4,0-1.2,0.1-1.6-0.1
			c0,0-0.1-0.2-0.1-0.2c-0.4-0.7-0.2-1.4,0.1-2c0.1-0.2,0.1-0.4,0.2-0.7c0-0.1,0.2-0.2,0.3-0.3c0.1-0.2-0.1-0.6-0.2-0.7
			c-0.4-0.7-1.1-1.5-1-2.6c0.1-0.7,0.6-1.6,0.5-2.4C62,63,61.5,61.6,61.4,60c-0.3-0.2-0.7-0.1-1.1-0.3c-0.4-0.1-0.9-0.6-1-1.1
			c-0.3-1.1,0-2.4-0.1-3.7c-0.2-2.3-0.4-4.6-0.6-7c-0.1-1.2-0.1-2.4-0.1-3.6c0-0.6-0.3-0.2-0.4,0c-0.1,0-0.1,0.1-0.2,0.1
			c-1.2-0.5-1.7-1.7-2.3-2.7c-0.2-0.4-0.6-0.9-0.7-1.4c-0.2-0.5-0.2-1-0.4-1.4c-0.2-0.5-0.5-1-0.8-1.4c-0.2-0.3-0.5-0.7-0.5-1.1
			c-0.1-0.5,0.2-0.8,0.4-1.1c0.2-0.5,0.2-0.9,0.3-1.4c0.2-0.7,0.5-1.6,0.7-2.4c0.2-1,0-2.1,0.1-3.3c0-0.4,0.2-1,0.4-1.3
			c0-0.1,0.2-0.1,0.2-0.2c0.1-0.2,0.1-0.4,0.1-0.6c0.1-0.4,0.2-0.8,0.3-1.2c0.4-1.9,0.4-4.2,1.1-5.9c0.1-0.4,0.5-1.2,0.7-1.4
			c0.3-0.2,0.6-0.3,0.9-0.5c0.2-0.1,0.4-0.4,0.6-0.5c0.2,0,0.3,0,0.4,0c0.3,0,0.7,0,1,0c0.9-0.1,1.8-0.6,2.5-1.1
			c0.2-0.1,0.3-0.4,0.4-0.5c0.1-0.1,0.2-0.1,0.3-0.2c0.1-0.1,0.3-0.5,0.3-0.6c0.1-0.3-0.2-2.4-0.3-2.5c-0.1-0.1-0.2-0.1-0.3-0.1
			c-0.1-0.1-0.1-0.3-0.2-0.4c-0.2-0.3-0.4-0.5-0.5-1c0-0.2-0.1-0.5,0-0.7c0-0.1,0.2-0.1,0.1-0.4c0-0.2,0-0.3-0.1-0.4
			c0-0.1-0.1-0.2-0.1-0.3c0-0.2-0.2-0.3-0.3-0.6c-0.1-0.8,0.1-1.7-0.1-2.4c0-0.1,0-0.1,0-0.2c-0.1-0.1-0.4-0.1-0.5-0.1
			c-0.4-0.1-0.8-0.2-1.2-0.3c-0.3-0.1-0.6,0-0.9-0.2c-0.1,0-0.1-0.1-0.1-0.2c0.7-0.2,1.4-0.3,2.1-0.4c0.2,0,0.5-0.1,0.7-0.1
			c0.1-0.1,0.3-0.3,0.4-0.3c0.4-0.1,0.8,0.1,1.2,0c0.7-0.1,1.5-0.3,2.2-0.5c0.2-0.1,0.5-0.2,0.8-0.2C67.4,3.3,67.8,3.5,68.2,3.6z
			 M63,6l0,0.6c0,0,0,0.4,0.1,0.3c0.1-0.1,0.4-0.8,0.4-1C63.3,5.8,63.2,5.8,63,6z M59,40.3c0.1-0.4-0.3,0.1-0.5,0.3
			c0,0,0.1,0.6,0.1,1.1l0.2-0.4C58.8,41.3,58.9,40.7,59,40.3z"/>
	</g>
	<g>
		<path fill-rule="evenodd" clip-rule="evenodd" fill="#008752" d="M63.9,8.7c0,0-0.5,3.4-1.1,4.1c-0.6,0.7,0.3,3.4-0.6,3.6
			c-0.9,0.3,0,2.9,0,2.9L73,18.2c0,0-2.6-4.5-2.7-5.2c-0.1-0.7-0.8-4.9-1.2-5.4S63.9,8.7,63.9,8.7z"/>
	</g>
	<g>
		<path fill-rule="evenodd" clip-rule="evenodd" fill="#008752" d="M26.4,15.3l0.1-1.1l-0.1-0.3c0,0-0.1-0.5,0.1-0.8
			c0.2-0.2,0.6-0.6,0.8-0.6c0.2,0,0.6-0.3,0.8-0.3c0.2,0,0.6-0.1,0.8-0.3c0.2-0.1,0.5-0.4,0.7-0.5c0.2-0.1,1.2-0.2,1.3-0.2
			c0.1,0,0.8-0.2,0.9,0.1c0.1,0.3,1.2,1,1.3,1.2c0.1,0.2,0.7,0.6,0.9,0.9c0.2,0.3,0.6,1,0.7,1.4c0.1,0.3,0.3,0.9,0.5,1
			c0.1,0.1,0.6,0.8,0.7,1.1c0.1,0.4,0.1,1.5,0.2,1.8c0.1,0.3,0.1,0.9,0.1,1.1c0,0.3-0.1,0.5-0.2,0.8c0,0.3-0.1,0.7,0,0.8
			c0.1,0.1,0.4,0.4,0.5,0.5c0.1,0.1,0.3,0.2,0.8,0.2c0.5,0,1,0.4,1.1,0.5c0.1,0.1,1.3,1.1,1.5,1.1c0.1,0,0.5,0.6,0.6,1
			c0.1,0.3,0.2,1.2,0.5,2c0.3,0.8,0.3,1.3,0.4,1.9c0.1,0.6,0.2,1,0.2,1.5c0,0.5,0.3,1.1,0.3,1.5c0,0.4-0.3,0.7,0,1.1
			c0.3,0.5,0.3,1.6,0.4,2c0.1,0.3,0,0.7,0,0.9c0.1,0.1,0.2,0.3,0.2,0.5c0,0.1,0,0.6-0.1,1c-0.1,0.4-0.2,0.8-0.2,1
			c0,0.2-0.3,0.6-0.3,0.9c0,0.3-0.4,0.8-0.7,1.2c-0.3,0.3-0.4,0.5-0.6,0.9c-0.2,0.4-0.3,0.5-0.6,0.9c-0.3,0.4-0.5,0.7-0.8,0.9
			c-0.2,0.2-0.4,0.7-0.5,0.9c-0.1,0.2-0.5,0.4-0.5,0.6c-0.1,0.3,0,0.2-0.1,0.5c-0.1,0.2-0.5,0.4-0.5,0.7c-0.1,0.3,0.1,0.5-0.1,0.7
			c-0.3,0.2-0.4,0.4-0.3,0.6c0.1,0.2,0.1,0.3,0.1,0.3s0.2,0.1,0.2,0.4c0,0.3-0.2,0.4-0.1,0.6c0.1,0.2,0.1,0.4,0.2,0.5
			c0,0.1,0.2,0.4,0.2,0.4s0.2,0,0.1,0.3c-0.1,0.3-0.1,0.3-0.1,0.6c0,0.3,0.3,0.9,0.3,1.5c0.1,0.6,0,1.6,0.1,2.2
			c0.1,0.5,0.3,1.3,0.4,2c0.1,0.7,0.1,1.1,0.1,1.6c0,0.5-0.1,1-0.1,1.2c0,0.2,0,0.4,0,0.6c0,0.2,0,0.3-0.1,0.6
			c-0.1,0.4,0.1,0.4,0.2,0.6c0.1,0.2,0,0.3,0,0.8c0,0.5-0.2,0.8,0.1,1.1c0.2,0.3,0.3,0.3,0.3,0.6c0,0.3-0.1,1.4-0.1,1.8
			c0,0.4,0.2,1.1,0.2,1.5c0,0.4,0.1,1,0,1.5c0,0.5-0.2,0.9,0,1.2c0.1,0.2,0.5,0.6,0.5,0.9c0,0.3,0,0.7,0.1,0.8
			c0.2,0.1,0.5,0.1,0.7,0.2c0.2,0.1,0.5,0.2,0.4,0.3c-0.1,0.1,0,1.9,0,1.9s0.8,0.7,1.1,0.7c0.2,0.1,0.9,0.4,1.3,0.7
			c0.4,0.3,0.6,0.5,0.6,0.5s-0.1,0.6-0.3,0.7c-0.2,0.2-1,0.3-1.5,0.3c-0.4,0-1.6-0.3-2-0.4c-0.3-0.1-0.9-0.5-1.4-0.6
			c-0.5-0.1-1.3-0.2-1.3-0.2s-0.6,0-1.3-0.2c-0.7-0.2-0.5-0.6-0.5-0.6L35,73.5c0,0,0,0.1-0.1-0.4c0-0.6-0.3-1.2-0.3-1.4
			c0-0.2-0.4-2.2-0.4-2.6c0-0.4-0.4-3.2-0.4-3.4c0-0.1-0.6-3.2-0.6-3.4c0-0.2-0.6-4.5-0.6-4.8c0-0.3-0.8-3.4-0.8-3.6
			c0-0.2-0.5-2-0.5-2.2c0-0.2-0.8-3.2-0.8-3.2L30.4,51c0,0,0.1,5.6,0.1,5.8c0,0.2-0.1,3.9-0.1,4.1c0,0.3,0,0.8,0,1.1
			c0,0.3,0.6,1.1,0.7,1.6c0.1,0.5,0,1,0.3,1.6c0.3,0.6,0.4,1.8,0.4,2.8c0,1,0.2,2.5,0.2,2.9c0,0.4-0.1,1.6-0.1,1.6l0.6,0.4l0,1.2
			l-0.1,0.2c0,0,0.3,0.4,0.5,0.6c0.2,0.2,0.2,0.3,0.6,0.5c0.4,0.2,0.5,0.3,0.3,0.4c-0.2,0.1-0.3,0.3-0.8,0.5
			c-0.4,0.2-1.3,0.7-1.8,0.8c-0.5,0.1-1.1,0.1-1.5-0.1c-0.3-0.2-0.5-0.3-0.7-0.7c-0.2-0.4-0.4-1-0.4-1L28,75.4c0,0-0.4-0.2-0.5-0.6
			c0-0.4-0.3-1.6-0.3-1.6l0.3,0c0,0-0.5-1.1-0.6-1.5c-0.1-0.4-0.8-2.5-0.8-2.7c0-0.2-0.2-3.5-0.2-3.7c0-0.2,0-1.9,0-2.3
			c0.1-0.4-0.1-1.8-0.1-1.9c0-0.1-0.3-0.8-0.3-1c0.1-0.2,0-1.4,0-1.7c0-0.3-0.1-0.3-0.1-0.7c0-0.5-0.1-1.1-0.1-1.4
			c0-0.3-0.4-1.7-0.4-2c0-0.3-0.3-2.8-0.3-3c0-0.2-0.4-2-0.4-2.2c0-0.2-0.1-0.8-0.2-1c-0.1-0.3-0.3-4.1-0.3-4.1s0.1-0.4,0-0.5
			c-0.1-0.1-0.4-0.3-0.5-0.5c-0.1-0.1-0.3-0.3-0.3-0.3l-0.3,0.1c0,0-0.5-0.2-0.5-0.4c-0.1-0.2-0.3-2.1-0.3-2.1s-0.4-0.5-0.4-0.6
			c0-0.2-0.4-1-0.4-1.1c0-0.1,0.3-1.8,0.3-2.5c0-0.7-0.1-1.3,0-1.5c0.1-0.2,0.4-0.6,0.4-0.8c0-0.2-0.2-0.3-0.2-0.4
			c0-0.1,0.3-1,0.4-1.2c0.1-0.3,0.5-1.9,0.6-2.4c0.2-0.5,0.5-2.1,0.5-2.3c0-0.1,0.6-2.2,0.6-2.3c0.1-0.1,0.5-1.3,0.5-1.3
			s-0.1-0.2,0.4-0.4c0.5-0.2,1-0.3,1.2-0.4c0.3-0.1,0.7-0.3,1.1-0.5c0.4-0.2,0.6-0.3,1-0.4c0.4-0.2,0.6-0.4,0.6-0.4L28,21.1l0.3-0.2
			l-0.1-0.3c0,0-0.4,0-0.8,0.1c-0.4,0-0.7,0.1-0.8,0c-0.1-0.1-0.3-0.1-0.3-0.3c0-0.2,0-0.3,0-0.5c0-0.1,0-0.6,0-0.6s-0.1-0.2,0-0.3
			c0.1-0.1,0.1-0.3,0.1-0.3l-0.2-0.2L26,18.1L26,17.8h-0.4c0,0-0.2-0.1-0.2-0.3c0-0.2,0.2-0.5,0.3-0.6c0.1-0.1,0.6-1.3,0.6-1.3
			L26.4,15.3z"/>
	</g>
	<g>
		<path fill-rule="evenodd" clip-rule="evenodd" fill="#008752" d="M25.3,55.1c-0.1,0.1-0.1,0.2-0.2,0.3c0,0,0,0-0.1,0
			c-0.8-1.5-0.3-3.1-1.3-4.6c-1.4-2.1-4-3.7-4.8-6.2c-0.1,0-0.1-0.1-0.2-0.1c0,0,0,0-0.1,0c0.2,1,0.5,1.9,0.7,2.9
			c0,1.3-0.1,2.6-0.1,3.9c0.2,0.9,0.5,2.1,0.3,3.3c-0.3,1.7-0.8,3.1-1,4.6c-0.3,1.8,1.5,2.7,0.6,4.7c0.1,0.9,0.8,1.4,1.1,2.2
			c0.4,1.2,0.3,2.5,0.8,3.7c0.2,0.4,0.8,0.5,0.9,0.9c0,0.4,0,0.9,0,1.3c0.4,0.3,0.7,0.6,1.1,0.9c0,0,0,0,0,0.1
			c0.2,0.6-0.3,0.7-0.2,1.3c0.1,0.8,0.4,1.7,0.4,2.7c0,0-0.1,0.1-0.1,0.1c-1,0.3-5.6,0.4-6.3,0c-0.2-0.2-0.2-0.2-0.3-0.6
			c0.4-0.8,0.7-0.6,1.4-1.1c0.3-0.3,0.4-0.9,0.8-1.1c-0.1-1.6-0.7-2.5-1.5-3.6c-0.4-0.6-1.1-0.8-1.4-1.4c-0.1,0-0.2,0-0.3,0
			c-0.4,1.5-1.6,2.5-1.9,3.5c-0.2,0.6,0,1.8-0.1,2.4c-1.3,0.4-2.2-0.1-2.6-1.2c-1-0.2-3.2-1-2.4-2.4c0.3-0.8,0.9-0.7,1.8-0.6
			c0.9-1.3,0-3.3,1.8-3.9c0.3-0.7,0.2-4.6,0-5.6c-0.6-2.7-1.4-5.4-1.9-8.3c0.1-0.7,0.2-1.5,0.3-2.2c0.2-1.7-0.2-4.8-0.9-6.5
			c0,0,0-0.1,0-0.1c0,0-0.1,0-0.1,0c-1,1.5-2,3.1-2.9,4.6c-1.6,2-4.6,3.4-5.3,6.2c-0.1,0-0.1,0-0.2,0.1c-1.2-0.9-1.2-1.8-0.3-3
			c0.4-0.3,0.8-0.6,1.1-0.9c1.1-1.5,2-3.1,3.1-4.6c0.7-0.9,1.6-1.7,2.2-2.8c1.4-2.5,0.8-3.6,3.2-5.5c0.6-0.5,0.8-1,1.9-1.1
			c0.2-0.3,0.1-0.1,0.1-0.5c-0.5-0.2-1.4-0.1-1.9-0.4c-0.8-3.7-1.5-7.1,2.5-8.3c0.7-0.2,1.9-0.5,2.9-0.1c1.9,0.8,2.4,3.3,3.1,5
			c0.2,0.5,1.1,1.7,0.8,2c0.4,0.3,0.7,0.6,1.1,0.9c-0.1,0.1-0.2,0.2-0.4,0.4c0.2,0.2,0.2,0.1,0.3,0.4c-0.3,0.1-0.3,0.2-0.4,0.5
			c-0.2,0-0.3-0.1-0.5-0.1c-0.2,0.4-0.5,0.5-0.6,0.9c-0.4,0.2-0.6,0.3-1.2,0.1c0,0,0,0,0,0.1c1.3,1.7,2,3.8,3.2,5.7
			c0.9,1.2,1.9,2.5,2.8,3.7c0.6,1.2,1.3,2.4,1.9,3.6c0.4,0.3,0.9,0.6,1.3,0.9c0.8,0.9,1.4,2.6,0,3.4c-0.6-0.7-0.3-1.5-1.6-1.7
			C25.5,54.3,25.5,54.8,25.3,55.1z"/>
	</g>
	<g>
		<path fill-rule="evenodd" clip-rule="evenodd" fill="#008752" d="M97.5,9.7c2.9,0,4.2,1.5,4.6,3.9c0.1,0.4,0.2,0.9,0.2,1.3
			c-0.2,0.3-0.3,0.7-0.4,1c-0.2,0.6,0.3,1.2,0.3,1.7c0.1,0.7-0.3,1.2-0.1,1.8c0.3,1,1.5,2.1,2.1,3.3c0.3,0.7,0.4,1.6,0.4,2.5
			c0,0.5,0,0.9,0,1.4c0.1,0.8,0.6,1.2,0.7,1.9c0.3,1.3-0.8,2.4-1,3.3c0.1,0.7,0.2,1.3,0.3,2c0.2,0.4,0.3,0.9,0.5,1.3
			c0.4,1.1,0.5,2.2,0.9,3.3c0.4,0.8,0.7,1.6,1.1,2.4c0.2,0.6,0.3,1.2,0.5,1.8c0.5,1.2,1.4,2.5,1.7,3.9c0.4,1.7-1.8,1.4-2.5,1.5
			c-0.5-1-2.7-0.3-2.2-2.7c-1-0.2-2,0.4-2.9-0.2c0,0,0,0-0.1,0c0,1.2-0.1,2.5-0.2,3.6c0,0.4,0,0.7,0.1,1.1c-0.6,0.3-1.5,4.2-1.9,5.2
			c-0.6,1.5-1.2,2.9-1.8,4.4c-0.4,1.3-0.2,2.6-0.4,4c-0.6,3.7-0.7,8.2,0.9,10.8c0.2,0.3,2.4,0.9,2.8,1.1c0.1,0.6,0,1.4-0.2,2
			c-0.2,0.2-0.4,0.3-0.7,0.4c0.2,0.4,0.5,2,0.2,2.4c-0.3,0.5-2.3,0.7-3,0.4c-1.4-0.6-1.1-1.4-1.9-2.4c-0.3-0.2-0.6-0.4-0.9-0.6
			c-0.5,0.1-1.9,0.4-2.2-0.1c0-0.4-0.1-0.8-0.1-1.2c-0.1-0.7-0.8-2.9-0.6-3.6c0.2-0.4,0.4-0.8,0.7-1.2c0.3-0.8,0.4-1.7,0.6-2.6
			c0.4-2.3-0.4-4.6-0.1-6.9c0-0.5,0.1-1,0.1-1.5c0.2-0.6,0.3-1.1,0.5-1.7c0.2-0.7-0.1-1.7-0.3-2.2c-0.4-2-1.3-4.3-2.2-5.8
			c-0.7,0-1.5,0.2-2.1-0.1c-0.1-0.8,0.3-2,0.1-2.9c0,0,0,0,0,0c-0.1,0-0.1,0.1-0.1,0.1c-0.1,0.3-0.2,0.6-0.3,0.9
			c0,0.3,0.1,0.5,0.1,0.8c0,0.1-0.1,0.2-0.1,0.4c0.1,0.4,0.4,1,0.5,1.4c0,0.1-0.1,0.1-0.1,0.2c0,0-0.1,0-0.1,0
			c-0.7-0.6-1.4-0.8-1.9-1.7c-0.5-1-0.5-2.5-0.1-3.7c0.1-0.3,0.2-0.6,0.4-1c0-0.4-0.1-0.8-0.1-1.2c0.2-0.9,0.4-2.1,0.5-3.1
			c0.1-0.9,0.1-1.8,0.2-2.7c0.4-2,0.9-3.6,1.3-5.5c0.4-2-0.5-3.9,0-5.8c0.4-1.4,1.3-2.6,1.6-3.9c0-0.6,0.1-1.2,0.1-1.9
			c0.4-1.2,1.4-2.6,1.9-3.9c1-2.5,0.6-4.6,2.3-6.5c0.4-0.5,1.1-0.8,1.8-1C97,9.8,97.4,9.9,97.5,9.7z M104.2,24.4
			c0,0.3,0.1,0.8,0.2,1c0,0,0,0,0,0c0-0.3-0.1-0.6-0.1-1C104.3,24.4,104.2,24.4,104.2,24.4z M104.3,27.4c-0.1,0.4,0.4,1.2,0.7,1.3
			c0-0.1,0-0.2,0-0.4C104.7,28.1,104.5,27.7,104.3,27.4C104.3,27.4,104.3,27.4,104.3,27.4z M103.8,27.7c-0.2,0.9,0,2.5,0.3,3.3
			c0.1-0.1,0.3-0.3,0.4-0.4C104.9,29.5,104.8,28,103.8,27.7z M104.3,31c-0.1,0.1-0.1,0.1-0.1,0.2c0,0.1,0,0.3,0,0.4c0,0,0,0,0,0
			c0,0,0.1-0.1,0.1-0.1c0-0.2,0.1-0.3,0.1-0.5C104.4,31,104.4,31,104.3,31z M106.4,44.7c0-0.4-0.4-0.6-0.5-0.9
			c-0.2-0.4,0-1.1-0.3-1.4c0,0-0.1,0-0.1,0c0.1,0.7,0.2,1.5,0.3,2.2C106,44.7,106.2,44.7,106.4,44.7z"/>
	</g>
	<g>
		<path fill-rule="evenodd" clip-rule="evenodd" fill="#008752" d="M50.1,0c0.3,0,0.6,0.1,0.9,0.2c0.8,0.2,1.5,0.4,2.3,0.5
			c0.4,0,0.8-0.2,1.3-0.1c0.1,0,0.3,0.3,0.4,0.3C55.1,1,55.5,1,55.7,1.1c0.8,0.2,1.5,0.3,2.2,0.4c-0.1,0-0.1,0.1-0.2,0.2
			c-0.3,0.1-0.6,0.1-0.9,0.2c-0.4,0.1-0.9,0.3-1.3,0.4c-0.2,0-0.4,0-0.6,0.1c0,0,0,0.1-0.1,0.2c-0.2,0.8,0,1.7-0.1,2.5
			c0,0.2-0.2,0.4-0.3,0.6c0,0.1-0.1,0.2-0.1,0.3c-0.1,0.1-0.1,0.2-0.1,0.4c0,0.3,0.1,0.3,0.2,0.4c0.1,0.2,0,0.6,0,0.8
			c-0.1,0.5-0.3,0.7-0.5,1c-0.1,0.1-0.1,0.3-0.2,0.5c-0.1,0.1-0.2,0-0.3,0.1c-0.1,0.1-0.4,2.3-0.3,2.7c0,0.1,0.2,0.5,0.3,0.6
			c0.1,0.1,0.2,0.1,0.4,0.2c0.2,0.1,0.3,0.4,0.4,0.5c0.7,0.4,1.7,1,2.6,1.1c0.3,0.1,0.7,0.1,1.1,0.1c0.1,0,0.3-0.1,0.4-0.1
			c0.2,0.1,0.5,0.4,0.7,0.5c0.3,0.2,0.7,0.3,1,0.6c0.3,0.2,0.6,1.1,0.8,1.5c0.7,1.8,0.6,4.2,1.1,6.2c0.1,0.4,0.2,0.9,0.3,1.3
			c0,0.2,0,0.4,0.1,0.6c0,0.1,0.2,0.2,0.2,0.2c0.2,0.3,0.4,0.9,0.4,1.3c0.1,1.2-0.1,2.4,0.1,3.4c0.2,0.8,0.5,1.7,0.7,2.5
			c0.1,0.5,0.2,1,0.4,1.5c0.1,0.4,0.5,0.6,0.4,1.2c-0.1,0.4-0.4,0.8-0.6,1.1c-0.3,0.4-0.6,1-0.8,1.5c-0.2,0.5-0.2,1-0.4,1.5
			c-0.2,0.5-0.5,1-0.8,1.4c-0.6,1.1-1.2,2.4-2.4,2.9c-0.1-0.1-0.1-0.1-0.2-0.1c-0.1-0.1-0.4-0.6-0.4,0.1c0,1.2,0,2.5-0.1,3.7
			c-0.2,2.5-0.4,4.8-0.6,7.3c-0.1,1.3,0.2,2.7-0.1,3.8c-0.1,0.5-0.6,1-1,1.1c-0.4,0.1-0.8,0.1-1.2,0.3c-0.1,1.6-0.6,3.1-0.8,4.5
			c-0.1,0.9,0.5,1.7,0.5,2.5c0.1,1.2-0.6,2-1.1,2.7c-0.1,0.1-0.3,0.5-0.2,0.7c0,0.1,0.2,0.2,0.3,0.3c0.1,0.2,0.1,0.4,0.3,0.7
			c0.3,0.6,0.5,1.3,0.1,2.1c0,0-0.1,0.2-0.2,0.2c-0.4,0.2-1.2,0.1-1.6,0.1c-0.6-0.1-1.5-0.4-1.6-0.9c-0.1-0.4,0.1-0.8-0.1-1.2
			c-0.1-0.3-0.5-0.3-0.6-0.6c-0.1-0.3,0.1-0.7,0-1c0-0.1-0.1-0.2-0.2-0.3c-0.4-0.8-0.9-1.3-0.8-2.6c0.1-0.9,0.4-2.4,0.8-3.2
			c0.1-0.3,0.4-0.6,0.5-1c0.1-0.3,0.4-0.7,0.4-1.1c0-0.1-0.1-0.2-0.2-0.3c-0.2-0.4-0.1-1-0.2-1.6c-0.1,0-0.1-0.1-0.2-0.1
			c0-0.2,0-0.2,0-0.4c-0.1-0.3,0-1.7-0.2-1.8c-0.2-0.1-2.7-0.6-3-0.5c-0.1,0-0.2,1.1-0.2,1.3c-0.1,0.5-0.3,1-0.4,1.5
			c-0.1,0.5-0.2,0.9-0.3,1.4c-0.4,1.7-1.1,3.3-1.7,4.9c-0.3,0.8-0.9,1.7-1.1,2.5c-0.1,0.2,0,0.4-0.1,0.7c-0.1,0.3-0.2,0.6-0.3,0.9
			c0,0.2,0,0.4-0.1,0.7c0,0.1-0.1,0.1-0.2,0.2c-0.1,0.3,0,0.5-0.1,0.7c-0.1,0.2-1.2,0.6-1.5,0.5c-0.3,0-0.7-0.2-1.1,0
			c-0.4,0.2-0.4,0.6-0.7,0.9c-0.4,0.5-1.3,0.7-2.1,0.8c-0.7,0.1-2.2-0.1-2.5-0.5c-0.3-0.4,1.1-1.4,1.4-1.6c0.4-0.3,0.8-0.5,1.2-0.9
			c0.1-0.1,0.1-0.3,0.2-0.4c0-0.1,0.2-0.1,0.2-0.2c0.1-0.2,0-0.6,0.1-0.8c0.2-1,0.3-2.2,0.7-3.1c0.1-0.4,0.4-0.6,0.6-0.9
			c0.2-0.3,0.3-0.5,0.5-0.8c0.1-0.1,0.2-0.2,0.2-0.3c0.1-0.2,0-0.6,0-0.7c0-0.4,0-0.9,0-1.3c0-0.1,0.1-0.3,0.1-0.5
			c0-0.1-0.2-0.3-0.2-0.5c-0.1-0.4-0.2-1.1-0.1-1.7c0.1-0.4,0.2-0.8,0.3-1.3c0-0.3,0-0.4-0.1-0.6c0,0,0-0.1,0-0.1
			c0.1,0,0.2-1.9,0.3-2.2c0.2-1,0.6-2,0.7-3c0-0.3-0.1-0.6-0.1-0.8c-0.1-0.9-0.2-1.9-0.1-2.9c0-0.5,0.1-1,0.2-1.4
			c0-0.6,0-1.2-0.1-1.6c-0.1-0.8-0.1-1.6-0.2-2.4c-0.1-0.9,0.2-1.8,0.2-2.5c0-0.6-0.7-1.2-0.8-2c0-0.5,0.2-0.9,0.2-1.3
			c0.1-1.3,0.2-2.4,0.3-3.7c0-0.4,0.2-1,0.1-1.4c-0.1-0.4-0.6-0.7-0.8-0.9c-0.6-0.7-3.2-3.1-3-4.2c0-0.2,0.1-0.4,0.2-0.5
			c0.3-0.9,0.6-1.6,0.8-2.4c0.5-1.6,1-3.1,1.5-4.6c0.3-0.9,0.6-1.8,0.9-2.6c0.2-0.5,0.4-1.2,0.8-1.6c0.4-0.4,1-0.6,1.6-0.8
			c0.3-0.1,0.7-0.4,1.1-0.5c0.4-0.1,0.5,0.2,0.9,0.2c0.7-0.1,1.9-0.4,2.3-0.7c0.1-0.1,0.2-0.3,0.3-0.3c0.2-0.1,0.4-0.1,0.4-0.3
			l0.1-0.3c0.1-0.7,0.1-0.9,0-1.6c0-0.2,0-0.5,0-0.7c0-0.2-0.2-0.4-0.2-0.6c0-0.2,0-0.3-0.1-0.5c0-0.1-0.3-0.2-0.3-0.3
			c-0.2-0.3-0.4-1-0.4-1.4c-0.1-0.5-0.1-1,0.2-0.9c-0.1-0.3,0.1-0.7,0-1c0-0.3-0.2-0.5-0.1-0.9c0.2-0.6,0.8-1.2,0.8-1.9
			c-0.8-0.2-1.7-0.4-2.6-0.6c-0.3-0.1-1.1-0.1-1.3-0.2c0.3-0.2,0.8-0.3,1.2-0.4c1-0.3,2-0.6,3.1-0.9C49.2,0.2,49.6,0,50.1,0z
			 M53.7,2.8c0.1,0.2,0.4,1,0.5,1c0.1,0.1,0.1-0.3,0.1-0.3l0-0.7C54,2.7,54,2.6,53.7,2.8z M58.6,39.8l0.2,0.4
			c0.1-0.5,0.1-1.1,0.1-1.1c-0.2-0.3-0.6-0.8-0.5-0.4C58.5,39.2,58.6,39.8,58.6,39.8z"/>
	</g>
	<g>
		<path fill-rule="evenodd" clip-rule="evenodd" fill="#008752" d="M81.4,15.3c0.2,0,0.6-0.2,1-0.2c0.4,0,0.7,0,0.8-0.1
			c0.1-0.1,0.4-0.3,0.7-0.3c0.3,0,0.5,0,1.1,0.2c0.6,0.2,0.5,0.1,1.1,0.2c0.6,0.1,0.8,0.4,0.9,0.5c0.1,0.1,0.1,0.5,0.2,0.5
			c0.1,0,0.3,0.1,0.4,0.3c0.1,0.2,0.4,0.5,0.5,0.7c0,0.2-0.3,0.1-0.3,0.1l-0.2,0.1c0,0,0,0.2,0,0.3c0,0.1-0.3,0.2-0.4,0.3
			C87,18.2,87,18.3,87,18.3s0,0.2,0,0.4c0,0.2-0.1,0.3-0.1,0.4c0,0.1,0.1,0.2,0.3,0.5c0.2,0.2,0.6,0.7,0.6,0.8
			c0,0.1-0.1,0.2-0.3,0.2c-0.2,0.1-0.5,0.1-0.5,0.2c0,0.1-0.1,0.3,0,0.4c0,0.2,0,0.2,0,0.3c0,0.1,0,0.2,0,0.3c0,0.1-0.1,0.1,0,0.4
			c0,0.2,0.2,0.7,0.2,0.8c0,0.1-0.1,0.3-0.3,0.3c-0.1,0-0.5,0-0.7,0.1c-0.2,0.1-0.5,0.1-0.6,0.3c-0.1,0.2,0.1,0.3,0.1,0.3l1,0.9
			c0,0,0.2,0,0.6,0.1c0.4,0.2,0.6,0.4,1,0.5c0.3,0.1,0.6,0.3,0.7,0.5c0.1,0.2,0.5,0.5,0.5,0.6c0.1,0.1,0.5,1.3,0.7,1.5
			c0.1,0.2,0.2,0.1,0.2,0.4c0,0.3-0.2,0.3,0,0.6c0.1,0.3,0.3,0.5,0.3,0.8c0,0.3,0.2,0.8,0.2,1c0,0.1,0.1,0.4,0.1,0.6
			c0,0.2-0.2,0.9-0.3,1.1c-0.1,0.2-0.1,0.3,0,0.4c0.1,0.1,0.2,0.2,0.2,0.4c0,0.2-0.1,0.3-0.1,0.4c0,0.1,0.1,0.9,0.1,1.2
			c0,0.3,0,0.8,0,1.1c0.1,0.4,0.2,0.7,0.2,0.9c0,0.2,0,0.4,0,0.7c0,0.3,0.1,0.8,0.1,1c0,0.2-0.1,1.8-0.1,2c0,0.2,0,0.8-0.1,1.2
			c0,0.4-0.1,0.8-0.1,1.2c0,0.4-0.2,0.7-0.2,0.9c0,0.2,0.4,0.2,0.4,0.2S91,44.8,90.9,45c0,0.2-0.2,0.8-0.2,0.8l-0.1,0c0,0,0,0.8,0,1
			c0,0.2,0,0.3,0,0.6c0,0.4-0.2,0.8-0.3,1.1c-0.1,0.3-0.1,0.6-0.3,1c-0.2,0.4-0.3,0.5-0.3,0.7c0,0.2-0.2,2.8-0.3,3.1
			c0,0.4-0.1,0.8-0.3,1.5c-0.1,0.7-0.2,1.3-0.3,1.8c-0.1,0.5-0.5,3.4-0.5,3.6c0,0.3-0.2,0.9-0.2,1.1c0,0.2,0,0.5,0.1,0.7
			c0.1,0.2,0.3,0.4,0.1,0.5c-0.2,0.2-0.3,0.5-0.6,0.6c-0.3,0.1-0.4,0.2-0.6,0.3c-0.2,0.1-0.4,0.4-0.4,0.5c0,0.1-0.5,2.4-0.5,2.4
			s0.2,0.1,0.2,0.2c0,0.1,0,0.2,0,0.3c0,0.1,0,0.3,0,0.4c-0.1,0.1-0.2,0.1-0.2,0.2c0,0.1,0.1,0.2,0.1,0.3c0,0.1-0.1,0.2,0,0.2
			c0.1,0,0.2,0,0.2,0l0.5-0.4l0.2,0.1c0,0-0.5,0.3-0.5,0.4c0,0.1,0,0.2,0,0.3c0,0.2,0,0.4,0,0.5c0,0.1,0.1,0.3,0.1,0.4
			c0,0.1-0.1,0.3-0.1,0.6c0,0.2-0.1,0.4,0.1,0.7c0.1,0.3,0.3,1,0.3,1.3c0.1,0.3,0.1,0.4,0.3,0.6c0.2,0.3,0.3,0.4,0.4,0.6
			c0.1,0.2,0.4,0.5,0.4,0.6c0,0.2,0.1,0.4,0.1,0.6s0,0.4-0.1,0.5c-0.1,0.1-1.1,0.3-1.4,0.4c-0.3,0-0.7,0-1-0.1
			c-0.3,0-0.4-0.1-0.7-0.3c-0.3-0.2-0.6-0.4-0.8-0.7c-0.2-0.3-0.2-0.5-0.3-0.5c-0.1-0.1-0.5-0.4-0.6-0.5c-0.1,0-0.4,0-0.4-0.2
			c0-0.2,0.1-0.5,0.1-0.7c0-0.1-0.2-0.4-0.3-0.5c0-0.1,0.1-0.5,0.1-0.7c0-0.1,0.1-0.8,0.2-0.9c0-0.1,0.3-1.6,0.3-1.6
			s0.1-0.7,0.1-0.9c0-0.3,0-0.5,0-0.5s0.1,0,0.2-0.1c0-0.1,0-0.3,0-0.4c0-0.1,0.2-0.2,0.2-0.2l0-0.4c0,0-0.1-1.9-0.1-2.1
			c0-0.2,0-0.6-0.1-1c-0.1-0.3-0.3-0.5-0.3-0.7c0-0.3,0-0.3,0-0.4c-0.1-0.1-0.4-0.5-0.4-0.7c0-0.2,0-0.4,0.1-0.6
			c0.1-0.2,0.4-0.4,0.4-0.6c0-0.2,0.3-0.3,0.1-0.6c-0.1-0.3-0.2-0.4-0.1-0.5c0-0.1,0.3-0.6,0.3-0.7c0-0.1,0.1-0.9,0.1-1.1
			c0-0.2-0.2-1.3-0.2-1.4c0-0.1-0.1-0.5-0.1-0.5s-0.4,1.4-0.4,1.5c0,0.1-0.1,0.2-0.2,0.6c-0.1,0.3-0.1,0.6-0.1,1
			c0,0.3,0.2,1.2,0.1,1.5c-0.1,0.3-0.3,1.1-0.3,1.2c0,0.1,0.1,0.7,0.1,0.9c0,0.2-0.4,0.7-0.5,0.9c-0.1,0.2-0.3,0.4-0.3,0.4
			s-0.4,1.1-0.4,1.5c0,0.4-0.3,1.2-0.4,1.4c0,0.3,0,0.7,0,0.7s0.1,0.1,0.1,0.2c0,0.1,0.1,0.4,0.1,0.4l0.1,0.3c0,0,0.1-0.3,0.2-0.1
			c0.1,0.1,0.2,0.3,0.2,0.5c0,0.1,0,0.6,0,0.9c0,0.3-0.1,1.7-0.1,2c0,0.3,0,0.9,0,1.2c0,0.3,0,0.5,0,0.8c0,0.3,0.2,0.9,0.2,1.1
			c0,0.3-0.2,0.4-0.3,0.7c0,0.2-0.2,0.5-0.3,0.6c-0.2,0.1-0.3,0.2-0.9,0.2c-0.5,0-0.7,0-1.1-0.1c-0.4-0.1-0.8-0.1-0.8-0.4
			c0-0.3-0.4-0.8-0.4-1c0-0.3,0-0.5,0-0.8c0-0.3,0-0.4,0.1-0.7c0.1-0.4,0.2-0.5,0.2-0.6c0-0.2,0-0.1,0-0.5c0-0.4,0-0.8,0-1
			c0-0.1-0.1-0.3,0-0.8c0.1-0.4,0.1-0.6,0.1-0.9c0-0.3,0-0.7,0.1-0.9c0-0.2,0.1-0.5,0.1-0.7c0-0.2,0-0.5,0-0.5s-0.3-1.2-0.3-1.4
			c0-0.2-0.2-1.2-0.2-1.4c0-0.2-0.2-1-0.2-1.3c0-0.3,0-0.5,0-0.5s-0.2-0.4-0.3-0.7c-0.1-0.3-0.1-0.7-0.1-0.9
			c0.1-0.2,0.2-0.5,0.2-0.6c0-0.1,0.2-0.6,0.2-0.7c0-0.1,0-0.4,0-0.5c0-0.1,0.5-0.9,0.5-0.9s-0.2-0.6-0.2-0.7c0-0.1-0.5-1.2-0.7-1.6
			c-0.2-0.4-0.5-0.9-0.6-1.4c-0.1-0.4,0-1.7,0-1.9c0-0.2-0.1-0.8-0.1-0.8s-0.3,0.2-0.3,0c0-0.2,0-0.5,0.1-0.7c0.1-0.3,0.3-0.7,0.3-1
			c0-0.2,0-1,0-1.1c0-0.1,0.1-0.7,0.1-0.7l-0.1-0.5c0,0-0.2-0.2-0.4-0.3c-0.1-0.1-0.4-0.4-0.4-0.5c0-0.1-0.2-0.3-0.2-0.3l-0.2,0
			c0,0-0.3-0.9-0.4-1.1c0-0.2,0-1.1,0-1.4c0-0.3,0-1.3,0-1.3s-0.5-0.8-0.6-0.9c-0.1-0.1-0.7-1.2-0.8-1.3c-0.1-0.2-0.6-0.6-0.6-0.6
			s-0.2,0-0.2,0.2c0,0.2-0.1,0.3-0.1,0.3s-0.5-0.3-0.5-0.6c0-0.3,0-0.4,0-0.6c0-0.2-0.1-0.5-0.1-0.6c-0.1-0.1-0.3-0.4-0.1-0.4
			c0.2,0,0.3-0.1,0.3-0.1s-0.3-0.4-0.3-0.5c0-0.1,0-0.2,0.1-0.4c0.1-0.2,0.5-1,0.5-1.2c0-0.2,0.1-0.8,0.1-1.2c0-0.4-0.2-0.4,0-0.8
			c0.3-0.4,0.4-0.5,0.4-0.7c0-0.2,0-0.6,0.1-1c0-0.3,0.1-0.6,0.3-1c0.2-0.4,0.5-1.6,0.6-1.8c0.1-0.1,0.2-0.4,0.4-0.7
			c0.2-0.3,0.4-0.6,0.4-0.8c0-0.1,0-0.5,0.1-0.7c0.1-0.2,0.6-0.4,0.9-0.6c0.3-0.1,1.2-0.9,1.3-1.1c0.1-0.1,0.7-0.4,0.9-0.5
			c0.2-0.1,1.2-0.5,1.2-0.5s0.2-0.5,0.3-0.7c0.1-0.2,0.3-0.2,0.4-0.3c0.1,0,0.4-0.2,0.4-0.2s0.2-0.1,0.2-0.2S81,23.2,81,23.2
			s-0.4-0.2-0.5-0.5c-0.2-0.2-0.6-0.5-0.6-0.9c0-0.3-0.3-0.8-0.4-1.2c-0.1-0.4,0-0.8,0-1c0-0.2,0-1.3,0-1.5c0-0.2-0.2-0.4-0.1-0.6
			c0.1-0.2,0.2-0.4,0.4-0.6c0.2-0.3,0.5-0.6,0.5-0.8c0-0.2,0.3-0.4,0.4-0.5C80.8,15.7,81.1,15.3,81.4,15.3z"/>
	</g>
	<g>
		<path fill-rule="evenodd" clip-rule="evenodd" fill="#008752" d="M119.2,33.9c0-0.1,0-0.1,0-0.1c0-0.1,0-0.1,0-0.1
			c0,0-0.1-0.1-0.1-0.1c0,0,0,0,0,0s-0.1,0-0.2,0c-0.1,0,0,0,0,0s0,0,0,0.1c0,0,0,0,0,0.1c0,0.1,0,0,0,0.1c0,0,0,0.1,0,0.1
			c0,0,0,0.1,0,0.1c0,0,0,0.1,0,0.1c0,0,0.1,0.1,0.1,0.1l0.1,0l0,0l0.1-0.2C119.2,34.1,119.2,34,119.2,33.9z M111,27.2L111,27.2
			l-0.1,0.1l0,0L111,27.2L111,27.2L111,27.2z M111.1,28.7l-0.1,0.1l-0.1,0l0,0.1l0,0.1l0.1,0l0.1-0.1L111.1,28.7z M110.9,28.4
			l-0.1,0.1l-0.1,0.1l0,0.1c0,0,0,0,0.1,0.2l0.1-0.1L110.9,28.4L110.9,28.4z M107.7,29.9l0.1,0l0.1,0l0.3,0h0.1l0.2,0h0.1l0.3-0.1
			l0.2-0.1c0,0,0.2,0,0.2-0.1c0,0,0.2-0.1,0.2-0.1l0.2-0.1l0.4-0.2c0.6-0.2,0.3-0.9,0.3-0.9l0-0.1l0-0.1v-0.1l0-0.2l0.2-0.4l0.1-0.1
			l0.2-0.2c0.2-0.7,0.4-0.9,0.4-0.9l0.1-0.2l0.1-0.1l0.1-0.1l0.1-0.3l0.1-0.2l0.8-1.4l0.8-1c0,0,0.8-1.1,2.5-1.3
			c1.7-0.2,2.1,0.2,2.1,0.2l0.1,0l0.1,0l0.1,0.1l0.2,0.2c0.6,0.1,0.7,0.7,0.8,0.8c0.5,0.7,0.2,1,0.4,1.1c0.3,0.2,0.4,2.3,0.2,2.7
			c-0.2,0.4,0.2,1.7,0.2,1.7s0.3,2.5,0.1,2.9c-0.2,0.4-0.5,2-0.4,2.2c0.1,0.2,0.1,0.1,0.1,0.2c0,0.1,0,0.1,0,0.1s0,0.2,0,0.2
			c0,0.1,0,0.5,0,0.5s0,0.1,0.1,0.1c0.1,0.1,0.1,0.1,0.1,0.1c0,0.1,0,0,0,0.1c0,0.1,0,0.2,0,0.3c0,0.2-0.2,0.2-0.2,0.2l-0.2,0h-0.2
			l-0.2,0.2v0.1l0.2,0.4c0.1,0.1,0,0.3,0,0.5c0.1,0.2-0.2,0.7-0.2,0.7c-0.1,0.3,0.1,0.6,0.1,0.9c0,0.3-0.1,0.4-0.1,0.6
			c-0.1,0.5,0,1-0.1,1.6c0,0.3-0.2,0.5-0.3,0.7c-0.2,0.5-0.3,0.9-0.5,1.4c-0.1,0.1-0.3,0.4-0.3,0.5c0,0,0.2,0.7,0.2,0.8
			c0,0,0.1,0.1,0.1,0.1c0,0.1,0.1,0.2,0,0.3c0,0,0,0,0,0.1c0,0.1,0.2,0.2,0.3,0.3c0.1,0.1,0.1,0.3,0.2,0.5c0.1,0.3,0.4,0.5,0.5,0.8
			c0.1,0.1,0.1,0.3,0.1,0.4c0.1,0.2,0.2,0.4,0.2,0.5c0.1,0.3,0.2,0.6,0.3,0.8c0.2,0.4,0.5,0.7,0.7,1.1c0.1,0.1,0.2,0.2,0.2,0.3
			c0.1,0.3,0.3,0.5,0.4,0.8c0,0.1,0.1,0.1,0.2,0.2c0,0.1,0.1,0.2,0.1,0.3c0.1,0.1,0.2,0.2,0.3,0.3c0.1,0.1,0.1,0.2,0.1,0.3
			c0,0.1,0.1,0.1,0.1,0.2c0,0.1,0,0.1,0,0.2c0,0.1-0.1,0.2-0.2,0.3c-0.2,0.3-0.3,0.6-0.5,0.8c-0.5,0.7-0.9,1.5-1.4,2.2
			c-0.2,0.3-0.3,0.6-0.4,1c0,0.1-0.1,0.1-0.1,0.1c-0.1,0.2-0.2,0.4-0.2,0.5c-0.1,0-0.2,0-0.2-0.1c-0.1-0.1-0.3-0.1-0.4-0.2
			c0,0-0.1,0-0.1-0.1c-0.1-0.2,0.1-0.4,0.1-0.6c0-0.1-0.4-0.2-0.5-0.3c0-0.2,0-0.9-0.1-0.9c0,0,0,0-0.1,0c-0.1,0.1-0.1,0.3-0.1,0.5
			c-0.1,0.5-0.2,1.1-0.3,1.6c0,0.2,0,0.4-0.1,0.7c0,0.4-0.1,0.8-0.1,1.2c0,0.4,0,0.8,0,1.2c0,0.5-0.1,1,0,1.5c0,0.3,0,0.7,0,1
			c-0.1,0.9-0.1,1.7-0.2,2.5c-0.1,1.3-0.4,2.5-0.7,3.7c-0.1,0.3-0.2,0.7-0.3,1c0,0.1-0.1,0.2-0.1,0.3c0,0.1,0.1,0.1,0.1,0.3
			c0,0.1-0.2,0.2-0.2,0.4c-0.1,0.2-0.1,0.5-0.2,0.7c-0.1,0.3-0.3,0.7-0.3,1.1c0,0.2,0.2,0.3,0.2,0.5c0,0.1-0.2,0.2-0.3,0.3
			c0,0.1,0,0.3,0,0.4c0,0.1-0.1,0.2-0.1,0.3c0,0.1,0.1,0.2,0.1,0.4c0,0.2-0.1,0.3,0,0.4c0,0.2,0.1,0.4,0.2,0.6
			c0,0.1,0.2,0.2,0.2,0.3c0,0.1,0,0.3,0,0.4c0.1,0.3,0.2,0.6,0.4,1c0,0.1,0.1,0.2,0.1,0.3c0,0,0,0.1,0,0.1c0,0.1,0,0.3,0,0.4
			c0,0.1,0,0.2-0.1,0.3c0,0.2,0,0.4-0.1,0.5c0,0-0.1,0.1-0.1,0.1c0,0-0.1,0.1-0.1,0.1c-0.5,0.2-1.7,0.2-2.2-0.1
			c-0.2-0.1-0.4-0.3-0.5-0.6c0-0.1-0.1-0.1-0.1-0.2c0-0.2,0-0.5,0-0.7c0-0.1,0.2-0.2,0.2-0.4c0-0.2-0.5-0.4-0.6-0.7
			c0-0.2,0-0.5,0-0.8c0-0.4,0-0.8,0-1.2c0-0.1,0-0.2,0-0.3c0.1-0.3,0.3-0.5,0.4-0.8c0-0.2-0.2-0.4-0.2-0.6c0,0,0.1-0.1,0.1-0.2
			c0.1-0.3,0.2-0.6,0.3-1c0-0.1,0-0.1-0.1-0.1c0-0.1,0.1-0.4,0-0.6c0,0,0,0,0,0c0-0.1,0-0.2,0-0.3c0,0,0.1-0.1,0.1-0.1
			c0-0.1,0-0.2,0-0.4c0,0,0.1,0,0.1-0.1c0.1-0.3-0.1-0.2,0.2-0.4c0-0.5,0-1,0.1-1.5c0.1-0.8,0-1.7,0-2.5c0.1-0.8,0.4-1.5,0.3-2.5
			c0-0.6-0.2-1.2-0.3-1.8c-0.1-0.3-0.2-0.6-0.2-0.9c-0.1-0.9,0-1.9-0.2-2.8c-0.2,0-0.4,0.1-0.7,0.1c-0.1-0.1-0.1-0.2-0.1-0.3
			c0,0-0.1-0.1-0.1-0.1c-0.1-0.3-0.2-0.6-0.3-1c0-0.1-0.1-0.2-0.1-0.4c0,0,0-0.1,0-0.1c0,0-0.1-0.1-0.1-0.1
			c-0.1-0.1-0.1-0.2-0.1-0.3c0,0-0.1-0.1-0.1-0.1c-0.1-0.1-0.1-0.2-0.1-0.3c0,0,0,0-0.1,0c-0.1,0-0.1,0.3-0.2,0.4
			c-0.1,0.3-0.3,0.6-0.4,0.9c-0.5,1.1-1.2,2.2-1.7,3.4c-0.4,0.8-0.7,1.7-1.1,2.5c-0.3,0.6-0.8,1.1-1,1.7c-0.1,0.4-0.1,1-0.2,1.4
			c-0.1,0.9-0.3,1.8-0.6,2.6c-0.1,0.4-0.3,0.8-0.5,1.1c-0.2,0.3-0.4,0.6-0.6,0.9c-0.2,0.3-0.3,0.7-0.5,1c-0.1,0.2-0.3,0.4-0.3,0.6
			c0,0.1,0,0.1,0,0.2c0,0.1-0.2,0.2-0.2,0.3c-0.1,0.4-0.2,0.7-0.4,1.1c0,0.1-0.1,0.2-0.2,0.3c0,0.1,0,0.1,0,0.2c0,0,0.2,0.1,0.2,0.1
			c0.1,0.1,0,0.2,0.1,0.3c0.1,0.2,0.2,0.4,0.2,0.6c0.1,0.2,0,0.5,0.1,0.7c0,0.1,0.2,0.1,0.2,0.2c0,0.1,0,0.4,0,0.4
			c0,0.4,0,0.7,0,1.1c0,0.3,0.1,0.9,0,1.2c-0.2,0.3-1.5,0.5-2,0.4c0-0.1,0-0.2,0-0.3c0-0.2-0.3-0.3-0.3-0.5c0-0.2,0.1-0.4,0-0.6
			c-0.1,0-0.1,0-0.2,0.1c-0.4,0.3-0.6,0.6-0.9,1c-0.3,0.3-0.6,0.6-0.9,0.8c-0.2,0.1-0.5,0.1-0.7,0.2c-0.5,0.1-1.1,0.2-1.7,0.1
			c-0.3,0-0.9-0.2-1-0.4c-0.1-0.1-0.1-0.5,0-0.6c0,0,0.1-0.1,0.1-0.1c0.1-0.1,0-0.2,0.1-0.3c0.2-0.3,0.4-0.4,0.7-0.6
			c0.3-0.1,0.6-0.2,0.8-0.4c0.1,0,0.1-0.1,0.2-0.2c0,0,0.1,0,0.2-0.1c0.1-0.1,0.2-0.2,0.3-0.3c0.2-0.2,0.4-0.4,0.5-0.6
			c0-0.1,0-0.1,0-0.2c0.1,0,0.1,0,0.2-0.1c0.2-0.3,0.3-0.6,0.4-0.9c0-0.1,0.1-0.2,0.2-0.2c0.1-0.1,0.1-0.2,0.1-0.3
			c0,0,0.1-0.1,0.1-0.1c0-0.1,0-0.1,0-0.2c0-0.1,0.1-0.1,0.1-0.2c0.1-0.1,0.1-0.3,0.1-0.4c0-0.1,0.1-0.2,0.2-0.4c0-0.1,0-0.2,0-0.3
			c0.1-0.3,0.2-0.6,0.3-0.9c0-0.1,0-0.3,0.1-0.4l0,0c0-0.1,0.2,0,0.2-0.1c0.1-0.1,0-0.3,0.1-0.4c0.1-0.1,0.2,0,0.2-0.1
			c0-0.1,0.1-0.2,0.1-0.3c0.1-0.4,0.2-0.9,0.3-1.4c0.2-1,0.5-2.1,0.7-3.1c0.1-0.5,0.3-1.1,0.5-1.5c0-0.1,0.2-0.3,0.2-0.5
			c0-0.1,0-0.1,0-0.2c0-0.1,0.1-0.1,0.1-0.2c0-0.1,0-0.1,0-0.2c0,0,0.1-0.1,0.1-0.2c0,0,0-0.1,0-0.1c0-0.2,0-0.5,0-0.7
			c0.1-0.3,0.3-0.5,0.3-0.9c0.1-0.5,0.2-1.1,0.3-1.7c0.1-0.3,0.1-0.6,0.2-0.9c0-0.2,0.1-0.4,0.2-0.6c0-0.1,0-0.1,0-0.1
			c0,0-0.1,0-0.1,0c-0.1,0.1-0.1,0.2-0.1,0.2c0,0.1-0.1,0.1-0.2,0.1c0.1-0.2,0-0.3,0-0.5c0,0,0-0.1,0-0.1c0,0,0,0,0-0.1
			c0-0.2,0-0.5,0-0.7c0.1-0.5,0.2-1,0.2-1.6c0.1-0.6,0.2-1.2,0.3-1.7c0.1-0.3,0.3-0.7,0.3-1.1c0.1-0.7-0.1-1.5,0.1-2.2
			c0.1-0.3,0.2-0.5,0.3-0.7c0-0.1,0-0.2,0.1-0.3c0-0.1,0.1-0.2,0.1-0.2c0-0.1,0-0.3,0-0.5c0-0.4,0.2-0.7,0.2-1c0-0.2,0-0.4,0.1-0.6
			c0,0,0.1,0,0.1-0.1c0,0,0.1-0.1,0.1-0.2c0.1-0.1,0.2-0.2,0.2-0.3c0.1-0.2,0.1-0.5,0.2-0.7c0-0.1,0.2-0.3,0.2-0.4c0,0,0-0.1,0-0.1
			c0,0-0.6-0.3-0.7-0.4c-0.2-0.1-1-0.5-1.1-0.7c0-0.1,0-0.2,0-0.2c0-0.2,0.1-0.4,0.1-0.6c0-0.2,0-0.3,0-0.4c0-0.1,0.1-0.2,0.1-0.4
			c0-0.1-0.1-0.2-0.1-0.3c0-0.2,0-0.3,0-0.5c0-0.4,0.1-0.8,0.2-1.2c-0.3-0.2-0.3-0.4-0.5-0.8c-0.1-0.3-0.2-0.6-0.3-0.9
			c-0.1-0.5-0.2-1-0.2-1.6c0-0.6,0-1.1,0-1.6c0-0.6,0.1-1.2,0.2-1.7c0.1-0.4,0.2-0.7,0.2-1.1c0-0.1,0.1-0.2,0.1-0.3
			c0-0.2,0-0.4,0.1-0.6c0-0.2,0.1-0.4,0.2-0.5c0.2-0.6,0.5-1.4,1-1.7c0.3-0.2,0.5-0.3,1-0.3L107.7,29.9z"/>
	</g>
	<g>
		<g>
			<g>
				<g>
					<path fill="#FFFFFF" d="M75.3,63.4c5.6-0.7,11.1-2,16.5-3.8c-1,3.1-2.2,6.2-3.5,9.3c2.5,2.1,5.2,4,8,5.9
						c-6.3,2.1-12.7,3.6-19.2,4.4C76.5,74,75.9,68.7,75.3,63.4z"/>
					<path fill="#008752" d="M77.1,80.4c-0.2,0-0.5-0.1-0.7-0.2c-0.2-0.2-0.4-0.4-0.4-0.7l-1.8-15.8c-0.1-0.6,0.4-1.1,0.9-1.2
						c5.5-0.7,11-2,16.3-3.8c0.4-0.1,0.8,0,1.1,0.3c0.3,0.3,0.4,0.7,0.3,1.1c-0.9,2.9-2,5.8-3.2,8.7c2.3,1.9,4.8,3.6,7.3,5.3
						c0.3,0.2,0.5,0.6,0.5,1.1c-0.1,0.4-0.3,0.8-0.7,0.9c-6.3,2.1-12.8,3.6-19.4,4.5C77.2,80.4,77.2,80.4,77.1,80.4z M76.5,64.4
						L78.1,78c5.3-0.8,10.6-1.9,15.8-3.5c-2.1-1.5-4.2-3.1-6.2-4.7c-0.4-0.3-0.5-0.8-0.3-1.3c1-2.4,1.9-4.8,2.8-7.2
						C85.6,62.7,81.1,63.7,76.5,64.4z"/>
				</g>
				<g>
					<path fill="#008752" d="M82.5,70.7c-0.2,0-0.5-0.1-0.7-0.2c-2.5-2-5-4.1-7.3-6.2c-0.4-0.4-0.5-1.1,0-1.6c0.4-0.4,1.1-0.5,1.6,0
						c2.3,2.1,4.6,4.2,7.1,6.1c0.5,0.4,0.6,1.1,0.2,1.5C83.1,70.5,82.8,70.7,82.5,70.7z"/>
				</g>
			</g>
			<g>
				<g>
					<path fill="#FFFFFF" d="M52.6,63.4c-5.6-0.7-11.1-2-16.5-3.8c1,3.1,2.2,6.2,3.5,9.3c-2.5,2.1-5.2,4-8,5.9
						c6.3,2.1,12.7,3.6,19.2,4.4C51.4,74,52,68.7,52.6,63.4z"/>
					<path fill="#008752" d="M50.8,80.4c0,0-0.1,0-0.1,0C44,79.5,37.5,78,31.2,75.9c-0.4-0.1-0.7-0.5-0.7-0.9s0.1-0.8,0.5-1.1
						c2.5-1.7,4.9-3.5,7.3-5.3c-1.2-2.8-2.3-5.8-3.2-8.7c-0.1-0.4,0-0.8,0.3-1.1c0.3-0.3,0.7-0.4,1.1-0.3c5.3,1.8,10.8,3,16.3,3.8
						c0.6,0.1,1,0.6,0.9,1.2l-1.8,15.8c0,0.3-0.2,0.6-0.4,0.7C51.2,80.3,51,80.4,50.8,80.4z M34,74.5c5.2,1.6,10.4,2.8,15.8,3.5
						l1.6-13.7c-4.6-0.7-9.1-1.7-13.6-3c0.8,2.4,1.8,4.8,2.8,7.2c0.2,0.4,0.1,1-0.3,1.3C38.2,71.4,36.2,73,34,74.5z"/>
				</g>
				<g>
					<path fill="#008752" d="M45.4,70.7c-0.3,0-0.7-0.1-0.9-0.4c-0.4-0.5-0.3-1.2,0.2-1.5c2.5-1.9,4.9-4,7.1-6.1
						c0.4-0.4,1.1-0.4,1.6,0s0.4,1.1,0,1.6c-2.3,2.2-4.8,4.3-7.3,6.2C45.8,70.6,45.6,70.7,45.4,70.7z"/>
				</g>
			</g>
			<g>
				<path fill="#FFFFFF" d="M45.4,69.6c12.3,2.5,24.8,2.5,37.1,0c0.9,5.2,1.9,10.5,2.8,15.7c-14.1,2.8-28.6,2.8-42.7,0
					C43.5,80,44.5,74.8,45.4,69.6z"/>
				<path fill="#008752" d="M63.9,88.5c-7.2,0-14.5-0.7-21.6-2.1c-0.6-0.1-1-0.7-0.9-1.3l2.8-15.7c0.1-0.3,0.2-0.5,0.5-0.7
					c0.2-0.2,0.5-0.2,0.8-0.2c12.1,2.4,24.6,2.4,36.7,0c0.3-0.1,0.6,0,0.8,0.2c0.2,0.2,0.4,0.4,0.5,0.7l2.8,15.7
					c0.1,0.6-0.3,1.2-0.9,1.3C78.4,87.8,71.2,88.5,63.9,88.5z M43.9,84.4c13.2,2.5,26.9,2.5,40.2,0l-2.4-13.5
					c-11.6,2.2-23.7,2.2-35.3,0L43.9,84.4z"/>
			</g>
		</g>
		<g>
			<path fill="#008752" d="M53.3,79.3l-0.5,1v3.2h-1.6V73.1h1.6v4.5l2.1-4.5h1.6l-2.3,4.7l2.3,5.8h-1.7L53.3,79.3z"/>
			<path fill="#008752" d="M56.8,77.6h7.5v1.3h-7.5V77.6z"/>
			<path fill="#008752" d="M65.8,74.4c1.3,0,1.5-0.6,1.8-1.3h1.1v10.4h-1.6v-8h-1.3V74.4z"/>
			<path fill="#008752" d="M73.1,74.4c-0.5,0-0.8,0.3-0.8,1v1.1h-1.5v-1c0-1.7,0.8-2.6,2.4-2.6c1.6,0,2.4,1,2.4,2.6
				c0,3.3-3.3,4.5-3.3,6.2c0,0.1,0,0.1,0,0.2h3.1v1.5h-4.7v-1.3c0-3.1,3.2-3.6,3.2-6.6C74,74.7,73.7,74.4,73.1,74.4z"/>
		</g>
	</g>
</g>
</svg>
